<svg width="206" height="40" viewBox="0 0 206 40" fill="none" xmlns="http://www.w3.org/2000/svg">
<path d="M19.9984 14.6496C22.3941 14.5939 24.5113 16.0982 25.2356 18.2711C25.5699 19.274 26.4613 19.9983 27.5199 19.9983H27.7428C29.3585 19.9983 30.5285 18.3825 30.0271 16.8782C28.5785 12.3653 24.1213 9.1896 18.9955 9.74675C14.2598 10.3039 10.4712 14.0925 9.91403 18.8283C9.35688 23.8983 12.4212 28.2998 16.8784 29.8041C18.4384 30.3055 20.0541 29.1912 20.0541 27.5198V27.2969C20.0541 26.2383 19.3855 25.3469 18.3827 25.0126C16.2655 24.2326 14.7612 22.1711 14.8726 19.8311C14.9284 17.0454 17.2684 14.7611 19.9984 14.6496Z" fill="white"/>
<path d="M37.4928 24.8457C36.0999 24.8457 34.9856 25.96 34.9856 27.3529V30.7515V32.5901C34.9856 33.8715 33.927 34.9301 32.6456 34.9301H27.3527C25.9598 34.9301 24.8455 36.0444 24.8455 37.4372C24.8455 38.8301 25.9598 39.9444 27.3527 39.9444H32.9242C36.8242 39.9444 39.9999 36.7687 39.9999 32.8686V30.7515V27.3529C39.9999 26.0157 38.8856 24.8457 37.4928 24.8457Z" fill="white"/>
<path d="M19.9984 34.9857C11.1398 34.9857 4.06398 27.297 5.06684 18.2712C5.84685 11.4183 11.3626 5.84685 18.2712 5.06684C27.297 4.06398 34.9857 11.084 34.9857 19.9427V19.9984C34.9857 21.3913 36.1 22.5056 37.4928 22.5056C38.8857 22.5056 40 21.3913 40 19.9984C40 8.46544 30.2499 -0.783209 18.5498 0.0525127C8.74401 0.72109 0.72109 8.6883 0.0525127 18.5498C-0.783209 30.2499 8.46544 39.9443 19.9984 40C21.3913 40 22.5056 38.8857 22.5056 37.4928C22.5056 36.1 21.3913 34.9857 19.9984 34.9857Z" fill="white"/>
<path d="M65.8305 32.5266C64.1962 32.5266 62.7295 32.2752 61.4305 31.7723C60.1314 31.2695 59.0314 30.5361 58.1305 29.5723C57.2295 28.5876 56.5381 27.3933 56.0562 25.9895C55.5743 24.5857 55.3333 22.9723 55.3333 21.1495C55.3333 19.3266 55.6057 17.7133 56.1505 16.3095C56.7162 14.9057 57.481 13.7219 58.4448 12.7581C59.4086 11.7733 60.54 11.0295 61.8391 10.5266C63.1381 10.0238 64.5314 9.77234 66.0191 9.77234C66.92 9.77234 67.7372 9.84567 68.4705 9.99234C69.2038 10.1181 69.8429 10.2647 70.3876 10.4323C70.9324 10.6 71.3829 10.7781 71.7391 10.9666C72.0952 11.1552 72.3467 11.2914 72.4933 11.3752L71.3305 14.6123C70.8276 14.2981 70.1048 14.0047 69.1619 13.7323C68.24 13.439 67.2343 13.2923 66.1448 13.2923C65.2019 13.2923 64.3219 13.46 63.5048 13.7952C62.6876 14.1095 61.9752 14.5914 61.3676 15.2409C60.781 15.8904 60.32 16.7076 59.9848 17.6923C59.6495 18.6771 59.4819 19.819 59.4819 21.1181C59.4819 22.2704 59.6076 23.3285 59.8591 24.2923C60.1314 25.2562 60.54 26.0942 61.0848 26.8066C61.6295 27.4981 62.321 28.0428 63.1591 28.4409C63.9972 28.8181 65.0029 29.0066 66.1762 29.0066C67.58 29.0066 68.7219 28.8704 69.6019 28.5981C70.4819 28.3047 71.1629 28.0323 71.6448 27.7809L72.7133 31.0181C72.4619 31.1857 72.1162 31.3533 71.6762 31.5209C71.2572 31.6885 70.7543 31.8562 70.1676 32.0238C69.581 32.1704 68.921 32.2857 68.1876 32.3695C67.4543 32.4742 66.6686 32.5266 65.8305 32.5266Z" fill="white"/>
<path d="M90.4705 23.8209C90.4705 25.12 90.2819 26.3038 89.9048 27.3723C89.5276 28.4409 88.9933 29.3523 88.3019 30.1066C87.6105 30.8609 86.7724 31.4476 85.7876 31.8666C84.8238 32.2857 83.7552 32.4952 82.5819 32.4952C81.4086 32.4952 80.34 32.2857 79.3762 31.8666C78.4124 31.4476 77.5848 30.8609 76.8933 30.1066C76.2019 29.3523 75.6572 28.4409 75.2591 27.3723C74.8819 26.3038 74.6933 25.12 74.6933 23.8209C74.6933 22.5219 74.8819 21.3485 75.2591 20.3009C75.6572 19.2323 76.2019 18.3209 76.8933 17.5666C77.6057 16.8123 78.4438 16.2362 79.4076 15.8381C80.3714 15.419 81.4295 15.2095 82.5819 15.2095C83.7343 15.2095 84.7924 15.419 85.7562 15.8381C86.741 16.2362 87.5791 16.8123 88.2705 17.5666C88.9619 18.3209 89.4962 19.2323 89.8733 20.3009C90.2714 21.3485 90.4705 22.5219 90.4705 23.8209ZM86.5733 23.8209C86.5733 22.1866 86.2172 20.8981 85.5048 19.9552C84.8133 18.9914 83.8391 18.5095 82.5819 18.5095C81.3248 18.5095 80.34 18.9914 79.6276 19.9552C78.9362 20.8981 78.5905 22.1866 78.5905 23.8209C78.5905 25.4762 78.9362 26.7857 79.6276 27.7495C80.34 28.7133 81.3248 29.1952 82.5819 29.1952C83.8391 29.1952 84.8133 28.7133 85.5048 27.7495C86.2172 26.7857 86.5733 25.4762 86.5733 23.8209Z" fill="white"/>
<path d="M104.257 32.5266C102.623 32.5266 101.156 32.2752 99.8568 31.7723C98.5578 31.2695 97.4578 30.5361 96.5568 29.5723C95.6559 28.5876 94.9644 27.3933 94.4825 25.9895C94.0006 24.5857 93.7597 22.9723 93.7597 21.1495C93.7597 19.3266 94.0321 17.7133 94.5768 16.3095C95.1425 14.9057 95.9073 13.7219 96.8711 12.7581C97.8349 11.7733 98.9663 11.0295 100.265 10.5266C101.564 10.0238 102.958 9.77234 104.445 9.77234C105.346 9.77234 106.163 9.84567 106.897 9.99234C107.63 10.1181 108.269 10.2647 108.814 10.4323C109.359 10.6 109.809 10.7781 110.165 10.9666C110.522 11.1552 110.773 11.2914 110.92 11.3752L109.757 14.6123C109.254 14.2981 108.531 14.0047 107.588 13.7323C106.666 13.439 105.661 13.2923 104.571 13.2923C103.628 13.2923 102.748 13.46 101.931 13.7952C101.114 14.1095 100.402 14.5914 99.794 15.2409C99.2073 15.8904 98.7463 16.7076 98.4111 17.6923C98.0759 18.6771 97.9083 19.819 97.9083 21.1181C97.9083 22.2704 98.034 23.3285 98.2854 24.2923C98.5578 25.2562 98.9663 26.0942 99.5111 26.8066C100.056 27.4981 100.747 28.0428 101.585 28.4409C102.423 28.8181 103.429 29.0066 104.603 29.0066C106.006 29.0066 107.148 28.8704 108.028 28.5981C108.908 28.3047 109.589 28.0323 110.071 27.7809L111.14 31.0181C110.888 31.1857 110.543 31.3533 110.103 31.5209C109.683 31.6885 109.181 31.8562 108.594 32.0238C108.007 32.1704 107.347 32.2857 106.614 32.3695C105.881 32.4742 105.095 32.5266 104.257 32.5266Z" fill="white"/>
<path d="M120.213 29.3838C121.386 29.3838 122.277 29.3209 122.884 29.1952V24.9838C122.675 24.9209 122.371 24.8581 121.973 24.7952C121.575 24.7323 121.135 24.7009 120.653 24.7009C120.234 24.7009 119.804 24.7323 119.364 24.7952C118.945 24.8581 118.558 24.9733 118.202 25.1409C117.866 25.3085 117.594 25.5495 117.384 25.8638C117.175 26.1571 117.07 26.5342 117.07 26.9952C117.07 27.8962 117.353 28.5247 117.919 28.8809C118.484 29.2162 119.249 29.3838 120.213 29.3838ZM119.899 15.2095C121.156 15.2095 122.214 15.3666 123.073 15.6809C123.932 15.9952 124.613 16.4352 125.116 17.0009C125.64 17.5666 126.006 18.2581 126.216 19.0752C126.446 19.8714 126.562 20.7514 126.562 21.7152V31.6781C125.975 31.8038 125.084 31.9504 123.89 32.1181C122.717 32.3066 121.386 32.4009 119.899 32.4009C118.914 32.4009 118.013 32.3066 117.196 32.1181C116.379 31.9295 115.677 31.6257 115.09 31.2066C114.524 30.7876 114.074 30.2428 113.739 29.5723C113.424 28.9019 113.267 28.0742 113.267 27.0895C113.267 26.1466 113.445 25.3504 113.802 24.7009C114.179 24.0514 114.682 23.5276 115.31 23.1295C115.939 22.7104 116.662 22.4171 117.479 22.2495C118.317 22.0609 119.186 21.9666 120.087 21.9666C120.506 21.9666 120.946 21.9981 121.407 22.0609C121.868 22.1028 122.361 22.1866 122.884 22.3123V21.6838C122.884 21.2438 122.832 20.8247 122.727 20.4266C122.622 20.0285 122.434 19.6828 122.162 19.3895C121.91 19.0752 121.564 18.8342 121.124 18.6666C120.705 18.499 120.171 18.4152 119.522 18.4152C118.642 18.4152 117.835 18.4781 117.102 18.6038C116.368 18.7295 115.771 18.8762 115.31 19.0438L114.839 15.9638C115.321 15.7961 116.022 15.6285 116.944 15.4609C117.866 15.2933 118.851 15.2095 119.899 15.2095Z" fill="white"/>
<path d="M142.124 23.7895C142.124 22.1762 141.8 20.8981 141.15 19.9552C140.521 19.0123 139.516 18.5409 138.133 18.5409C137.504 18.5409 136.907 18.6352 136.341 18.8238C135.797 19.0123 135.357 19.2219 135.021 19.4523V28.9123C135.294 28.9752 135.64 29.0381 136.059 29.1009C136.499 29.1428 137.022 29.1638 137.63 29.1638C139.034 29.1638 140.134 28.6923 140.93 27.7495C141.726 26.7857 142.124 25.4657 142.124 23.7895ZM146.021 23.8523C146.021 25.1723 145.822 26.3666 145.424 27.4352C145.047 28.4828 144.492 29.3838 143.759 30.1381C143.046 30.8923 142.177 31.4685 141.15 31.8666C140.123 32.2647 138.961 32.4638 137.661 32.4638C136.404 32.4638 135.2 32.3695 134.047 32.1809C132.916 31.9923 131.973 31.7828 131.219 31.5523V8.2952L135.021 7.66663V16.1838C135.461 15.9533 135.996 15.7438 136.624 15.5552C137.274 15.3666 137.986 15.2723 138.761 15.2723C139.914 15.2723 140.941 15.4819 141.841 15.9009C142.763 16.299 143.528 16.8752 144.136 17.6295C144.743 18.3838 145.204 19.2952 145.519 20.3638C145.854 21.4114 146.021 22.5742 146.021 23.8523Z" fill="white"/>
<path d="M153.775 32.0552H149.972V15.6181H153.775V32.0552ZM154.184 10.8095C154.184 11.5219 153.953 12.0876 153.492 12.5066C153.031 12.9257 152.486 13.1352 151.858 13.1352C151.208 13.1352 150.653 12.9257 150.192 12.5066C149.731 12.0876 149.501 11.5219 149.501 10.8095C149.501 10.0761 149.731 9.49996 150.192 9.08091C150.653 8.66186 151.208 8.45234 151.858 8.45234C152.486 8.45234 153.031 8.66186 153.492 9.08091C153.953 9.49996 154.184 10.0761 154.184 10.8095Z" fill="white"/>
<path d="M158.627 16.1523C159.36 15.9428 160.313 15.7438 161.487 15.5552C162.66 15.3666 163.959 15.2723 165.384 15.2723C166.725 15.2723 167.846 15.4609 168.747 15.8381C169.647 16.1942 170.36 16.7076 170.884 17.3781C171.428 18.0276 171.806 18.8238 172.015 19.7666C172.246 20.6885 172.361 21.7047 172.361 22.8152V32.0552H168.558V23.4123C168.558 22.5323 168.495 21.7885 168.369 21.1809C168.265 20.5523 168.076 20.0495 167.804 19.6723C167.552 19.2742 167.196 18.9914 166.735 18.8238C166.295 18.6352 165.75 18.5409 165.101 18.5409C164.619 18.5409 164.116 18.5723 163.592 18.6352C163.068 18.6981 162.681 18.7504 162.429 18.7923V32.0552H158.627V16.1523Z" fill="white"/>
<path d="M176.1 23.9152C176.1 22.4695 176.309 21.2019 176.728 20.1123C177.168 19.0228 177.744 18.1219 178.457 17.4095C179.169 16.6761 179.986 16.1314 180.908 15.7752C181.83 15.3981 182.773 15.2095 183.737 15.2095C186 15.2095 187.76 15.9114 189.017 17.3152C190.295 18.719 190.934 20.8142 190.934 23.6009C190.934 23.8104 190.923 24.0514 190.902 24.3238C190.902 24.5752 190.892 24.8057 190.871 25.0152H180.028C180.133 26.3352 180.594 27.3619 181.411 28.0952C182.249 28.8076 183.454 29.1638 185.025 29.1638C185.947 29.1638 186.785 29.08 187.54 28.9123C188.315 28.7447 188.922 28.5666 189.362 28.3781L189.865 31.4895C189.656 31.5942 189.362 31.7095 188.985 31.8352C188.629 31.94 188.21 32.0342 187.728 32.1181C187.267 32.2228 186.764 32.3066 186.22 32.3695C185.675 32.4323 185.12 32.4638 184.554 32.4638C183.108 32.4638 181.851 32.2542 180.782 31.8352C179.714 31.3952 178.834 30.7981 178.142 30.0438C177.451 29.2685 176.938 28.3676 176.602 27.3409C176.267 26.2933 176.1 25.1514 176.1 23.9152ZM187.131 22.2181C187.131 21.6942 187.058 21.2019 186.911 20.7409C186.764 20.259 186.544 19.8504 186.251 19.5152C185.979 19.159 185.633 18.8866 185.214 18.6981C184.816 18.4885 184.334 18.3838 183.768 18.3838C183.181 18.3838 182.668 18.499 182.228 18.7295C181.788 18.939 181.411 19.2219 181.097 19.5781C180.803 19.9342 180.573 20.3428 180.405 20.8038C180.238 21.2647 180.122 21.7362 180.06 22.2181H187.131Z" fill="white"/>
<path d="M194.777 11.2809L198.58 10.6523V15.6181H204.426V18.7923H198.58V25.4866C198.58 26.8066 198.79 27.7495 199.209 28.3152C199.628 28.8809 200.34 29.1638 201.346 29.1638C202.037 29.1638 202.645 29.0904 203.169 28.9438C203.713 28.7971 204.143 28.6609 204.457 28.5352L205.086 31.5523C204.646 31.7409 204.07 31.9295 203.357 32.1181C202.645 32.3276 201.807 32.4323 200.843 32.4323C199.67 32.4323 198.685 32.2752 197.889 31.9609C197.113 31.6466 196.495 31.1962 196.034 30.6095C195.573 30.0019 195.249 29.279 195.06 28.4409C194.872 27.5819 194.777 26.6076 194.777 25.5181V11.2809Z" fill="white"/>
</svg>
