<svg width="40" height="40" viewBox="0 0 40 40" fill="none" xmlns="http://www.w3.org/2000/svg">
<path d="M19.9984 14.6496C22.3941 14.5939 24.5113 16.0982 25.2356 18.2711C25.5699 19.274 26.4613 19.9983 27.5199 19.9983H27.7428C29.3585 19.9983 30.5285 18.3825 30.0271 16.8782C28.5785 12.3653 24.1213 9.1896 18.9955 9.74675C14.2598 10.3039 10.4712 14.0925 9.91403 18.8283C9.35688 23.8983 12.4212 28.2998 16.8784 29.8041C18.4384 30.3055 20.0541 29.1912 20.0541 27.5198V27.2969C20.0541 26.2383 19.3855 25.3469 18.3827 25.0126C16.2655 24.2326 14.7612 22.1711 14.8726 19.8311C14.9284 17.0454 17.2684 14.7611 19.9984 14.6496Z" fill="#05D2DD"/>
<path d="M37.4928 24.8457C36.0999 24.8457 34.9856 25.96 34.9856 27.3529V30.7515V32.5901C34.9856 33.8715 33.927 34.9301 32.6456 34.9301H27.3527C25.9598 34.9301 24.8455 36.0444 24.8455 37.4372C24.8455 38.8301 25.9598 39.9444 27.3527 39.9444H32.9242C36.8242 39.9444 39.9999 36.7687 39.9999 32.8686V30.7515V27.3529C39.9999 26.0157 38.8856 24.8457 37.4928 24.8457Z" fill="#8F68FC"/>
<path d="M19.9984 34.9857C11.1398 34.9857 4.06398 27.297 5.06684 18.2712C5.84685 11.4183 11.3626 5.84685 18.2712 5.06684C27.297 4.06398 34.9857 11.084 34.9857 19.9427V19.9984C34.9857 21.3913 36.1 22.5056 37.4928 22.5056C38.8857 22.5056 40 21.3913 40 19.9984C40 8.46544 30.2499 -0.783209 18.5498 0.0525127C8.74401 0.72109 0.72109 8.6883 0.0525127 18.5498C-0.783209 30.2499 8.46544 39.9443 19.9984 40C21.3913 40 22.5056 38.8857 22.5056 37.4928C22.5056 36.1 21.3913 34.9857 19.9984 34.9857Z" fill="#05D2DD"/>
</svg>
