<svg width="44" height="44" viewBox="0 0 44 44" fill="none" xmlns="http://www.w3.org/2000/svg">
<path d="M0 22C0 9.84974 9.84974 0 22 0C34.1503 0 44 9.84974 44 22C44 34.1503 34.1503 44 22 44C9.84974 44 0 34.1503 0 22Z" fill="white"/>
<path d="M21.4855 25.7306C21.8022 25.5406 22.1978 25.5406 22.5145 25.7306L25.75 27.6719L24.9004 23.9902C24.8174 23.6307 24.9391 23.2547 25.217 23.0121L28.0938 20.5L24.2912 20.1764C23.9201 20.1448 23.5973 19.9096 23.4535 19.5661L22 16.0938L20.5465 19.5661C20.4027 19.9096 20.0799 20.1448 19.7088 20.1764L15.9062 20.5L18.783 23.0121C19.0609 23.2547 19.1826 23.6307 19.0996 23.9902L18.25 27.6719L21.4855 25.7306ZM29.6314 19.0345C30.5116 19.1092 30.8696 20.205 30.2034 20.785L26.5469 23.9688L27.6476 28.686C27.8488 29.5483 26.9127 30.2274 26.1554 29.7684L22 27.25L17.8446 29.7684C17.0873 30.2274 16.1512 29.5483 16.3524 28.686L17.4531 23.9688L13.7966 20.785C13.1304 20.205 13.4884 19.1092 14.3686 19.0344L19.1875 18.625L21.0798 14.178C21.4251 13.3667 22.5749 13.3667 22.9202 14.178L24.8125 18.625L29.6314 19.0345Z" fill="#A082F9"/>
</svg>
