<svg width="80" height="44" viewBox="0 0 80 44" fill="none" xmlns="http://www.w3.org/2000/svg">
<path d="M0 0H58C70.1503 0 80 9.84974 80 22C80 34.1503 70.1503 44 58 44H0V0Z" fill="white"/>
<path d="M21.1111 21.026C21.7951 21.026 22.4071 21.2 22.9471 21.548C23.4991 21.884 23.9311 22.346 24.2431 22.934C24.5551 23.522 24.7111 24.182 24.7111 24.914C24.7111 25.766 24.5131 26.516 24.1171 27.164C23.7211 27.812 23.1751 28.31 22.4791 28.658C21.7831 29.006 20.9851 29.18 20.0851 29.18C19.6051 29.18 19.1371 29.114 18.6811 28.982C18.2371 28.85 17.8531 28.658 17.5291 28.406C17.2051 28.226 17.0431 27.98 17.0431 27.668C17.0431 27.44 17.1211 27.23 17.2771 27.038C17.4451 26.846 17.6431 26.75 17.8711 26.75C18.0871 26.75 18.3031 26.828 18.5191 26.984C19.0111 27.44 19.6291 27.668 20.3731 27.668C20.8411 27.668 21.2731 27.56 21.6691 27.344C22.0771 27.128 22.4011 26.822 22.6411 26.426C22.8811 26.018 23.0011 25.55 23.0011 25.022C23.0011 24.242 22.7611 23.642 22.2811 23.222C21.8011 22.802 21.2251 22.592 20.5531 22.592C20.3611 22.592 20.0851 22.634 19.7251 22.718C19.4611 22.79 19.2631 22.826 19.1311 22.826C18.9151 22.826 18.7411 22.754 18.6091 22.61C18.4771 22.454 18.4111 22.262 18.4111 22.034C18.4111 21.902 18.4351 21.788 18.4831 21.692C18.5311 21.596 18.6091 21.482 18.7171 21.35L21.7771 17.984H17.6191C17.3911 17.984 17.1991 17.906 17.0431 17.75C16.8871 17.594 16.8091 17.402 16.8091 17.174C16.8091 16.946 16.8871 16.76 17.0431 16.616C17.1991 16.472 17.3911 16.4 17.6191 16.4H23.3611C23.6371 16.4 23.8531 16.484 24.0091 16.652C24.1651 16.82 24.2431 17.024 24.2431 17.264C24.2431 17.48 24.1291 17.702 23.9011 17.93L21.1111 21.026ZM30.8399 20.918C31.4999 20.918 32.1239 21.11 32.7119 21.494C33.2999 21.866 33.7679 22.37 34.1159 23.006C34.4759 23.642 34.6559 24.326 34.6559 25.058C34.6559 25.802 34.4759 26.492 34.1159 27.128C33.7559 27.752 33.2639 28.25 32.6399 28.622C32.0159 28.994 31.3259 29.18 30.5699 29.18C29.7059 29.18 28.9559 28.958 28.3199 28.514C27.6959 28.07 27.2159 27.488 26.8799 26.768C26.5439 26.048 26.3759 25.274 26.3759 24.446C26.3759 23.522 26.5559 22.508 26.9159 21.404C27.2759 20.288 27.8639 19.256 28.6799 18.308C29.5079 17.348 30.5639 16.664 31.8479 16.256C31.9559 16.22 32.0639 16.202 32.1719 16.202C32.4239 16.202 32.6279 16.268 32.7839 16.4C32.9519 16.532 33.0359 16.742 33.0359 17.03C33.0359 17.234 32.9699 17.414 32.8379 17.57C32.7059 17.726 32.5259 17.834 32.2979 17.894C31.4579 18.194 30.6779 18.71 29.9579 19.442C29.2379 20.174 28.7219 20.996 28.4099 21.908C29.1179 21.248 29.9279 20.918 30.8399 20.918ZM30.5519 27.596C31.2359 27.596 31.8059 27.356 32.2619 26.876C32.7179 26.396 32.9459 25.79 32.9459 25.058C32.9459 24.35 32.7239 23.75 32.2799 23.258C31.8479 22.754 31.2839 22.502 30.5879 22.502C29.8679 22.502 29.2739 22.754 28.8059 23.258C28.3499 23.75 28.1219 24.362 28.1219 25.094C28.1219 25.79 28.3439 26.384 28.7879 26.876C29.2439 27.356 29.8319 27.596 30.5519 27.596ZM40.7753 29.18C39.7913 29.18 38.9513 28.904 38.2553 28.352C37.5593 27.8 37.0313 27.038 36.6713 26.066C36.3233 25.094 36.1493 23.972 36.1493 22.7C36.1493 21.428 36.3233 20.306 36.6713 19.334C37.0313 18.362 37.5593 17.6 38.2553 17.048C38.9513 16.496 39.7913 16.22 40.7753 16.22C41.7593 16.22 42.5993 16.496 43.2953 17.048C43.9913 17.6 44.5133 18.362 44.8613 19.334C45.2213 20.306 45.4013 21.428 45.4013 22.7C45.4013 23.972 45.2213 25.094 44.8613 26.066C44.5133 27.038 43.9913 27.8 43.2953 28.352C42.5993 28.904 41.7593 29.18 40.7753 29.18ZM40.7753 27.452C41.6513 27.452 42.3293 27.038 42.8093 26.21C43.3013 25.382 43.5473 24.212 43.5473 22.7C43.5473 21.188 43.3013 20.018 42.8093 19.19C42.3293 18.362 41.6513 17.948 40.7753 17.948C39.8993 17.948 39.2153 18.362 38.7233 19.19C38.2433 20.018 38.0033 21.188 38.0033 22.7C38.0033 24.212 38.2433 25.382 38.7233 26.21C39.2153 27.038 39.8993 27.452 40.7753 27.452ZM57.0733 27.038C57.2173 27.218 57.2893 27.41 57.2893 27.614C57.2893 27.758 57.2473 27.896 57.1633 28.028C57.0913 28.148 56.9893 28.244 56.8573 28.316C56.4373 28.58 55.9693 28.79 55.4533 28.946C54.9493 29.102 54.4393 29.18 53.9233 29.18C52.6033 29.18 51.4213 28.814 50.3773 28.082C49.3333 27.338 48.6013 26.306 48.1813 24.986H47.1733C46.9213 24.986 46.7113 24.908 46.5433 24.752C46.3753 24.596 46.2913 24.398 46.2913 24.158C46.2913 23.918 46.3753 23.72 46.5433 23.564C46.7113 23.408 46.9213 23.33 47.1733 23.33H47.8753C47.8633 23.198 47.8573 22.988 47.8573 22.7V22.376H47.1733C46.9213 22.376 46.7113 22.298 46.5433 22.142C46.3753 21.986 46.2913 21.788 46.2913 21.548C46.2913 21.308 46.3753 21.11 46.5433 20.954C46.7113 20.798 46.9213 20.72 47.1733 20.72H48.1273C48.3673 19.844 48.7633 19.07 49.3153 18.398C49.8793 17.726 50.5573 17.204 51.3493 16.832C52.1413 16.46 52.9993 16.274 53.9233 16.274C54.4393 16.274 54.9433 16.352 55.4353 16.508C55.9393 16.652 56.4073 16.862 56.8393 17.138C57.1273 17.294 57.2713 17.534 57.2713 17.858C57.2713 18.074 57.1993 18.272 57.0553 18.452C56.9113 18.644 56.7133 18.74 56.4613 18.74C56.2933 18.74 56.1313 18.698 55.9753 18.614C55.3393 18.194 54.6553 17.984 53.9233 17.984C52.9993 17.984 52.1773 18.23 51.4573 18.722C50.7493 19.214 50.2333 19.886 49.9093 20.738L52.8073 20.756C53.0593 20.756 53.2693 20.834 53.4373 20.99C53.6053 21.146 53.6893 21.338 53.6893 21.566C53.6893 21.806 53.6053 22.004 53.4373 22.16C53.2693 22.316 53.0593 22.394 52.8073 22.394L49.5673 22.376V22.7C49.5673 22.844 49.5793 23.06 49.6033 23.348L52.8073 23.366C53.0593 23.366 53.2693 23.444 53.4373 23.6C53.6053 23.756 53.6893 23.948 53.6893 24.176C53.6893 24.416 53.6053 24.614 53.4373 24.77C53.2693 24.926 53.0593 25.004 52.8073 25.004H50.0173C50.3653 25.796 50.8813 26.408 51.5653 26.84C52.2613 27.272 53.0473 27.488 53.9233 27.488C54.6793 27.488 55.3633 27.272 55.9753 26.84C56.1193 26.768 56.2753 26.732 56.4433 26.732C56.7073 26.732 56.9173 26.834 57.0733 27.038Z" fill="#3A3768"/>
</svg>
