<svg width="180" height="126" viewBox="0 0 180 126" fill="none" xmlns="http://www.w3.org/2000/svg">
<path opacity="0.1" d="M71.7849 16.0554C65.0773 9.66229 56.4616 5.64016 47.2535 4.60327C38.0454 3.56637 28.751 5.57168 20.7895 10.313C37.1341 16.1638 55.1685 16.3789 71.7849 16.0554Z" fill="#8F68FC"/>
<path opacity="0.1" d="M166.515 111.077L148.667 80.1619C148.617 80.075 148.545 80.0028 148.459 79.9525C148.372 79.9023 148.274 79.8759 148.174 79.8759C148.074 79.8759 147.975 79.9023 147.889 79.9525C147.802 80.0028 147.731 80.075 147.681 80.1619L129.832 111.077C129.78 111.163 129.752 111.262 129.751 111.363C129.75 111.464 129.776 111.564 129.826 111.651C129.876 111.739 129.949 111.812 130.036 111.862C130.124 111.912 130.223 111.938 130.324 111.937H135.649C135.8 111.938 135.944 111.998 136.051 112.105C136.158 112.211 136.218 112.356 136.218 112.507V119.105C136.218 119.255 136.278 119.4 136.385 119.507C136.491 119.613 136.635 119.674 136.786 119.674H143.733C143.884 119.674 144.029 119.614 144.136 119.507C144.243 119.401 144.303 119.256 144.303 119.105V115.916C144.303 115.765 144.363 115.621 144.469 115.514C144.576 115.408 144.72 115.348 144.871 115.348H151.475C151.626 115.348 151.771 115.408 151.877 115.514C151.984 115.621 152.044 115.765 152.045 115.916V119.105C152.045 119.256 152.105 119.401 152.212 119.507C152.319 119.614 152.463 119.674 152.615 119.674H159.56C159.711 119.674 159.856 119.614 159.963 119.507C160.069 119.401 160.129 119.256 160.129 119.105V112.5C160.129 112.349 160.189 112.204 160.296 112.097C160.403 111.99 160.548 111.93 160.699 111.93H166.023C166.123 111.93 166.221 111.904 166.307 111.854C166.394 111.804 166.465 111.732 166.515 111.645C166.565 111.559 166.591 111.461 166.591 111.361C166.591 111.261 166.565 111.163 166.515 111.077ZM141.625 114.498C141.573 114.552 141.51 114.595 141.441 114.624C141.372 114.654 141.298 114.669 141.223 114.67H138.722C138.571 114.67 138.426 114.61 138.319 114.503C138.213 114.396 138.153 114.251 138.153 114.1C138.153 113.949 138.213 113.804 138.319 113.698C138.426 113.591 138.571 113.531 138.722 113.531H141.228C141.34 113.531 141.45 113.564 141.544 113.627C141.638 113.689 141.711 113.778 141.754 113.882C141.797 113.986 141.808 114.101 141.786 114.211C141.764 114.322 141.71 114.423 141.63 114.503L141.625 114.498ZM158.021 114.498C157.969 114.552 157.906 114.595 157.837 114.624C157.768 114.654 157.694 114.669 157.619 114.67H155.12C154.969 114.67 154.824 114.61 154.717 114.503C154.61 114.396 154.55 114.251 154.55 114.1C154.55 113.949 154.61 113.804 154.717 113.698C154.824 113.591 154.969 113.531 155.12 113.531H157.629C157.742 113.531 157.852 113.564 157.945 113.627C158.039 113.689 158.112 113.778 158.155 113.882C158.198 113.986 158.209 114.101 158.188 114.211C158.166 114.322 158.111 114.423 158.032 114.503L158.021 114.498Z" fill="#8F68FC"/>
<path opacity="0.1" d="M56.1941 111.349L38.3455 80.4339C38.2955 80.3474 38.2236 80.2756 38.1371 80.2257C38.0505 80.1758 37.9524 80.1495 37.8525 80.1495C37.7526 80.1495 37.6545 80.1758 37.5679 80.2257C37.4814 80.2756 37.4095 80.3474 37.3595 80.4339L21.9425 107.136C23.8686 109.563 26.0295 111.795 28.3939 113.798H30.9063C31.0574 113.798 31.2023 113.858 31.3091 113.964C31.4159 114.071 31.4759 114.216 31.4759 114.367C31.4759 114.518 31.4159 114.663 31.3091 114.77C31.2023 114.877 31.0574 114.937 30.9063 114.937H29.8463C31.1446 115.913 32.5267 116.773 33.9763 117.506V116.19C33.9763 116.038 34.0363 115.894 34.1431 115.787C34.25 115.68 34.3948 115.62 34.5459 115.62H41.1505C41.3013 115.62 41.4457 115.681 41.5522 115.787C41.6586 115.894 41.7184 116.039 41.7184 116.19V119.377C41.7181 119.459 41.7363 119.541 41.7717 119.616C41.8173 119.714 41.8902 119.798 41.9816 119.856C42.0731 119.915 42.1794 119.946 42.288 119.946H49.235C49.3232 119.946 49.4102 119.926 49.4888 119.886C49.5675 119.846 49.6356 119.788 49.6876 119.717C49.7641 119.619 49.8047 119.498 49.8029 119.373V112.774C49.8029 112.623 49.8629 112.478 49.9697 112.371C50.0765 112.264 50.2214 112.204 50.3725 112.204H55.6968C55.7972 112.205 55.8961 112.179 55.9834 112.129C56.0707 112.08 56.1432 112.008 56.1937 111.921C56.2442 111.834 56.2708 111.735 56.2709 111.635C56.271 111.534 56.2445 111.436 56.1941 111.349ZM44.3977 113.964C44.4501 113.911 44.5127 113.868 44.5818 113.838C44.6509 113.809 44.7252 113.793 44.8004 113.792H47.3059C47.457 113.792 47.6019 113.852 47.7087 113.959C47.8155 114.066 47.8755 114.211 47.8755 114.362C47.8755 114.513 47.8155 114.658 47.7087 114.765C47.6019 114.872 47.457 114.932 47.3059 114.932H44.7987C44.6861 114.932 44.576 114.898 44.4823 114.836C44.3887 114.773 44.3157 114.684 44.2726 114.58C44.2295 114.476 44.2182 114.361 44.2402 114.251C44.2622 114.14 44.3164 114.039 44.396 113.959L44.3977 113.964ZM33.1865 102.524C33.0354 102.524 32.8905 102.464 32.7837 102.357C32.6769 102.251 32.6169 102.106 32.6169 101.955V97.6285C32.6169 97.4775 32.6769 97.3326 32.7837 97.2257C32.8905 97.1189 33.0354 97.0589 33.1865 97.0589H42.522C42.6728 97.0594 42.8172 97.1196 42.9237 97.2264C43.0301 97.3331 43.0899 97.4777 43.0899 97.6285V101.955C43.0899 102.105 43.0301 102.25 42.9237 102.357C42.8172 102.464 42.6728 102.524 42.522 102.524H33.1865Z" fill="#8F68FC"/>
<path opacity="0.1" d="M126.745 55.8137H104.658V51.0367C104.658 50.7336 104.538 50.443 104.323 50.2287C104.109 50.0144 103.819 49.894 103.515 49.894H97.0296V44.8055C97.0296 44.6147 96.9539 44.4318 96.819 44.2969C96.6841 44.162 96.5011 44.0862 96.3103 44.0862H87.9557C87.7649 44.0862 87.5819 44.162 87.447 44.2969C87.3121 44.4318 87.2363 44.6147 87.2363 44.8055V49.8923H79.6113C79.3083 49.8923 79.0176 50.0127 78.8033 50.227C78.589 50.4413 78.4687 50.7319 78.4687 51.0349V55.812H57.4073C57.346 55.8124 57.2873 55.8371 57.2441 55.8806C57.2009 55.9242 57.1767 55.983 57.1767 56.0443V119.462C57.1767 119.524 57.2009 119.583 57.2441 119.626C57.2873 119.67 57.346 119.694 57.4073 119.695H71.4046C71.4662 119.695 71.5253 119.67 71.5689 119.627C71.6124 119.583 71.6369 119.524 71.6369 119.462V110.931C71.6374 110.869 71.662 110.81 71.7055 110.767C71.7489 110.723 71.8078 110.699 71.8692 110.698H77.782C77.8435 110.699 77.9024 110.723 77.9458 110.767C77.9893 110.81 78.0139 110.869 78.0144 110.931V119.462C78.0144 119.524 78.0386 119.583 78.0818 119.626C78.125 119.67 78.1836 119.694 78.245 119.695H105.907C105.969 119.694 106.028 119.67 106.071 119.626C106.115 119.583 106.139 119.524 106.14 119.462V110.931C106.14 110.869 106.164 110.81 106.207 110.767C106.25 110.723 106.309 110.699 106.37 110.698H112.283C112.345 110.698 112.404 110.723 112.447 110.766C112.491 110.81 112.516 110.869 112.516 110.931V119.462C112.516 119.524 112.541 119.583 112.584 119.626C112.628 119.67 112.686 119.694 112.748 119.695H126.745C126.807 119.694 126.865 119.67 126.909 119.626C126.952 119.583 126.977 119.524 126.977 119.462V56.046C126.977 55.9846 126.952 55.9257 126.909 55.8822C126.865 55.8388 126.807 55.8142 126.745 55.8137ZM69.1314 107.735C69.1314 107.796 69.1071 107.855 69.0638 107.898C69.0206 107.941 68.9619 107.966 68.9008 107.966H60.2553C60.2249 107.966 60.1947 107.96 60.1665 107.948C60.1383 107.937 60.1127 107.92 60.0911 107.899C60.0695 107.877 60.0524 107.852 60.0407 107.824C60.029 107.795 60.023 107.765 60.023 107.735V104.787C60.023 104.726 60.0474 104.666 60.091 104.623C60.1346 104.579 60.1937 104.555 60.2553 104.555H68.9008C68.9621 104.555 69.0207 104.58 69.0639 104.623C69.1071 104.667 69.1314 104.726 69.1314 104.787V107.735ZM69.1314 100.105C69.1316 100.135 69.1258 100.165 69.1143 100.193C69.1028 100.222 69.0859 100.247 69.0644 100.269C69.043 100.29 69.0175 100.308 68.9894 100.319C68.9613 100.331 68.9312 100.337 68.9008 100.337H60.2553C60.2247 100.337 60.1944 100.331 60.1661 100.32C60.1378 100.308 60.1121 100.291 60.0905 100.269C60.0689 100.248 60.0518 100.222 60.0402 100.194C60.0286 100.166 60.0227 100.135 60.023 100.105V97.1535C60.0227 97.1229 60.0286 97.0926 60.0402 97.0643C60.0518 97.036 60.0689 97.0103 60.0905 96.9887C60.1121 96.9671 60.1378 96.95 60.1661 96.9384C60.1944 96.9268 60.2247 96.9209 60.2553 96.9212H68.9008C68.9312 96.9212 68.9613 96.9272 68.9894 96.9389C69.0175 96.9506 69.043 96.9677 69.0644 96.9893C69.0859 97.0109 69.1028 97.0365 69.1143 97.0647C69.1258 97.0929 69.1316 97.123 69.1314 97.1535V100.105ZM69.1314 92.4762C69.1314 92.5375 69.1071 92.5964 69.0639 92.6399C69.0207 92.6834 68.9621 92.7081 68.9008 92.7085H60.2553C60.2248 92.7085 60.1946 92.7025 60.1664 92.6909C60.1382 92.6792 60.1126 92.6621 60.091 92.6405C60.0694 92.6189 60.0523 92.5933 60.0407 92.5651C60.029 92.5369 60.023 92.5067 60.023 92.4762V89.5233C60.023 89.4616 60.0474 89.4026 60.091 89.359C60.1346 89.3154 60.1937 89.291 60.2553 89.291H68.9008C68.9621 89.2914 69.0207 89.3161 69.0639 89.3596C69.1071 89.4031 69.1314 89.4619 69.1314 89.5233V92.4762ZM69.1314 84.846C69.1316 84.8764 69.1258 84.9066 69.1143 84.9348C69.1028 84.963 69.0859 84.9886 69.0644 85.0102C69.043 85.0318 69.0175 85.0489 68.9894 85.0606C68.9613 85.0723 68.9312 85.0783 68.9008 85.0783H60.2553C60.2247 85.0786 60.1944 85.0727 60.1661 85.0611C60.1378 85.0495 60.1121 85.0324 60.0905 85.0108C60.0689 84.9892 60.0518 84.9635 60.0402 84.9352C60.0286 84.9069 60.0227 84.8766 60.023 84.846V81.8999C60.0227 81.8694 60.0286 81.8391 60.0402 81.8108C60.0518 81.7825 60.0689 81.7568 60.0905 81.7352C60.1121 81.7135 60.1378 81.6964 60.1661 81.6848C60.1944 81.6733 60.2247 81.6674 60.2553 81.6676H68.9008C68.9312 81.6676 68.9613 81.6736 68.9894 81.6853C69.0175 81.697 69.043 81.7142 69.0644 81.7358C69.0859 81.7574 69.1028 81.783 69.1143 81.8112C69.1258 81.8393 69.1316 81.8695 69.1314 81.8999V84.846ZM69.1314 77.2175C69.1314 77.2788 69.1071 77.3377 69.0639 77.3812C69.0207 77.4247 68.9621 77.4494 68.9008 77.4498H60.2553C60.1937 77.4498 60.1346 77.4254 60.091 77.3818C60.0474 77.3382 60.023 77.2791 60.023 77.2175V74.2646C60.023 74.2341 60.029 74.204 60.0407 74.1759C60.0524 74.1478 60.0695 74.1223 60.0911 74.1009C60.1127 74.0795 60.1383 74.0625 60.1665 74.051C60.1947 74.0395 60.2249 74.0337 60.2553 74.034H68.9008C68.9619 74.034 69.0206 74.0583 69.0638 74.1015C69.1071 74.1448 69.1314 74.2034 69.1314 74.2646V77.2175ZM69.1314 69.589C69.1314 69.6502 69.1071 69.7089 69.0638 69.7521C69.0206 69.7953 68.9619 69.8196 68.9008 69.8196H60.2553C60.2249 69.8199 60.1947 69.8141 60.1665 69.8026C60.1383 69.7911 60.1127 69.7741 60.0911 69.7527C60.0695 69.7313 60.0524 69.7058 60.0407 69.6777C60.029 69.6496 60.023 69.6195 60.023 69.589V66.6361C60.023 66.5745 60.0474 66.5154 60.091 66.4718C60.1346 66.4282 60.1937 66.4038 60.2553 66.4038H68.9008C68.9621 66.4042 69.0207 66.4289 69.0639 66.4724C69.1071 66.5159 69.1314 66.5748 69.1314 66.6361V69.589ZM69.1314 61.9588C69.1316 61.9893 69.1258 62.0194 69.1143 62.0476C69.1028 62.0758 69.0859 62.1014 69.0644 62.123C69.043 62.1446 69.0175 62.1617 68.9894 62.1734C68.9613 62.1851 68.9312 62.1911 68.9008 62.1911H60.2553C60.2247 62.1914 60.1944 62.1855 60.1661 62.1739C60.1378 62.1623 60.1121 62.1452 60.0905 62.1236C60.0689 62.102 60.0518 62.0763 60.0402 62.048C60.0286 62.0197 60.0227 61.9894 60.023 61.9588V59.0128C60.0227 58.9822 60.0286 58.9519 60.0402 58.9236C60.0518 58.8953 60.0689 58.8696 60.0905 58.848C60.1121 58.8264 60.1378 58.8093 60.1661 58.7977C60.1944 58.7861 60.2247 58.7802 60.2553 58.7804H68.9008C68.9312 58.7804 68.9613 58.7865 68.9894 58.7982C69.0175 58.8099 69.043 58.827 69.0644 58.8486C69.0859 58.8702 69.1028 58.8958 69.1143 58.924C69.1258 58.9522 69.1316 58.9823 69.1314 59.0128V61.9588ZM89.6283 107.733C89.6283 107.764 89.6223 107.794 89.6106 107.822C89.5989 107.85 89.5818 107.875 89.5602 107.897C89.5386 107.918 89.5129 107.935 89.4848 107.947C89.4566 107.958 89.4264 107.964 89.396 107.964H80.7505C80.6892 107.964 80.6304 107.94 80.5868 107.896C80.5433 107.853 80.5186 107.795 80.5182 107.733V104.787C80.5186 104.726 80.5432 104.667 80.5867 104.623C80.6302 104.58 80.689 104.555 80.7505 104.555H89.396C89.4576 104.555 89.5167 104.579 89.5603 104.623C89.6038 104.666 89.6283 104.726 89.6283 104.787V107.733ZM89.6283 100.103C89.6285 100.134 89.6227 100.164 89.6111 100.192C89.5995 100.22 89.5824 100.246 89.5608 100.268C89.5392 100.289 89.5135 100.306 89.4852 100.318C89.4569 100.33 89.4266 100.336 89.396 100.335H80.7505C80.72 100.335 80.6898 100.329 80.6616 100.318C80.6334 100.306 80.6078 100.289 80.5862 100.267C80.5647 100.246 80.5475 100.22 80.5359 100.192C80.5242 100.164 80.5182 100.134 80.5182 100.103V97.1535C80.5182 97.123 80.5242 97.0928 80.5359 97.0646C80.5475 97.0364 80.5647 97.0108 80.5862 96.9892C80.6078 96.9676 80.6334 96.9505 80.6616 96.9388C80.6898 96.9272 80.72 96.9212 80.7505 96.9212H89.396C89.4266 96.9209 89.4569 96.9268 89.4852 96.9384C89.5135 96.95 89.5392 96.9671 89.5608 96.9887C89.5824 97.0103 89.5995 97.036 89.6111 97.0643C89.6227 97.0926 89.6285 97.1229 89.6283 97.1535V100.103ZM89.6283 92.4745C89.6283 92.5361 89.6038 92.5952 89.5603 92.6388C89.5167 92.6823 89.4576 92.7068 89.396 92.7068H80.7505C80.689 92.7064 80.6302 92.6817 80.5867 92.6383C80.5432 92.5948 80.5186 92.536 80.5182 92.4745V89.5233C80.5186 89.4618 80.5432 89.403 80.5867 89.3595C80.6302 89.316 80.689 89.2914 80.7505 89.291H89.396C89.4576 89.291 89.5167 89.3154 89.5603 89.359C89.6038 89.4026 89.6283 89.4616 89.6283 89.5233V92.4745ZM89.6283 84.8443C89.6285 84.8749 89.6227 84.9052 89.6111 84.9335C89.5995 84.9618 89.5824 84.9875 89.5608 85.0091C89.5392 85.0307 89.5135 85.0478 89.4852 85.0594C89.4569 85.071 89.4266 85.0768 89.396 85.0766H80.7505C80.72 85.0766 80.6898 85.0706 80.6616 85.0589C80.6334 85.0473 80.6078 85.0301 80.5862 85.0086C80.5647 84.987 80.5475 84.9614 80.5359 84.9332C80.5242 84.905 80.5182 84.8748 80.5182 84.8443V81.8999C80.5182 81.8694 80.5242 81.8392 80.5359 81.811C80.5475 81.7829 80.5647 81.7572 80.5862 81.7357C80.6078 81.7141 80.6334 81.697 80.6616 81.6853C80.6898 81.6736 80.72 81.6676 80.7505 81.6676H89.396C89.4266 81.6674 89.4569 81.6733 89.4852 81.6848C89.5135 81.6964 89.5392 81.7135 89.5608 81.7352C89.5824 81.7568 89.5995 81.7825 89.6111 81.8108C89.6227 81.8391 89.6285 81.8694 89.6283 81.8999V84.8443ZM89.6283 77.2158C89.6283 77.2774 89.6038 77.3365 89.5603 77.3801C89.5167 77.4237 89.4576 77.4481 89.396 77.4481H80.7505C80.689 77.4477 80.6302 77.423 80.5867 77.3796C80.5432 77.3361 80.5186 77.2773 80.5182 77.2158V74.2646C80.5186 74.2033 80.5433 74.1446 80.5868 74.1014C80.6304 74.0582 80.6892 74.034 80.7505 74.034H89.396C89.4264 74.0337 89.4566 74.0395 89.4848 74.051C89.5129 74.0625 89.5386 74.0795 89.5602 74.1009C89.5818 74.1223 89.5989 74.1478 89.6106 74.1759C89.6223 74.204 89.6283 74.2341 89.6283 74.2646V77.2158ZM89.6283 69.5873C89.6283 69.6178 89.6223 69.6479 89.6106 69.676C89.5989 69.7041 89.5818 69.7295 89.5602 69.751C89.5386 69.7724 89.5129 69.7894 89.4848 69.8009C89.4566 69.8123 89.4264 69.8181 89.396 69.8179H80.7505C80.6892 69.8179 80.6304 69.7937 80.5868 69.7505C80.5433 69.7073 80.5186 69.6486 80.5182 69.5873V66.6361C80.5186 66.5746 80.5432 66.5158 80.5867 66.4723C80.6302 66.4288 80.689 66.4042 80.7505 66.4038H89.396C89.4576 66.4038 89.5167 66.4282 89.5603 66.4718C89.6038 66.5154 89.6283 66.5745 89.6283 66.6361V69.5873ZM89.6283 61.9571C89.6285 61.9877 89.6227 62.018 89.6111 62.0463C89.5995 62.0746 89.5824 62.1003 89.5608 62.1219C89.5392 62.1435 89.5135 62.1606 89.4852 62.1722C89.4569 62.1838 89.4266 62.1897 89.396 62.1894H80.7505C80.72 62.1894 80.6898 62.1834 80.6616 62.1717C80.6334 62.1601 80.6078 62.143 80.5862 62.1214C80.5647 62.0998 80.5475 62.0742 80.5359 62.046C80.5242 62.0178 80.5182 61.9876 80.5182 61.9571V59.0128C80.5182 58.9822 80.5242 58.952 80.5359 58.9239C80.5475 58.8957 80.5647 58.8701 80.5862 58.8485C80.6078 58.8269 80.6334 58.8098 80.6616 58.7981C80.6898 58.7865 80.72 58.7804 80.7505 58.7804H89.396C89.4266 58.7802 89.4569 58.7861 89.4852 58.7977C89.5135 58.8093 89.5392 58.8264 89.5608 58.848C89.5824 58.8696 89.5995 58.8953 89.6111 58.9236C89.6227 58.9519 89.6285 58.9822 89.6283 59.0128V61.9571ZM103.634 107.731C103.634 107.762 103.628 107.792 103.617 107.82C103.605 107.848 103.588 107.874 103.566 107.895C103.544 107.917 103.519 107.934 103.491 107.945C103.463 107.957 103.432 107.962 103.402 107.962H94.7564C94.6951 107.962 94.6363 107.938 94.5928 107.895C94.5492 107.851 94.5246 107.793 94.5241 107.731V104.787C94.5246 104.726 94.5492 104.667 94.5926 104.623C94.6361 104.58 94.6949 104.555 94.7564 104.555H103.402C103.464 104.555 103.523 104.579 103.566 104.623C103.61 104.666 103.634 104.726 103.634 104.787V107.731ZM103.634 100.101C103.634 100.132 103.629 100.162 103.617 100.19C103.605 100.219 103.588 100.244 103.567 100.266C103.545 100.288 103.519 100.305 103.491 100.316C103.463 100.328 103.432 100.334 103.402 100.334H94.7564C94.7259 100.334 94.6957 100.328 94.6675 100.316C94.6393 100.304 94.6137 100.287 94.5922 100.266C94.5706 100.244 94.5535 100.218 94.5418 100.19C94.5301 100.162 94.5241 100.132 94.5241 100.101V97.1535C94.5241 97.123 94.5301 97.0928 94.5418 97.0646C94.5535 97.0364 94.5706 97.0108 94.5922 96.9892C94.6137 96.9676 94.6393 96.9505 94.6675 96.9388C94.6957 96.9272 94.7259 96.9212 94.7564 96.9212H103.402C103.432 96.9209 103.463 96.9268 103.491 96.9384C103.519 96.95 103.545 96.9671 103.567 96.9887C103.588 97.0103 103.605 97.036 103.617 97.0643C103.629 97.0926 103.634 97.1229 103.634 97.1535V100.101ZM103.634 92.4728C103.634 92.5344 103.61 92.5935 103.566 92.6371C103.523 92.6806 103.464 92.7051 103.402 92.7051H94.7564C94.6949 92.7046 94.6361 92.68 94.5926 92.6366C94.5492 92.5931 94.5246 92.5343 94.5241 92.4728V89.5233C94.5246 89.4618 94.5492 89.403 94.5926 89.3595C94.6361 89.316 94.6949 89.2914 94.7564 89.291H103.402C103.464 89.291 103.523 89.3154 103.566 89.359C103.61 89.4026 103.634 89.4616 103.634 89.5233V92.4728ZM103.634 84.8426C103.634 84.8731 103.629 84.9035 103.617 84.9317C103.605 84.96 103.588 84.9857 103.567 85.0074C103.545 85.029 103.519 85.0461 103.491 85.0577C103.463 85.0693 103.432 85.0751 103.402 85.0749H94.7564C94.7259 85.0749 94.6957 85.0689 94.6675 85.0572C94.6393 85.0455 94.6137 85.0284 94.5922 85.0068C94.5706 84.9853 94.5535 84.9597 94.5418 84.9315C94.5301 84.9033 94.5241 84.8731 94.5241 84.8426V81.8999C94.5241 81.8694 94.5301 81.8392 94.5418 81.811C94.5535 81.7829 94.5706 81.7572 94.5922 81.7357C94.6137 81.7141 94.6393 81.697 94.6675 81.6853C94.6957 81.6736 94.7259 81.6676 94.7564 81.6676H103.402C103.432 81.6674 103.463 81.6733 103.491 81.6848C103.519 81.6964 103.545 81.7135 103.567 81.7352C103.588 81.7568 103.605 81.7825 103.617 81.8108C103.629 81.8391 103.634 81.8694 103.634 81.8999V84.8426ZM103.634 77.2141C103.634 77.2757 103.61 77.3348 103.566 77.3784C103.523 77.4219 103.464 77.4464 103.402 77.4464H94.7564C94.6949 77.4459 94.6361 77.4213 94.5926 77.3779C94.5492 77.3344 94.5246 77.2756 94.5241 77.2141V74.2646C94.5246 74.2033 94.5492 74.1446 94.5928 74.1014C94.6363 74.0582 94.6951 74.034 94.7564 74.034H103.402C103.432 74.0337 103.463 74.0395 103.491 74.051C103.519 74.0625 103.544 74.0795 103.566 74.1009C103.588 74.1223 103.605 74.1478 103.617 74.1759C103.628 74.204 103.634 74.2341 103.634 74.2646V77.2141ZM103.634 69.5856C103.634 69.616 103.628 69.6462 103.617 69.6742C103.605 69.7023 103.588 69.7278 103.566 69.7493C103.544 69.7707 103.519 69.7876 103.491 69.7991C103.463 69.8106 103.432 69.8164 103.402 69.8162H94.7564C94.6951 69.8162 94.6363 69.792 94.5928 69.7488C94.5492 69.7056 94.5246 69.6469 94.5241 69.5856V66.6361C94.5246 66.5746 94.5492 66.5158 94.5926 66.4723C94.6361 66.4288 94.6949 66.4042 94.7564 66.4038H103.402C103.464 66.4038 103.523 66.4282 103.566 66.4718C103.61 66.5154 103.634 66.5745 103.634 66.6361V69.5856ZM103.634 61.9554C103.634 61.986 103.629 62.0163 103.617 62.0446C103.605 62.0729 103.588 62.0986 103.567 62.1202C103.545 62.1418 103.519 62.1589 103.491 62.1705C103.463 62.1821 103.432 62.1879 103.402 62.1877H94.7564C94.7259 62.1877 94.6957 62.1817 94.6675 62.17C94.6393 62.1583 94.6137 62.1412 94.5922 62.1197C94.5706 62.0981 94.5535 62.0725 94.5418 62.0443C94.5301 62.0161 94.5241 61.9859 94.5241 61.9554V59.0128C94.5241 58.9822 94.5301 58.952 94.5418 58.9239C94.5535 58.8957 94.5706 58.8701 94.5922 58.8485C94.6137 58.8269 94.6393 58.8098 94.6675 58.7981C94.6957 58.7865 94.7259 58.7804 94.7564 58.7804H103.402C103.432 58.7802 103.463 58.7861 103.491 58.7977C103.519 58.8093 103.545 58.8264 103.567 58.848C103.588 58.8696 103.605 58.8953 103.617 58.9236C103.629 58.9519 103.634 58.9822 103.634 59.0128V61.9554ZM124.131 107.73C124.131 107.791 124.106 107.85 124.063 107.893C124.019 107.936 123.96 107.96 123.899 107.96H115.253C115.223 107.961 115.193 107.955 115.165 107.943C115.136 107.932 115.111 107.915 115.089 107.893C115.068 107.872 115.05 107.846 115.039 107.818C115.027 107.79 115.021 107.76 115.021 107.73V104.787C115.021 104.726 115.046 104.666 115.089 104.623C115.133 104.579 115.192 104.555 115.253 104.555H123.901C123.962 104.555 124.021 104.58 124.064 104.623C124.108 104.667 124.132 104.726 124.133 104.787L124.131 107.73ZM124.131 100.1C124.131 100.161 124.107 100.22 124.063 100.264C124.02 100.307 123.96 100.332 123.899 100.332H115.253C115.223 100.332 115.192 100.326 115.164 100.315C115.136 100.303 115.11 100.286 115.089 100.264C115.067 100.243 115.05 100.217 115.038 100.189C115.027 100.16 115.021 100.13 115.021 100.1V97.1535C115.021 97.1229 115.027 97.0926 115.038 97.0643C115.05 97.036 115.067 97.0103 115.089 96.9887C115.11 96.9671 115.136 96.95 115.164 96.9384C115.192 96.9268 115.223 96.9209 115.253 96.9212H123.901C123.962 96.9212 124.021 96.9456 124.065 96.9892C124.108 97.0328 124.133 97.0919 124.133 97.1535L124.131 100.1ZM124.131 92.4711C124.131 92.5325 124.106 92.5914 124.063 92.6348C124.019 92.6783 123.96 92.7029 123.899 92.7034H115.253C115.192 92.7034 115.133 92.6789 115.089 92.6353C115.046 92.5918 115.021 92.5327 115.021 92.4711V89.5233C115.021 89.4616 115.046 89.4026 115.089 89.359C115.133 89.3154 115.192 89.291 115.253 89.291H123.901C123.962 89.2914 124.021 89.316 124.064 89.3595C124.108 89.403 124.132 89.4618 124.133 89.5233L124.131 92.4711ZM124.131 84.8409C124.131 84.9025 124.107 84.9616 124.063 85.0051C124.02 85.0487 123.96 85.0732 123.899 85.0732H115.253C115.223 85.0734 115.192 85.0675 115.164 85.056C115.136 85.0444 115.11 85.0273 115.089 85.0056C115.067 84.984 115.05 84.9583 115.038 84.93C115.027 84.9017 115.021 84.8714 115.021 84.8409V81.8999C115.021 81.8694 115.027 81.8391 115.038 81.8108C115.05 81.7825 115.067 81.7568 115.089 81.7352C115.11 81.7135 115.136 81.6964 115.164 81.6848C115.192 81.6733 115.223 81.6674 115.253 81.6676H123.901C123.962 81.6676 124.021 81.6921 124.065 81.7357C124.108 81.7792 124.133 81.8383 124.133 81.8999L124.131 84.8409ZM124.131 77.2124C124.131 77.2738 124.106 77.3327 124.063 77.3761C124.019 77.4196 123.96 77.4442 123.899 77.4447H115.253C115.192 77.4447 115.133 77.4202 115.089 77.3766C115.046 77.3331 115.021 77.274 115.021 77.2124V74.2646C115.021 74.2341 115.027 74.204 115.039 74.1759C115.05 74.1478 115.068 74.1223 115.089 74.1009C115.111 74.0795 115.136 74.0625 115.165 74.051C115.193 74.0395 115.223 74.0337 115.253 74.034H123.901C123.962 74.034 124.021 74.0582 124.064 74.1014C124.108 74.1446 124.132 74.2033 124.133 74.2646L124.131 77.2124ZM124.131 69.5839C124.132 69.6145 124.126 69.645 124.115 69.6734C124.103 69.7019 124.086 69.7279 124.065 69.7498C124.044 69.7717 124.018 69.7891 123.99 69.8011C123.962 69.8131 123.931 69.8194 123.901 69.8196H115.253C115.223 69.8199 115.193 69.8141 115.165 69.8026C115.136 69.7911 115.111 69.7741 115.089 69.7527C115.068 69.7313 115.05 69.7058 115.039 69.6777C115.027 69.6496 115.021 69.6195 115.021 69.589V66.6361C115.021 66.5745 115.046 66.5154 115.089 66.4718C115.133 66.4282 115.192 66.4038 115.253 66.4038H123.901C123.962 66.4042 124.021 66.4288 124.064 66.4723C124.108 66.5158 124.132 66.5746 124.133 66.6361L124.131 69.5839ZM124.131 61.9537C124.131 62.0153 124.107 62.0744 124.063 62.1179C124.02 62.1615 123.96 62.186 123.899 62.186H115.253C115.223 62.1862 115.192 62.1804 115.164 62.1688C115.136 62.1572 115.11 62.1401 115.089 62.1185C115.067 62.0968 115.05 62.0711 115.038 62.0428C115.027 62.0146 115.021 61.9842 115.021 61.9537V59.0128C115.021 58.9822 115.027 58.9519 115.038 58.9236C115.05 58.8953 115.067 58.8696 115.089 58.848C115.11 58.8264 115.136 58.8093 115.164 58.7977C115.192 58.7861 115.223 58.7802 115.253 58.7804H123.901C123.962 58.7804 124.021 58.8049 124.065 58.8485C124.108 58.8921 124.133 58.9511 124.133 59.0128L124.131 61.9537Z" fill="#8F68FC"/>
<path opacity="0.1" d="M63.8432 38.6259C62.8715 38.4409 61.8667 38.55 60.9574 38.9391C60.4093 39.1834 59.8158 39.3089 59.2158 39.3074C58.6158 39.3059 58.0229 39.1775 57.4761 38.9305C56.8316 38.6479 56.1333 38.5088 55.4297 38.5228C54.7261 38.5367 54.034 38.7034 53.4012 39.0114C53.0392 39.202 52.6366 39.3024 52.2275 39.3039C50.5755 39.3039 49.2006 37.6399 48.9149 35.4441C49.245 35.2035 49.5255 34.9014 49.7409 34.5544C50.7098 32.9936 52.2103 31.9904 53.895 31.9904C55.5797 31.9904 57.0614 32.9816 58.025 34.5252C58.314 34.9915 58.7185 35.3754 59.1994 35.6395C59.6803 35.9036 60.2212 36.039 60.7698 36.0326H60.8128C62.1413 36.0326 63.2805 37.0875 63.8432 38.6259Z" fill="#8F68FC"/>
<path opacity="0.1" d="M68.8681 31.7341L66.1973 33.4274L67.8184 30.4796C67.359 30.1129 66.7903 29.91 66.2025 29.9031H66.1595C65.9739 29.9058 65.7885 29.892 65.6054 29.8618L64.7036 30.4366L65.0926 29.731C64.4509 29.5068 63.8966 29.0851 63.5094 28.5264L61.8884 29.5589L62.9088 27.6935C61.9606 26.5561 60.6838 25.8591 59.2796 25.8591C57.5949 25.8591 56.0943 26.8607 55.1254 28.4215C54.8385 28.8898 54.4325 29.2737 53.9488 29.534C53.4651 29.7943 52.9211 29.9216 52.3721 29.9031H52.2809C50.4207 29.9031 48.9132 32.0111 48.9132 34.613C48.9132 37.215 50.4207 39.323 52.2809 39.323C52.6902 39.3219 53.0931 39.2209 53.4545 39.0287C54.0874 38.7211 54.7797 38.5546 55.4833 38.541C56.1869 38.5273 56.8851 38.6667 57.5295 38.9496C58.0748 39.1929 58.6652 39.3187 59.2623 39.3187C59.8595 39.3187 60.4499 39.1929 60.9952 38.9496C61.6348 38.6715 62.3267 38.5345 63.0239 38.5478C63.7212 38.5612 64.4074 38.7246 65.0358 39.027C65.3938 39.2144 65.7916 39.3129 66.1956 39.3144C68.0558 39.3144 69.5633 37.2046 69.5633 34.6044C69.5751 33.6046 69.3361 32.6177 68.8681 31.7341Z" fill="#8F68FC"/>
<path opacity="0.1" d="M143.174 70.0262C142.494 69.8974 141.791 69.9734 141.154 70.2448C140.772 70.4155 140.359 70.5037 139.941 70.5037C139.522 70.5037 139.109 70.4155 138.727 70.2448C138.276 70.0469 137.787 69.9496 137.295 69.9594C136.802 69.9692 136.317 70.0859 135.874 70.3016C135.621 70.4352 135.339 70.5055 135.053 70.5063C133.897 70.5063 132.935 69.3413 132.735 67.8046C132.966 67.6356 133.162 67.4242 133.314 67.1817C133.992 66.0889 135.034 65.3868 136.22 65.3868C137.406 65.3868 138.438 66.0752 139.116 67.161C139.318 67.4875 139.601 67.7562 139.938 67.941C140.274 68.1258 140.653 68.2205 141.037 68.2159H141.068C141.98 68.2125 142.776 68.9507 143.174 70.0262Z" fill="#8F68FC"/>
<path opacity="0.1" d="M146.688 65.2078L144.819 66.3935L145.953 64.3285C145.632 64.0722 145.234 63.9305 144.823 63.9258H144.793C144.664 63.9274 144.534 63.9176 144.406 63.8965L143.771 64.2975L144.043 63.8053C143.595 63.6478 143.207 63.3534 142.935 62.9638L141.797 63.6797L142.513 62.377C141.851 61.5803 140.964 61.0916 139.973 61.0916C138.794 61.0916 137.736 61.7937 137.065 62.8864C136.864 63.2128 136.581 63.4802 136.243 63.6616C135.905 63.8429 135.526 63.9317 135.143 63.9189H135.086C133.785 63.9189 132.728 65.3937 132.728 67.2143C132.728 69.035 133.785 70.5114 135.086 70.5114C135.372 70.5106 135.654 70.4403 135.907 70.3067C136.35 70.0909 136.835 69.9741 137.327 69.9646C137.82 69.9551 138.309 70.053 138.76 70.2516C139.142 70.4212 139.555 70.5089 139.973 70.5089C140.391 70.5089 140.804 70.4212 141.186 70.2516C141.634 70.0573 142.118 69.9616 142.606 69.9711C143.094 69.9806 143.574 70.095 144.014 70.3067C144.265 70.4367 144.543 70.5052 144.826 70.5063C146.129 70.5063 147.184 69.0315 147.184 67.2091C147.188 66.5112 147.017 65.8232 146.688 65.2078Z" fill="#8F68FC"/>
<path opacity="0.1" d="M41.0627 59.0127C41.7429 58.884 42.446 58.96 43.083 59.2313C43.4643 59.402 43.8775 59.4903 44.2953 59.4903C44.7132 59.4903 45.1263 59.402 45.5076 59.2313C45.9589 59.0334 46.4478 58.9361 46.9405 58.9459C47.4331 58.9557 47.9177 59.0724 48.3608 59.2881C48.6139 59.4215 48.8955 59.4918 49.1816 59.4928C50.338 59.4928 51.3017 58.3278 51.5013 56.7911C51.2704 56.6226 51.0741 56.411 50.9231 56.1682C50.2486 55.072 49.1937 54.3665 48.0115 54.3665C46.8293 54.3665 45.795 55.0548 45.117 56.1406C44.9144 56.4676 44.6308 56.7367 44.2938 56.9221C43.9568 57.1075 43.5777 57.2028 43.1931 57.199H43.1639C42.2484 57.199 41.4499 57.9372 41.0627 59.0127Z" fill="#8F68FC"/>
<path opacity="0.1" d="M37.5385 54.1944L39.4073 55.3749L38.2715 53.3099C38.5932 53.0538 38.991 52.9122 39.4021 52.9072H39.4331C39.5628 52.9087 39.6923 52.8989 39.8203 52.8779L40.4536 53.2789L40.1817 52.7867C40.6306 52.6293 41.0188 52.335 41.2916 51.9452L42.4256 52.6646L41.7081 51.3619C42.3723 50.5651 43.2654 50.0764 44.2497 50.0764C45.4285 50.0764 46.4868 50.7785 47.158 51.8713C47.3586 52.1978 47.6422 52.4653 47.9798 52.6467C48.3175 52.828 48.6971 52.9167 49.0801 52.9038H49.1421C50.4448 52.9038 51.4996 54.3785 51.4996 56.1992C51.4996 58.0198 50.4448 59.4963 49.1421 59.4963C48.856 59.495 48.5744 59.4248 48.3212 59.2915C47.8782 59.0757 47.3935 58.959 46.9007 58.9495C46.408 58.94 45.9191 59.0379 45.4681 59.2364C45.0864 59.406 44.6734 59.4937 44.2558 59.4937C43.8381 59.4937 43.4251 59.406 43.0434 59.2364C42.5955 59.0421 42.1111 58.9464 41.6229 58.9559C41.1347 58.9654 40.6544 59.0799 40.2144 59.2915C39.9634 59.4218 39.6849 59.4902 39.4021 59.4911C38.1012 59.4911 37.0446 58.0164 37.0446 56.194C37.0403 55.4968 37.21 54.8095 37.5385 54.1944Z" fill="#8F68FC"/>
<path d="M37.6313 120.469C39.9614 121.949 43.3187 120.452 45.6642 121.91C46.27 122.285 46.7587 122.837 47.3851 123.178C48.1371 123.589 49.0216 123.663 49.8769 123.694C57.039 123.971 64.3216 121.973 71.3048 123.587C73.2579 124.038 75.1681 124.771 77.1694 124.878C80.6266 125.066 83.9392 123.379 87.3998 123.286C92.6484 123.145 97.8057 126.657 102.87 125.272C104.536 124.816 106.064 123.844 107.783 123.68C109.698 123.508 111.54 124.343 113.402 124.83C120.005 126.551 126.881 123.763 133.708 123.555C138.159 123.419 142.568 124.389 147.017 124.613C150.18 124.771 153.349 124.549 156.509 124.329C157.713 124.245 158.975 124.141 159.983 123.481C160.992 122.82 161.611 121.4 160.988 120.368L37.6313 120.469Z" fill="#3F3D56"/>
<path opacity="0.1" d="M37.6313 120.469C39.9614 121.949 43.3187 120.452 45.6642 121.91C46.27 122.285 46.7587 122.837 47.3851 123.178C48.1371 123.589 49.0216 123.663 49.8769 123.694C57.039 123.971 64.3216 121.973 71.3048 123.587C73.2579 124.038 75.1681 124.771 77.1694 124.878C80.6266 125.066 83.9392 123.379 87.3998 123.286C92.6484 123.145 97.8057 126.657 102.87 125.272C104.536 124.816 106.064 123.844 107.783 123.68C109.698 123.508 111.54 124.343 113.402 124.83C120.005 126.551 126.881 123.763 133.708 123.555C138.159 123.419 142.568 124.389 147.017 124.613C150.18 124.771 153.349 124.549 156.509 124.329C157.713 124.245 158.975 124.141 159.983 123.481C160.992 122.82 161.611 121.4 160.988 120.368L37.6313 120.469Z" fill="black"/>
<path d="M37.6313 119.609C39.9614 121.089 43.3187 119.592 45.6642 121.049C46.27 121.424 46.7587 121.977 47.3851 122.317C48.1371 122.729 49.0216 122.803 49.8769 122.834C57.039 123.111 64.3216 121.113 71.3048 122.727C73.2579 123.178 75.1681 123.911 77.1694 124.018C80.6266 124.205 83.9392 122.519 87.3998 122.426C92.6484 122.285 97.8057 125.797 102.87 124.412C104.536 123.956 106.064 122.983 107.783 122.82C109.698 122.648 111.54 123.482 113.402 123.969C120.005 125.69 126.881 122.902 133.708 122.694C138.159 122.558 142.568 123.529 147.017 123.753C150.18 123.911 153.349 123.689 156.509 123.469C157.713 123.384 158.975 123.281 159.983 122.62C160.992 121.959 161.611 120.54 160.988 119.507L37.6313 119.609Z" fill="#3F3D56"/>
<g opacity="0.1">
<path opacity="0.1" d="M21.0545 98.4078C21.0616 99.1547 20.8698 99.89 20.4987 100.538C20.8632 101.189 21.0545 101.923 21.0545 102.669C21.0545 103.415 20.8632 104.148 20.4987 104.799C20.6872 105.121 20.8286 105.469 20.9186 105.832C19.0401 103.356 17.311 100.77 15.7406 98.0877C15.7784 97.448 15.9646 96.8259 16.2844 96.2705C15.9133 95.6223 15.7214 94.887 15.7285 94.1401C15.7263 93.6354 15.8113 93.1342 15.9798 92.6585C16.06 92.4328 16.162 92.2155 16.2844 92.0097C16.7696 91.1854 17.5337 90.6537 18.3907 90.6537C19.2476 90.6537 20.0134 91.1854 20.4987 92.0097C20.6167 92.2096 20.7164 92.4199 20.7964 92.6378C20.969 93.1198 21.0563 93.6282 21.0545 94.1401C21.0616 94.887 20.8698 95.6223 20.4987 96.2705C20.871 96.9207 21.0629 97.6586 21.0545 98.4078Z" fill="#3F3D56"/>
<path opacity="0.1" d="M18.3907 93.3745C19.8609 93.3745 21.0528 91.8135 21.0528 89.888C21.0528 87.9625 19.8609 86.4016 18.3907 86.4016C16.9204 86.4016 15.7285 87.9625 15.7285 89.888C15.7285 91.8135 16.9204 93.3745 18.3907 93.3745Z" fill="#3F3D56"/>
<path opacity="0.1" d="M18.3907 89.1136C19.8609 89.1136 21.0528 87.5527 21.0528 85.6272C21.0528 83.7017 19.8609 82.1407 18.3907 82.1407C16.9204 82.1407 15.7285 83.7017 15.7285 85.6272C15.7285 87.5527 16.9204 89.1136 18.3907 89.1136Z" fill="#3F3D56"/>
<path opacity="0.1" d="M31.0905 64.3474C31.0949 67.2089 30.1325 69.988 28.3595 72.234C29.7098 73.9509 30.5966 75.9858 30.935 78.1437C31.2734 80.3016 31.052 82.5102 30.2921 84.558C29.5322 86.6059 28.2591 88.4242 26.595 89.839C24.9308 91.2538 22.9312 92.2176 20.7878 92.638C20.4815 92.6999 20.17 92.7481 19.8551 92.786C18.8837 92.9022 17.9022 92.9074 16.9297 92.8015C16.6061 92.7671 16.2866 92.7194 15.9711 92.6586C14.58 92.4016 13.242 91.9124 12.0132 91.2114C9.72283 86.5324 7.72231 81.717 6.02296 76.7925C6.47003 75.1364 7.24801 73.588 8.30996 72.2409C6.9972 70.5732 6.12091 68.6045 5.76036 66.513C5.3998 64.4215 5.56635 62.2731 6.24495 60.2621L15.9298 63.5128L6.84725 58.7942C7.24725 57.9689 7.73475 57.1889 8.30136 56.4676C7.21816 55.091 6.43008 53.5061 5.98623 51.8116C5.54238 50.1171 5.45227 48.3493 5.7215 46.6185C5.99074 44.8876 6.61357 43.2308 7.55116 41.7512C8.48876 40.2715 9.72103 39.0009 11.1712 38.0183C12.6214 37.0358 14.2583 36.3625 15.9801 36.0403C17.7019 35.7181 19.4716 35.7539 21.1789 36.1456C22.8862 36.5373 24.4946 37.2764 25.9038 38.3169C27.3129 39.3573 28.4927 40.6769 29.3696 42.1933L20.0065 49.0766L30.1595 43.8109C30.8087 45.4234 31.1218 47.1515 31.0798 48.8893C31.0378 50.6271 30.6415 52.3381 29.9151 53.9174L22.3434 53.8606L29.3404 55.0101C29.0433 55.5188 28.7116 56.0063 28.3474 56.4694C30.1227 58.7116 31.0893 61.4874 31.0905 64.3474Z" fill="#8F68FC"/>
<path opacity="0.1" d="M31.0905 80.1274C31.09 83.0832 30.0633 85.9472 28.1858 88.2302C26.3084 90.5132 23.6965 92.0735 20.7964 92.6448C20.4901 92.7067 20.1786 92.7549 19.8637 92.7928C18.8923 92.9089 17.9108 92.9141 16.9383 92.8082C16.6148 92.7738 16.2953 92.7262 15.9798 92.6654C14.5886 92.4084 13.2507 91.9191 12.0218 91.2182C9.72826 86.5372 7.72486 81.7195 6.02298 76.7924C6.47004 75.1363 7.24803 73.5879 8.30998 72.2408C6.53605 69.9926 5.57369 67.211 5.579 64.3473C5.579 62.9155 30.07 70.0639 28.3595 72.2339C30.134 74.4817 31.0965 77.2635 31.0905 80.1274Z" fill="black"/>
</g>
<g opacity="0.1">
<path opacity="0.1" d="M174.648 95.0903C174.149 96.6838 173.616 98.2653 173.068 99.8106C172.916 99.3552 172.84 98.8779 172.841 98.3978C172.841 96.8611 173.598 95.5567 174.648 95.0903Z" fill="#3F3D56"/>
<path opacity="0.1" d="M180 67.6325C180 70.6526 179.391 75.4245 178.279 80.883C177.305 85.6769 176.091 90.4187 174.64 95.0903C174.141 96.6838 173.607 98.2652 173.06 99.8105C172.432 101.566 171.769 103.273 171.076 104.906C169.18 104.21 167.475 103.075 166.102 101.595C164.728 100.114 163.724 98.3295 163.172 96.3868C162.619 94.4441 162.534 92.3982 162.924 90.4164C163.313 88.4346 164.166 86.573 165.412 84.9838C164.099 83.3111 163.223 81.3381 162.863 79.2425C162.502 77.1468 162.669 74.9944 163.347 72.9792L173.032 76.2367L163.95 71.5078C164.35 70.6809 164.837 69.8991 165.404 69.1761C164.194 67.6336 163.355 65.834 162.95 63.9158C162.546 61.9977 162.587 60.0123 163.072 58.1128C163.556 56.2132 164.47 54.4502 165.743 52.9596C167.016 51.469 168.614 50.2907 170.415 49.5155C174.324 52.1824 177.267 56.0413 178.804 60.5168L177.126 61.7662L178.926 60.8318C179.53 62.6871 179.882 64.6149 179.974 66.5639H179.468L179.985 66.6482C180 66.9734 180 67.3004 180 67.6325Z" fill="#8F68FC"/>
<path opacity="0.1" d="M178.288 80.8831C177.314 85.677 176.099 90.4188 174.648 95.0903C174.149 96.6838 173.616 98.2653 173.068 99.8106C172.44 101.566 171.778 103.273 171.084 104.906C169.188 104.21 167.484 103.075 166.11 101.595C164.736 100.114 163.732 98.3296 163.18 96.3869C162.628 94.4441 162.543 92.3983 162.932 90.4165C163.322 88.4347 164.175 86.5731 165.421 84.9838C163.649 82.7313 162.688 79.9476 162.692 77.0817C162.692 76.2213 171.592 78.4756 178.288 80.8831Z" fill="black"/>
</g>
<path opacity="0.1" d="M179.978 66.6447C179.978 66.6189 179.978 66.5914 179.978 66.5638C179.886 64.6149 179.533 62.687 178.93 60.8317C178.895 60.7267 178.861 60.6201 178.825 60.5168C177.287 56.0412 174.345 52.1824 170.436 49.5155C166.054 46.53 160.735 45.2422 155.472 45.8927C150.21 46.5432 145.365 49.0874 141.842 53.0501C141.473 50.9611 140.89 48.9157 140.102 46.9463C134.36 47.6722 128.565 47.8881 122.785 47.5916C126.327 49.2248 130 50.5585 133.764 51.5788L133.63 52.0778C129.405 50.9306 125.297 49.3924 121.357 47.4832L120.168 46.9067L121.486 46.9927C127.627 47.3948 133.792 47.2179 139.899 46.4644C138.578 43.3128 136.745 40.401 134.475 37.8465C124.57 36.8484 114.742 34.7696 105.565 30.6482L105.777 30.1784C114.71 34.1931 124.283 36.2564 133.947 37.2717C130.676 33.765 126.634 31.0669 122.141 29.3904C117.648 27.714 112.826 27.1052 108.058 27.6121C103.289 28.1189 98.7032 29.7276 94.6629 32.311C90.6226 34.8945 87.2383 38.3819 84.7772 42.4979C83.8618 33.6214 80.1747 25.2585 74.2388 18.5954C68.9544 20.7068 63.4982 22.3598 57.9304 23.5359C49.5569 25.3157 40.9874 25.9977 32.4379 25.5648C35.9798 27.198 39.6523 28.5317 43.4168 29.552L43.2826 30.051C39.059 28.9036 34.9514 27.3655 31.013 25.4564L29.8239 24.8799L31.1421 24.966C45.715 25.9231 60.3176 23.6095 73.8809 18.1944C73.3704 17.6357 72.8449 17.0897 72.3046 16.5562C55.3681 16.9004 36.9224 16.7283 20.2233 10.6486C14.0353 14.4679 8.92814 19.8078 5.38814 26.1598C1.84814 32.5117 -0.0067856 39.6642 1.86522e-05 46.9359C1.86522e-05 54.931 2.19753 65.9254 6.02296 76.956C7.72762 81.8928 9.73389 86.7202 12.0304 91.4111C13.1989 93.7858 14.4396 96.0935 15.7423 98.303C17.3129 100.985 19.042 103.571 20.9203 106.047C21.2576 106.491 21.5989 106.927 21.9442 107.355C23.869 109.791 26.0294 112.031 28.3939 114.044C28.8723 114.443 29.3535 114.823 29.8377 115.184C31.1353 116.165 32.5174 117.029 33.9677 117.766C36.4922 119.031 39.0975 119.772 41.7631 119.879C41.9765 119.888 42.1916 119.893 42.405 119.893V119.98H158.045V119.893H158.132C158.798 119.89 159.459 119.774 160.086 119.549C164.175 118.098 167.94 112.273 171.071 104.911C171.759 103.278 172.427 101.571 173.055 99.8157C173.609 98.2669 174.135 96.6889 174.634 95.0954C176.086 90.4238 177.3 85.682 178.274 80.8881C179.377 75.4296 179.995 70.6577 179.995 67.6376C180 67.3004 180 66.9734 179.978 66.6447Z" fill="#8F68FC"/>
<path d="M57.4864 114.916L60.7801 112.978C60.3344 112.218 59.765 111.537 59.0954 110.963L52.8815 112.896L57.7515 110.034C56.5459 109.374 55.1892 109.038 53.8148 109.062C52.4405 109.085 51.0958 109.466 49.9133 110.166C48.7307 110.867 47.751 111.863 47.0705 113.058C46.3901 114.252 46.0323 115.603 46.0325 116.978C46.0325 121.348 49.5757 121.5 53.9484 121.5C58.3211 121.5 61.8643 121.348 61.8643 116.978C61.8658 115.871 61.6342 114.776 61.1845 113.765L57.4864 114.916Z" fill="#8F68FC"/>
<path opacity="0.1" d="M58.3245 119.165C57.9739 118.814 57.5821 118.506 57.1577 118.249C56.5589 117.852 55.9411 117.446 55.2356 117.311C54.6161 117.193 53.9776 117.292 53.3426 117.256C52.2472 117.189 51.216 116.717 50.4499 115.931C50.0008 115.467 49.6463 114.899 49.1059 114.539C48.5226 114.157 47.7826 114.075 47.0908 114.169C46.8901 114.198 46.6912 114.239 46.4954 114.291C46.1847 115.153 46.0263 116.062 46.0273 116.978C46.0273 121.349 49.5706 121.5 53.9432 121.5C56.065 121.5 57.9906 121.464 59.412 120.929L59.1746 120.485C58.9477 120.011 58.6621 119.567 58.3245 119.165Z" fill="black"/>
<path d="M94.1885 38.1201C97.5862 38.1201 100.341 35.3657 100.341 31.968C100.341 28.5704 97.5862 25.816 94.1885 25.816C90.7909 25.816 88.0365 28.5704 88.0365 31.968C88.0365 35.3657 90.7909 38.1201 94.1885 38.1201Z" fill="#3F3D56"/>
<path d="M90.6195 79.8246C91.2545 84.2799 90.4801 88.8229 89.2738 93.1577C89.0484 93.9648 88.8057 94.7787 88.3841 95.5032C87.9625 96.2277 87.3757 96.8506 86.8801 97.5321C85.8476 98.9535 85.2419 100.63 84.6757 102.288C83.1149 106.879 81.8039 111.55 80.7488 116.282C80.6852 116.476 80.6852 116.686 80.7488 116.88C80.8985 117.224 81.3528 117.268 81.7262 117.267L86.5549 117.241C86.727 116.91 86.4086 116.553 86.2107 116.236C85.5224 115.166 86.1832 113.775 86.7906 112.655C88.267 109.934 89.4099 107.045 90.1945 104.051C90.5249 102.789 90.7933 101.5 91.3302 100.311C91.979 98.8692 92.996 97.6284 93.822 96.2793C94.7822 94.7116 95.4826 93.0097 96.1778 91.3009C97.1484 88.9296 98.1275 86.529 98.5096 83.9959C98.8692 81.6177 98.692 79.1948 98.4579 76.8011C98.4688 76.7299 98.4626 76.6571 98.4398 76.5888C98.417 76.5205 98.3783 76.4585 98.3269 76.4081C98.2755 76.3577 98.2128 76.3202 98.144 76.2988C98.0752 76.2773 98.0023 76.2726 97.9314 76.2849L91.4524 75.951C90.117 75.8822 89.8004 75.5896 90.0035 76.9009C90.1446 77.8801 90.4784 78.8334 90.6195 79.8246Z" fill="#3F3D56"/>
<path opacity="0.1" d="M90.6195 79.8246C91.2545 84.2799 90.4801 88.8229 89.2738 93.1577C89.0484 93.9648 88.8057 94.7787 88.3841 95.5032C87.9625 96.2277 87.3757 96.8506 86.8801 97.5321C85.8476 98.9535 85.2419 100.63 84.6757 102.288C83.1149 106.879 81.8039 111.55 80.7488 116.282C80.6852 116.476 80.6852 116.686 80.7488 116.88C80.8985 117.224 81.3528 117.268 81.7262 117.267L86.5549 117.241C86.727 116.91 86.4086 116.553 86.2107 116.236C85.5224 115.166 86.1832 113.775 86.7906 112.655C88.267 109.934 89.4099 107.045 90.1945 104.051C90.5249 102.789 90.7933 101.5 91.3302 100.311C91.979 98.8692 92.996 97.6284 93.822 96.2793C94.7822 94.7116 95.4826 93.0097 96.1778 91.3009C97.1484 88.9296 98.1275 86.529 98.5096 83.9959C98.8692 81.6177 98.692 79.1948 98.4579 76.8011C98.4688 76.7299 98.4626 76.6571 98.4398 76.5888C98.417 76.5205 98.3783 76.4585 98.3269 76.4081C98.2755 76.3577 98.2128 76.3202 98.144 76.2988C98.0752 76.2773 98.0023 76.2726 97.9314 76.2849L91.4524 75.951C90.117 75.8822 89.8004 75.5896 90.0035 76.9009C90.1446 77.8801 90.4784 78.8334 90.6195 79.8246Z" fill="black"/>
<path d="M91.8929 68.9937C90.5765 70.8866 89.1964 73.0652 89.6335 75.3315C89.9656 77.0524 91.2769 78.386 92.5142 79.6336C97.4599 84.6 102.323 90.117 104.006 96.9229C104.44 98.6816 104.65 100.487 105.023 102.258C105.701 105.476 106.916 108.552 108.12 111.61L111.349 119.758C112.35 119.783 113.335 119.499 114.169 118.945C115.003 118.391 115.647 117.593 116.012 116.661C115.589 116.628 115.037 116.219 114.789 115.875C113.412 113.97 113.13 111.519 112.777 109.196C112.386 106.628 111.865 104.082 111.342 101.536L109.029 90.2753C108.762 88.9761 108.496 87.6751 108.148 86.3948C106.802 81.4354 104.252 76.7581 103.858 71.63C103.799 70.8763 103.763 70.0486 103.252 69.4893C102.715 68.899 101.834 68.8009 101.037 68.7545C97.8143 68.548 95.0335 68.2331 91.8929 68.9937Z" fill="#3F3D56"/>
<path d="M83.1975 116.167C82.8465 116.084 82.4878 116.038 82.1271 116.029C81.7815 116.042 81.4435 116.134 81.14 116.3C80.8365 116.466 80.5758 116.7 80.3788 116.985C80.1777 117.307 80.0198 117.654 79.909 118.017L79.4426 119.356C79.305 119.748 79.1707 120.201 79.3755 120.56C79.5278 120.784 79.7472 120.953 80.0019 121.044C81.1308 121.546 82.4111 121.574 83.6329 121.694C84.8271 121.812 86.0111 122.021 87.1899 122.242C87.596 122.319 88.0004 122.397 88.4117 122.438C89.3306 122.531 90.2564 122.438 91.1753 122.355L92.1235 122.264C92.4409 122.25 92.7548 122.192 93.0562 122.092C93.2068 122.041 93.3454 121.96 93.4637 121.854C93.582 121.747 93.6776 121.618 93.7445 121.474C93.9786 120.894 93.4761 120.208 92.8617 120.087C92.6122 120.039 92.3455 120.061 92.1011 120.029C91.8144 119.98 91.5348 119.896 91.2682 119.779C90.0637 119.303 88.8298 118.821 87.7629 118.07C87.4669 117.862 87.1572 117.571 87.1899 117.21C87.2206 117.055 87.2721 116.905 87.343 116.764C87.4877 116.395 87.4926 115.986 87.3568 115.613C87.2983 115.455 87.1847 115.288 87.0247 115.269C86.5704 115.214 86.6254 115.876 86.5583 116.129C86.4671 116.473 86.3019 116.504 85.9784 116.473C85.0491 116.389 84.1199 116.343 83.1975 116.167Z" fill="#F2F2F2"/>
<path d="M110.364 120.791C110.373 121.463 110.604 122.114 111.022 122.641C111.15 122.798 111.309 122.926 111.49 123.018C111.762 123.13 112.057 123.176 112.35 123.154C113.169 123.136 113.979 122.972 114.741 122.67C115.009 122.549 115.285 122.445 115.567 122.359C115.921 122.286 116.28 122.234 116.64 122.204C118.063 121.999 119.313 121.159 120.688 120.734C121.099 120.632 121.501 120.5 121.892 120.338C122.436 120.082 122.877 119.65 123.309 119.232C123.563 119.006 123.783 118.743 123.959 118.452C124.212 117.983 124.228 117.42 124.238 116.888C124.247 116.805 124.233 116.721 124.197 116.645C124.157 116.591 124.104 116.549 124.042 116.523C123.624 116.317 123.128 116.42 122.665 116.501C120.992 116.799 119.28 116.744 117.582 116.688C117.421 116.711 117.257 116.679 117.115 116.598C116.974 116.518 116.863 116.393 116.8 116.243L116.155 115.21C115.971 114.914 115.678 114.575 115.345 114.677C115.078 114.758 114.969 115.085 114.98 115.365C114.99 115.646 115.076 115.924 115.023 116.198C114.985 116.349 114.916 116.49 114.822 116.613C114.727 116.736 114.608 116.839 114.472 116.914C114.201 117.061 113.912 117.172 113.612 117.244C112.662 117.513 111.557 117.817 110.822 118.516C110.282 119.012 110.332 120.122 110.364 120.791Z" fill="#F2F2F2"/>
<path d="M110.031 52.5183C110.401 52.2351 110.719 51.8892 110.97 51.4961C111.186 51.0526 111.322 50.5743 111.371 50.0833L111.641 48.3762C111.791 47.4349 111.967 46.4386 112.595 45.721C113.223 45.0034 114.474 44.747 115.112 45.456C115.391 45.764 115.501 46.1873 115.57 46.5986C115.766 47.825 115.686 49.0798 115.334 50.271C114.982 51.4621 114.367 52.5593 113.536 53.482C112.763 54.3286 111.815 55.0015 110.998 55.8017C110.285 56.49 109.667 57.2799 109.01 58.0284C107.42 59.8367 105.6 61.4278 103.595 62.7607C103.619 61.4804 103.782 60.1072 103.595 58.8355C103.455 57.9166 103.078 57.421 103.968 56.8204C106.033 55.4162 108.117 54.1462 110.031 52.5183Z" fill="#FBBEBE"/>
<path d="M92.6776 39.9252C92.6105 40.8407 92.2302 41.7768 91.4731 42.3051C93.6172 43.0554 95.7321 43.8825 97.8178 44.7866C97.4151 44.3994 97.2929 43.8057 97.274 43.2481C97.2207 41.7906 97.7249 40.3571 98.4614 39.1009C98.5786 38.9416 98.6462 38.7512 98.6558 38.5537C98.6317 38.1475 98.1499 37.96 97.7541 37.8653C96.4038 37.5378 95.0256 37.3378 93.6379 37.2682C93.0442 37.2493 92.3404 37.0617 92.4746 37.8171C92.6019 38.5227 92.731 39.211 92.6776 39.9252Z" fill="#FBBEBE"/>
<path d="M96.8248 40.4156C99.6028 40.4156 101.855 38.1636 101.855 35.3856C101.855 32.6076 99.6028 30.3556 96.8248 30.3556C94.0468 30.3556 91.7948 32.6076 91.7948 35.3856C91.7948 38.1636 94.0468 40.4156 96.8248 40.4156Z" fill="#FBBEBE"/>
<path d="M101.805 48.9717C101.629 48.594 101.415 48.2354 101.167 47.9014C100.254 46.5918 99.3183 45.284 98.1482 44.1999C97.2618 43.4093 96.3024 42.7047 95.283 42.0953C94.7329 41.7182 94.1282 41.428 93.4899 41.2348C93.1111 41.1509 92.726 41.0985 92.3386 41.0782L91.0325 40.9716C90.918 40.9564 90.8017 40.9599 90.6883 40.9819C90.3338 41.0714 90.1721 41.5119 90.2478 41.8681C90.3235 42.2243 90.592 42.5134 90.8294 42.7836C90.8879 45.4492 89.7023 48.0786 89.5423 50.7408C89.2618 55.3956 92.1029 59.7253 92.33 64.3836C92.3534 64.5941 92.3311 64.8072 92.2646 65.0083C92.2268 65.1046 92.17 65.1924 92.127 65.287C91.9927 65.5796 91.9979 65.9117 91.9738 66.2335C91.88 67.3812 91.3775 68.4571 90.5575 69.2656C90.7706 69.5301 91.0446 69.7391 91.356 69.8748C91.905 70.114 92.5606 70.1346 93.144 70.3016C94.6652 70.7455 96.2243 71.193 97.8057 71.0983C98.0022 70.6708 98.1239 70.2127 98.1654 69.744C98.3891 69.6046 98.6472 69.9023 98.6816 70.1639C98.7161 70.4255 98.6662 70.7301 98.8537 70.9193C99.0413 71.1086 99.2788 71.0794 99.5076 71.0501C100.473 70.928 101.401 70.6027 102.347 70.3842C103.293 70.1656 104.305 70.0606 105.226 70.3738C105.412 70.1381 105.333 69.7888 105.181 69.5306C105.03 69.2725 104.815 69.0454 104.729 68.758C104.685 68.5924 104.667 68.4213 104.674 68.2503C104.674 66.779 104.976 65.2922 104.689 63.8484C104.605 63.4251 104.471 63.0121 104.385 62.587C104.212 61.7627 104.238 60.9127 104.261 60.0712C104.283 59.2297 104.181 58.3193 104.164 57.4658C104.164 57.1131 104.141 56.7607 104.095 56.4109C104.037 56.0444 103.923 55.6865 103.892 55.3165C103.799 54.3769 104.178 53.4442 104.121 52.5012C104.027 51.0694 102.363 50.2916 101.805 48.9717Z" fill="#05D2DD"/>
<path d="M90.4526 48.2971C89.2342 51.5289 88.6388 54.9568 88.0434 58.3606L86.6667 66.3556C86.2761 68.6151 85.8837 70.8883 85.8992 73.1805C85.8992 73.8241 85.9405 74.4797 85.7719 75.1009C85.5516 75.9166 85.0044 76.5964 84.5897 77.338C83.7482 78.8526 83.4679 80.6155 83.7981 82.3164C83.9392 83.0306 84.3247 83.8411 85.0491 83.9237C85.6446 83.9891 86.1591 83.5159 86.5067 83.0271C87.3052 81.9069 87.701 80.5543 88.0555 79.2224C89.1967 74.8696 89.9947 70.434 90.4423 65.9564C90.4848 65.3896 90.5647 64.8262 90.6815 64.27C90.8334 63.6965 91.0279 63.1351 91.2631 62.5904C91.7897 61.2849 92.3168 59.9793 92.8446 58.6738C94.0612 55.6572 95.2847 52.6268 96.9556 49.8356C95.3036 49.3606 93.5845 48.8031 91.9325 48.3333C91.4558 48.1922 90.9447 48.2765 90.4526 48.2971Z" fill="#FBBEBE"/>
<path d="M93.316 50.7527C92.1596 50.5032 90.9637 50.5806 89.7832 50.5514C89.6155 50.5636 89.4485 50.52 89.3082 50.4275C89.069 50.2227 89.1705 49.839 89.291 49.5481L89.8623 48.1715C89.9561 47.8869 90.1125 47.627 90.3201 47.4109C90.6109 47.1527 91.0204 47.0891 91.4059 47.0426C92.6604 46.898 93.951 46.8499 95.1677 47.1889C96.3843 47.5279 97.5287 48.2988 98.0724 49.4397C98.2996 49.9147 98.4046 50.5135 98.1034 50.9455C97.656 51.5873 96.6528 52.3049 95.9042 51.9539C95.0076 51.5288 94.321 50.9661 93.316 50.7527Z" fill="#01AEB8"/>
<path d="M99.4646 27.573C98.4706 27.5624 97.4954 27.8436 96.6597 28.3818C95.8684 27.6321 94.8922 27.106 93.8309 26.8575C92.7696 26.6089 91.6613 26.6468 90.6195 26.9673C90.5089 26.3328 90.2262 25.7409 89.8022 25.2562C89.3782 24.7715 88.8292 24.4125 88.2151 24.2185C87.6011 24.0245 86.9455 24.0029 86.3199 24.156C85.6944 24.3092 85.123 24.6312 84.668 25.087C84.213 25.5428 83.8919 26.1148 83.7398 26.7405C83.5877 27.3663 83.6104 28.0219 83.8055 28.6356C84.0005 29.2494 84.3604 29.7978 84.8459 30.221C85.3313 30.6442 85.9237 30.9259 86.5583 31.0354C86.3313 31.8107 86.2593 32.6232 86.3463 33.4264C86.4332 34.2296 86.6776 35.0078 87.0653 35.7165C87.4531 36.4253 87.9766 37.0508 88.6061 37.5572C89.2355 38.0636 89.9586 38.4411 90.7339 38.6681C91.5093 38.8951 92.3218 38.9672 93.125 38.8802C93.9282 38.7932 94.7064 38.5489 95.4151 38.1611C96.1239 37.7734 96.7494 37.2498 97.2558 36.6204C97.7622 35.9909 98.1397 35.2679 98.3667 34.4925C98.7297 34.5668 99.0993 34.6043 99.4698 34.6044C101.896 34.6044 103.865 33.0298 103.865 31.0887C103.865 29.1476 101.888 27.573 99.4646 27.573Z" fill="#3F3D56"/>
<path opacity="0.1" d="M100.341 32.8457C99.97 32.8467 99.6003 32.8092 99.2375 32.7338C99.0651 33.3632 98.7933 33.961 98.4321 34.5046C98.7724 34.5701 99.1181 34.6036 99.4646 34.6044C101.733 34.6044 103.595 33.2277 103.834 31.4656C103.027 32.3053 101.762 32.8457 100.341 32.8457Z" fill="black"/>
<path opacity="0.1" d="M93.3092 37.2408C92.3466 37.2394 91.3977 37.0125 90.5387 36.5782C89.6796 36.1439 88.9343 35.5144 88.3625 34.7401C87.7906 33.9658 87.4081 33.0683 87.2458 32.1195C87.0834 31.1708 87.1455 30.1971 87.4273 29.2767C86.6131 29.1335 85.8754 28.7079 85.3438 28.0746C84.8123 27.4414 84.5209 26.6411 84.5208 25.8144C84.5205 25.6032 84.5395 25.3923 84.5776 25.1846C84.1484 25.6483 83.8521 26.2191 83.7199 26.8369C83.5876 27.4548 83.6243 28.0969 83.8261 28.6956C84.028 29.2944 84.3874 29.8277 84.8667 30.2394C85.346 30.6512 85.9274 30.9262 86.5497 31.0354C86.0759 32.5911 86.2373 34.271 86.9987 35.7079C87.76 37.1449 89.0592 38.2219 90.6124 38.7037C92.1656 39.1854 93.8463 39.0325 95.2872 38.2786C96.728 37.5246 97.8117 36.2309 98.3013 34.6802C97.7325 35.4729 96.983 36.1187 96.1148 36.564C95.2467 37.0093 94.2849 37.2413 93.3092 37.2408Z" fill="black"/>
<path d="M115.751 47.613C115.77 47.5867 115.764 47.5504 115.738 47.5319C115.712 47.5134 115.676 47.5197 115.657 47.546L115.171 48.2268C115.153 48.2531 115.158 48.2894 115.184 48.3079C115.21 48.3264 115.246 48.3201 115.265 48.2938L115.751 47.613Z" fill="#3A3768"/>
<path d="M113.031 44.7221C113.042 44.7074 113.038 44.687 113.024 44.6765C113.009 44.666 112.989 44.6694 112.978 44.6841L112.834 44.8858C112.824 44.9005 112.827 44.9209 112.842 44.9314C112.856 44.9419 112.877 44.9385 112.887 44.9238L113.031 44.7221Z" fill="#3A3768"/>
<path d="M112.697 45.1971C112.709 45.1809 112.705 45.1583 112.689 45.1467C112.672 45.1351 112.65 45.1389 112.638 45.1551L112.363 45.5404C112.352 45.5566 112.356 45.5792 112.372 45.5908C112.388 45.6024 112.411 45.5986 112.422 45.5823L112.697 45.1971Z" fill="#3A3768"/>
<path d="M112.27 45.7948C112.281 45.7793 112.278 45.7578 112.262 45.7468C112.247 45.7358 112.225 45.7393 112.214 45.7548L111.934 46.147C111.923 46.1625 111.927 46.184 111.942 46.195C111.958 46.2061 111.979 46.2025 111.99 46.187L112.27 45.7948Z" fill="#3A3768"/>
<path d="M116.585 46.1516L114.142 44.4084C113.947 44.2693 113.676 44.3145 113.537 44.5095L109.474 50.2037C109.335 50.3987 109.38 50.6695 109.575 50.8086L112.018 52.5518C112.213 52.6909 112.484 52.6456 112.623 52.4507L116.686 46.7565C116.825 46.5615 116.78 46.2907 116.585 46.1516Z" fill="#3A3768"/>
<path opacity="0.1" d="M116.585 46.1516L114.142 44.4084C113.947 44.2693 113.676 44.3145 113.537 44.5095L109.474 50.2037C109.335 50.3987 109.38 50.6695 109.575 50.8086L112.018 52.5518C112.213 52.6909 112.484 52.6456 112.623 52.4507L116.686 46.7565C116.825 46.5615 116.78 46.2907 116.585 46.1516Z" fill="black"/>
<path d="M116.426 45.8308L113.983 44.0876C113.788 43.9485 113.517 43.9937 113.378 44.1887L109.315 49.8829C109.175 50.0779 109.221 50.3487 109.416 50.4878L111.859 52.231C112.054 52.3701 112.324 52.3248 112.463 52.1299L116.527 46.4357C116.666 46.2407 116.62 45.9699 116.426 45.8308Z" fill="#3A3768"/>
<path d="M116.205 45.9344L115.845 45.6763L115.814 45.7193C115.776 45.7721 115.719 45.8078 115.654 45.8191C115.59 45.8303 115.524 45.8161 115.47 45.7796L114.321 44.9587C114.266 44.9197 114.229 44.8606 114.218 44.7944C114.207 44.7283 114.223 44.6605 114.262 44.6059L114.293 44.5629L113.949 44.322C113.916 44.2984 113.879 44.2815 113.84 44.2723C113.801 44.263 113.76 44.2617 113.72 44.2682C113.68 44.2748 113.642 44.2891 113.608 44.3105C113.574 44.3318 113.544 44.3597 113.52 44.3926L109.549 49.9595C109.502 50.0257 109.482 50.108 109.496 50.1883C109.509 50.2686 109.553 50.3403 109.619 50.388L111.88 52.0004C111.913 52.0239 111.95 52.0407 111.99 52.0498C112.029 52.0589 112.07 52.0601 112.11 52.0534C112.15 52.0467 112.188 52.0322 112.222 52.0107C112.256 51.9892 112.286 51.9611 112.309 51.9281L116.281 46.3629C116.304 46.3299 116.321 46.2925 116.329 46.2531C116.338 46.2136 116.339 46.1727 116.332 46.1329C116.325 46.0931 116.31 46.055 116.288 46.0209C116.267 45.9869 116.238 45.9575 116.205 45.9344Z" fill="#8F68FC"/>
<path d="M115.158 45.2169L114.808 44.967C114.783 44.9494 114.749 44.9551 114.731 44.9799C114.713 45.0046 114.719 45.039 114.744 45.0567L115.094 45.3066C115.119 45.3242 115.153 45.3185 115.171 45.2937C115.188 45.269 115.183 45.2346 115.158 45.2169Z" fill="#E6E8EC"/>
<path d="M115.279 45.444C115.313 45.444 115.341 45.4162 115.341 45.382C115.341 45.3478 115.313 45.3201 115.279 45.3201C115.245 45.3201 115.217 45.3478 115.217 45.382C115.217 45.4162 115.245 45.444 115.279 45.444Z" fill="#E6E8EC"/>
<path d="M115.296 2.39709C112.239 2.39709 109.306 3.61182 107.144 5.77405C104.981 7.93627 103.767 10.8689 103.767 13.9267C103.767 20.2938 115.847 41.381 115.847 41.381C115.847 41.381 126.826 20.3024 126.826 13.9267C126.826 10.8689 125.611 7.93627 123.449 5.77405C121.287 3.61182 118.354 2.39709 115.296 2.39709ZM115.296 21.6154C114.102 21.6154 112.934 21.2612 111.941 20.5975C110.947 19.9338 110.173 18.9905 109.716 17.8868C109.259 16.7831 109.139 15.5686 109.372 14.3969C109.605 13.2252 110.181 12.149 111.025 11.3043C111.87 10.4595 112.946 9.88426 114.118 9.6512C115.29 9.41814 116.504 9.53776 117.608 9.99492C118.712 10.4521 119.655 11.2263 120.319 12.2196C120.982 13.2129 121.337 14.3807 121.337 15.5753C121.337 16.369 121.182 17.1551 120.879 17.8886C120.576 18.6221 120.131 19.2887 119.57 19.8502C119.009 20.4116 118.343 20.857 117.609 21.1608C116.876 21.4646 116.09 21.6208 115.296 21.6206V21.6154Z" fill="#8F68FC"/>
<path opacity="0.1" d="M115.296 2.39709C112.239 2.39709 109.306 3.61182 107.144 5.77405C104.981 7.93627 103.767 10.8689 103.767 13.9267C103.767 20.2938 115.847 41.381 115.847 41.381C115.847 41.381 126.826 20.3024 126.826 13.9267C126.826 10.8689 125.611 7.93627 123.449 5.77405C121.287 3.61182 118.354 2.39709 115.296 2.39709ZM115.296 21.6154C114.102 21.6154 112.934 21.2612 111.941 20.5975C110.947 19.9338 110.173 18.9905 109.716 17.8868C109.259 16.7831 109.139 15.5686 109.372 14.3969C109.605 13.2252 110.181 12.149 111.025 11.3043C111.87 10.4595 112.946 9.88426 114.118 9.6512C115.29 9.41814 116.504 9.53776 117.608 9.99492C118.712 10.4521 119.655 11.2263 120.319 12.2196C120.982 13.2129 121.337 14.3807 121.337 15.5753C121.337 16.369 121.182 17.1551 120.879 17.8886C120.576 18.6221 120.131 19.2887 119.57 19.8502C119.009 20.4116 118.343 20.857 117.609 21.1608C116.876 21.4646 116.09 21.6208 115.296 21.6206V21.6154Z" fill="black"/>
<path d="M115.296 0C112.239 0 109.306 1.21473 107.144 3.37695C104.981 5.53918 103.767 8.47179 103.767 11.5296C103.767 17.8967 115.847 41.3862 115.847 41.3862C115.847 41.3862 126.826 17.9002 126.826 11.5314C126.826 10.0171 126.528 8.51766 125.949 7.11863C125.37 5.71959 124.52 4.44837 123.45 3.37756C122.379 2.30675 121.108 1.45733 119.709 0.877806C118.31 0.29828 116.811 -1.68661e-08 115.296 0ZM115.296 19.2184C114.102 19.2184 112.934 18.8641 111.941 18.2004C110.947 17.5367 110.173 16.5934 109.716 15.4897C109.259 14.386 109.139 13.1715 109.372 11.9998C109.605 10.8281 110.181 9.7519 111.025 8.90717C111.87 8.06244 112.946 7.48717 114.118 7.25411C115.29 7.02105 116.504 7.14066 117.608 7.59783C118.712 8.05499 119.655 8.82917 120.319 9.82247C120.982 10.8158 121.337 11.9836 121.337 13.1782C121.337 13.9714 121.18 14.7568 120.877 15.4897C120.573 16.2225 120.128 16.8884 119.567 17.4492C119.007 18.0101 118.341 18.455 117.608 18.7586C116.875 19.0621 116.09 19.2184 115.296 19.2184Z" fill="#8F68FC"/>
</svg>
