<svg width="180" height="119" viewBox="0 0 180 119" fill="none" xmlns="http://www.w3.org/2000/svg">
<path opacity="0.1" d="M180 76.4299C180.01 82.8138 178.588 89.0782 175.89 94.5387C175.89 101.217 173.351 107.27 169.231 111.681C168.2 112.784 167.09 113.77 165.915 114.628C165.867 114.665 165.819 114.7 165.77 114.735C165.682 114.798 165.594 114.862 165.504 114.927L165.421 114.987C161.52 117.651 157.125 119.033 152.66 118.999H34.1701C33.2261 118.999 32.2904 118.953 31.3631 118.861C28.0678 118.542 24.8297 117.623 21.7558 116.133C21.1558 115.842 20.5673 115.53 19.9904 115.196C19.7156 115.037 19.4434 114.875 19.1738 114.708C19.0055 114.603 18.8371 114.495 18.6703 114.387C16.7319 113.135 14.9133 111.622 13.2483 109.876C7.89865 104.237 4.58187 96.4483 4.58187 87.8453C1.58095 82.1802 -0.0109943 75.5674 5.71517e-05 68.8126C5.71517e-05 49.6892 12.4679 34.1864 27.8497 34.1864C28.3217 34.1864 28.7937 34.2037 29.2658 34.2346C29.3334 34.2346 29.3995 34.2346 29.4672 34.2462C32.0602 28.8278 35.5264 23.8493 39.6944 19.4667C51.0608 7.52668 67.6731 0 86.1781 0C101.727 0 115.939 5.31419 126.826 14.0947C130.951 11.2358 135.611 9.73711 140.35 9.74494C155.728 9.74494 168.199 25.2477 168.199 44.3711C168.197 45.5811 168.144 46.7902 168.042 47.9937C171.749 51.2107 174.77 55.4736 176.852 60.4227C178.933 65.3718 180.013 70.8619 180 76.4299Z" fill="#8F68FC"/>
<g opacity="0.2">
<path opacity="0.2" d="M21.7715 105.519C21.7715 105.592 21.7637 105.663 21.7558 105.732C21.1558 105.495 20.5673 105.24 19.9904 104.967C19.6822 104.927 19.3956 104.787 19.1738 104.569C19.0055 104.484 18.8371 104.396 18.6703 104.308C18.7081 104.229 18.7506 104.152 18.7978 104.078C19.1219 103.565 19.6144 103.244 20.1572 103.262C20.7 103.279 21.1705 103.63 21.4616 104.16C21.6842 104.577 21.7912 105.047 21.7715 105.519Z" fill="#3F3D56"/>
<path opacity="0.2" d="M21.8565 102.826C21.8458 103.298 21.7095 103.758 21.4616 104.16C21.1375 104.671 20.645 104.992 20.1021 104.975L19.9904 104.967C19.6822 104.927 19.3956 104.787 19.1738 104.569C19.0234 104.426 18.8965 104.261 18.7978 104.078C18.5806 103.659 18.4744 103.192 18.4893 102.72C18.5042 102.249 18.6396 101.789 18.8827 101.385C19.2069 100.872 19.6993 100.551 20.2422 100.568C20.785 100.585 21.2555 100.936 21.5465 101.466C21.7692 101.884 21.8762 102.353 21.8565 102.826Z" fill="#3F3D56"/>
<path opacity="0.2" d="M21.942 100.137C21.9804 98.9199 21.2582 97.9097 20.3289 97.8803C19.3996 97.8509 18.615 98.8135 18.5766 100.03C18.5381 101.247 19.2603 102.257 20.1897 102.287C21.119 102.316 21.9035 101.354 21.942 100.137Z" fill="#3F3D56"/>
<path opacity="0.2" d="M22.0263 97.443C22.0647 96.2262 21.3425 95.2159 20.4132 95.1866C19.4838 95.1572 18.6993 96.1198 18.6608 97.3366C18.6224 98.5535 19.3446 99.5637 20.2739 99.5931C21.2033 99.6225 21.9878 98.6598 22.0263 97.443Z" fill="#3F3D56"/>
<path opacity="0.2" d="M22.1248 94.5716C22.1613 93.3541 21.4371 92.3446 20.5073 92.3167C19.5775 92.2888 18.7942 93.2531 18.7576 94.4706C18.7211 95.688 19.4452 96.6975 20.3751 96.7254C21.3049 96.7533 22.0882 95.789 22.1248 94.5716Z" fill="#3F3D56"/>
<path opacity="0.2" d="M14.7069 76.0585C14.4853 75.7585 14.2855 75.443 14.109 75.1145L18.5555 74.5276L13.7691 74.4127C13.342 73.3996 13.126 72.31 13.1344 71.2105C13.1428 70.111 13.3753 69.0248 13.8179 68.0183L20.1305 71.5507L14.3481 67.0113C14.9314 66.0679 15.703 65.2548 16.6147 64.623C17.5263 63.9911 18.5585 63.554 19.6466 63.339C20.7348 63.1239 21.8556 63.1356 22.9391 63.3732C24.0226 63.6108 25.0454 64.0692 25.9438 64.7199C26.8421 65.3705 27.5966 66.1994 28.1602 67.1548C28.7238 68.1101 29.0844 69.1714 29.2194 70.2724C29.3544 71.3734 29.2609 72.4904 28.9449 73.5536C28.6288 74.6168 28.0969 75.6035 27.3824 76.4519C27.7267 76.9188 28.0195 77.4215 28.2556 77.9514L22.4198 80.7536L28.6081 78.8923C28.9978 80.1781 29.0606 81.5409 28.7908 82.8572C28.521 84.1735 27.9271 85.4017 27.063 86.4305C27.9614 87.6495 28.4987 89.0968 28.6133 90.6067C28.728 92.1167 28.4154 93.6284 27.7113 94.9691C27.0073 96.3098 25.9401 97.4252 24.6319 98.188C23.3237 98.9507 21.8273 99.3299 20.3137 99.2822C18.8002 99.2344 17.3306 98.7617 16.073 97.9181C14.8155 97.0745 13.8207 95.894 13.2025 94.5116C12.5843 93.1293 12.3675 91.6008 12.5771 90.1011C12.7866 88.6014 13.414 87.1909 14.3875 86.0309C13.3141 84.5741 12.7615 82.7988 12.8186 80.9902C12.8757 79.1816 13.539 77.4447 14.7021 76.0585H14.7069Z" fill="#8F68FC"/>
<path opacity="0.1" d="M28.9511 81.4996C28.8953 83.3091 28.2299 85.0467 27.063 86.4307C27.9614 87.6497 28.4987 89.0969 28.6133 90.6069C28.728 92.1168 28.4154 93.6286 27.7113 94.9692C27.0073 96.3099 25.9401 97.4254 24.6319 98.1881C23.3237 98.9508 21.8273 99.33 20.3137 99.2823C18.8002 99.2346 17.3306 98.7619 16.073 97.9183C14.8155 97.0746 13.8207 95.8941 13.2025 94.5118C12.5843 93.1294 12.3675 91.601 12.5771 90.1012C12.7866 88.6015 13.414 87.191 14.3875 86.031C13.3537 84.626 28.9794 80.5933 28.9511 81.4996Z" fill="black"/>
</g>
<path d="M150.734 29.7778V105.173C150.734 105.941 150.429 106.678 149.886 107.221C149.343 107.765 148.606 108.07 147.838 108.07H32.1625C31.892 108.07 31.6229 108.032 31.3632 107.957C30.7585 107.784 30.2266 107.419 29.8481 106.916C29.4696 106.414 29.2652 105.802 29.2658 105.173V71.527C29.2658 71.3555 29.2658 71.1856 29.2658 71.0157V38.9272C29.3334 38.9272 29.3995 38.9272 29.4672 38.9367C32.0602 34.5169 35.5264 30.4559 39.6944 26.8811H147.838C148.606 26.8811 149.343 27.1863 149.886 27.7295C150.429 28.2728 150.734 29.0095 150.734 29.7778Z" fill="white"/>
<path d="M130.912 36.6725H114.884C113.321 36.6725 112.055 37.9391 112.055 39.5015C112.055 41.0639 113.321 42.3305 114.884 42.3305H130.912C132.475 42.3305 133.741 41.0639 133.741 39.5015C133.741 37.9391 132.475 36.6725 130.912 36.6725Z" fill="#3F3D56"/>
<path opacity="0.1" d="M130.443 37.6182H115.351C114.311 37.6182 113.468 38.461 113.468 39.5008C113.468 40.5405 114.311 41.3834 115.351 41.3834H130.443C131.483 41.3834 132.327 40.5405 132.327 39.5008C132.327 38.461 131.483 37.6182 130.443 37.6182Z" fill="black"/>
<path d="M130.179 37.8242H126.721C125.795 37.8242 125.045 38.5745 125.045 39.4999V39.5015C125.045 40.427 125.795 41.1772 126.721 41.1772H130.179C131.104 41.1772 131.855 40.427 131.855 39.5015V39.4999C131.855 38.5745 131.104 37.8242 130.179 37.8242Z" fill="#8F68FC"/>
<path d="M128.398 40.5494C128.977 40.5494 129.446 40.0803 129.446 39.5015C129.446 38.9228 128.977 38.4536 128.398 38.4536C127.819 38.4536 127.35 38.9228 127.35 39.5015C127.35 40.0803 127.819 40.5494 128.398 40.5494Z" fill="white"/>
<path d="M130.912 73.9706H114.884C113.321 73.9706 112.055 75.2372 112.055 76.7996C112.055 78.362 113.321 79.6286 114.884 79.6286H130.912C132.475 79.6286 133.741 78.362 133.741 76.7996C133.741 75.2372 132.475 73.9706 130.912 73.9706Z" fill="#3F3D56"/>
<path opacity="0.1" d="M130.443 74.9163H115.351C114.311 74.9163 113.468 75.7591 113.468 76.7989C113.468 77.8386 114.311 78.6815 115.351 78.6815H130.443C131.483 78.6815 132.327 77.8386 132.327 76.7989C132.327 75.7591 131.483 74.9163 130.443 74.9163Z" fill="black"/>
<path d="M130.179 75.1223H126.721C125.795 75.1223 125.045 75.8725 125.045 76.798V76.7996C125.045 77.725 125.795 78.4753 126.721 78.4753H130.179C131.104 78.4753 131.855 77.725 131.855 76.7996V76.798C131.855 75.8725 131.104 75.1223 130.179 75.1223Z" fill="#8F68FC"/>
<path d="M128.398 77.8475C128.977 77.8475 129.446 77.3784 129.446 76.7996C129.446 76.2209 128.977 75.7517 128.398 75.7517C127.819 75.7517 127.35 76.2209 127.35 76.7996C127.35 77.3784 127.819 77.8475 128.398 77.8475Z" fill="white"/>
<path d="M130.912 92.6188H114.884C113.321 92.6188 112.055 93.8854 112.055 95.4478C112.055 97.0102 113.321 98.2768 114.884 98.2768H130.912C132.475 98.2768 133.741 97.0102 133.741 95.4478C133.741 93.8854 132.475 92.6188 130.912 92.6188Z" fill="#3F3D56"/>
<path opacity="0.1" d="M130.443 93.566H115.351C114.311 93.566 113.468 94.4089 113.468 95.4486C113.468 96.4884 114.311 97.3312 115.351 97.3312H130.443C131.483 97.3312 132.327 96.4884 132.327 95.4486C132.327 94.4089 131.483 93.566 130.443 93.566Z" fill="black"/>
<path d="M130.179 93.7721H126.721C125.795 93.7721 125.045 94.5223 125.045 95.4478V95.4494C125.045 96.3748 125.795 97.1251 126.721 97.1251H130.179C131.104 97.1251 131.855 96.3748 131.855 95.4494V95.4478C131.855 94.5223 131.104 93.7721 130.179 93.7721Z" fill="#8F68FC"/>
<path d="M128.398 96.4957C128.977 96.4957 129.446 96.0265 129.446 95.4478C129.446 94.8691 128.977 94.3999 128.398 94.3999C127.819 94.3999 127.35 94.8691 127.35 95.4478C127.35 96.0265 127.819 96.4957 128.398 96.4957Z" fill="white"/>
<path d="M57.2601 33.1104H47.9345C47.009 33.1104 46.2588 33.8606 46.2588 34.7861V34.7876C46.2588 35.7131 47.009 36.4633 47.9345 36.4633H57.2601C58.1856 36.4633 58.9358 35.7131 58.9358 34.7876V34.7861C58.9358 33.8606 58.1856 33.1104 57.2601 33.1104Z" fill="#8F68FC"/>
<path d="M79.7853 37.8242H47.9345C47.009 37.8242 46.2588 38.5745 46.2588 39.4999V39.5015C46.2588 40.427 47.009 41.1772 47.9345 41.1772H79.7853C80.7108 41.1772 81.461 40.427 81.461 39.5015V39.4999C81.461 38.5745 80.7108 37.8242 79.7853 37.8242Z" fill="#8F68FC"/>
<path d="M79.7853 42.5398H47.9345C47.009 42.5398 46.2588 43.29 46.2588 44.2155V44.2171C46.2588 45.1425 47.009 45.8928 47.9345 45.8928H79.7853C80.7108 45.8928 81.461 45.1425 81.461 44.2171V44.2155C81.461 43.29 80.7108 42.5398 79.7853 42.5398Z" fill="#8F68FC"/>
<g opacity="0.5">
<path opacity="0.5" d="M57.2601 51.7585H47.9345C47.009 51.7585 46.2588 52.5088 46.2588 53.4342V53.4358C46.2588 54.3613 47.009 55.1115 47.9345 55.1115H57.2601C58.1856 55.1115 58.9358 54.3613 58.9358 53.4358V53.4342C58.9358 52.5088 58.1856 51.7585 57.2601 51.7585Z" fill="#8F68FC"/>
<path opacity="0.5" d="M70.8593 56.474H47.9345C47.009 56.474 46.2588 57.2242 46.2588 58.1497V58.1513C46.2588 59.0767 47.009 59.827 47.9345 59.827H70.8593C71.7847 59.827 72.535 59.0767 72.535 58.1513V58.1497C72.535 57.2242 71.7847 56.474 70.8593 56.474Z" fill="#8F68FC"/>
<path opacity="0.5" d="M79.7853 61.188H47.9345C47.009 61.188 46.2588 61.9382 46.2588 62.8637V62.8653C46.2588 63.7907 47.009 64.541 47.9345 64.541H79.7853C80.7108 64.541 81.461 63.7907 81.461 62.8653V62.8637C81.461 61.9382 80.7108 61.188 79.7853 61.188Z" fill="#8F68FC"/>
</g>
<path d="M57.2601 70.4083H47.9345C47.009 70.4083 46.2588 71.1586 46.2588 72.084V72.0856C46.2588 73.0111 47.009 73.7613 47.9345 73.7613H57.2601C58.1856 73.7613 58.9358 73.0111 58.9358 72.0856V72.084C58.9358 71.1586 58.1856 70.4083 57.2601 70.4083Z" fill="#8F68FC"/>
<path d="M79.7853 75.1223H47.9345C47.009 75.1223 46.2588 75.8725 46.2588 76.798V76.7996C46.2588 77.725 47.009 78.4753 47.9345 78.4753H79.7853C80.7108 78.4753 81.461 77.725 81.461 76.7996V76.798C81.461 75.8725 80.7108 75.1223 79.7853 75.1223Z" fill="#8F68FC"/>
<path d="M66.4537 79.8379H47.9345C47.009 79.8379 46.2588 80.5881 46.2588 81.5136V81.5152C46.2588 82.4406 47.009 83.1909 47.9345 83.1909H66.4537C67.3791 83.1909 68.1294 82.4406 68.1294 81.5152V81.5136C68.1294 80.5881 67.3791 79.8379 66.4537 79.8379Z" fill="#8F68FC"/>
<path d="M57.2601 89.0565H47.9345C47.009 89.0565 46.2588 89.8068 46.2588 90.7322V90.7338C46.2588 91.6593 47.009 92.4095 47.9345 92.4095H57.2601C58.1856 92.4095 58.9358 91.6593 58.9358 90.7338V90.7322C58.9358 89.8068 58.1856 89.0565 57.2601 89.0565Z" fill="#8F68FC"/>
<path d="M79.7853 93.7721H47.9345C47.009 93.7721 46.2588 94.5223 46.2588 95.4478V95.4494C46.2588 96.3748 47.009 97.1251 47.9345 97.1251H79.7853C80.7108 97.1251 81.461 96.3748 81.461 95.4494V95.4478C81.461 94.5223 80.7108 93.7721 79.7853 93.7721Z" fill="#8F68FC"/>
<path d="M72.9047 98.4861H47.9345C47.009 98.4861 46.2588 99.2363 46.2588 100.162V100.163C46.2588 101.089 47.009 101.839 47.9345 101.839H72.9047C73.8302 101.839 74.5804 101.089 74.5804 100.163V100.162C74.5804 99.2363 73.8302 98.4861 72.9047 98.4861Z" fill="#8F68FC"/>
<path opacity="0.7" d="M40.9091 48.9075H143.496" stroke="#3F3D56" stroke-miterlimit="10" stroke-linecap="round"/>
<path opacity="0.7" d="M40.9091 67.8672H143.496" stroke="#3F3D56" stroke-miterlimit="10" stroke-linecap="round"/>
<path opacity="0.7" d="M40.9091 86.827H143.496" stroke="#3F3D56" stroke-miterlimit="10" stroke-linecap="round"/>
<path opacity="0.7" d="M40.9091 106.259H143.496" stroke="#3F3D56" stroke-miterlimit="10" stroke-linecap="round"/>
<path opacity="0.1" d="M125.087 117.823C137.92 117.823 148.324 117.084 148.324 116.171C148.324 115.259 137.92 114.519 125.087 114.519C112.254 114.519 101.851 115.259 101.851 116.171C101.851 117.084 112.254 117.823 125.087 117.823Z" fill="#8F68FC"/>
<path opacity="0.1" d="M11.0959 33.6169C12.9755 33.6169 14.4992 32.0932 14.4992 30.2136C14.4992 28.334 12.9755 26.8103 11.0959 26.8103C9.21625 26.8103 7.69254 28.334 7.69254 30.2136C7.69254 32.0932 9.21625 33.6169 11.0959 33.6169Z" fill="#8F68FC"/>
<path opacity="0.1" d="M25.2803 14.8066C27.1599 14.8066 28.6836 13.2829 28.6836 11.4033C28.6836 9.52372 27.1599 8 25.2803 8C23.4007 8 21.877 9.52372 21.877 11.4033C21.877 13.2829 23.4007 14.8066 25.2803 14.8066Z" fill="#8F68FC"/>
<path opacity="0.1" d="M24.1269 30.0295C27.277 30.0295 29.8306 27.4759 29.8306 24.3259C29.8306 21.1758 27.277 18.6222 24.1269 18.6222C20.9769 18.6222 18.4233 21.1758 18.4233 24.3259C18.4233 27.4759 20.9769 30.0295 24.1269 30.0295Z" fill="#8F68FC"/>
<path d="M130.912 55.3208H114.884C113.321 55.3208 112.055 56.5874 112.055 58.1498C112.055 59.7122 113.321 60.9788 114.884 60.9788H130.912C132.475 60.9788 133.741 59.7122 133.741 58.1498C133.741 56.5874 132.475 55.3208 130.912 55.3208Z" fill="#3F3D56"/>
<path opacity="0.1" d="M130.443 56.2679H115.351C114.311 56.2679 113.468 57.1108 113.468 58.1505C113.468 59.1903 114.311 60.0332 115.351 60.0332H130.443C131.483 60.0332 132.327 59.1903 132.327 58.1505C132.327 57.1108 131.483 56.2679 130.443 56.2679Z" fill="black"/>
<path d="M114.1 112.003C114.347 111.967 114.594 111.917 114.836 111.86C114.805 112.103 114.735 112.339 114.629 112.559C114.388 113.015 113.918 113.29 113.485 113.571C113.425 113.515 113.348 113.481 113.267 113.476C113.185 113.471 113.105 113.493 113.038 113.541C112.517 113.855 112.102 114.299 111.55 114.57C111.356 114.664 111.155 114.74 110.966 114.845C110.508 115.124 110.129 115.516 109.864 115.983C109.707 116.226 109.58 116.547 109.734 116.79C109.793 116.872 109.869 116.94 109.957 116.99C110.182 117.146 110.45 117.226 110.724 117.218C110.881 117.204 111.038 117.144 111.21 117.117C111.425 117.079 111.646 117.098 111.863 117.079C112.178 117.039 112.486 116.959 112.782 116.842L113.863 116.464C114.168 116.365 114.465 116.243 114.752 116.099C114.923 116.006 115.085 115.898 115.26 115.813C115.456 115.726 115.659 115.654 115.867 115.599L116.481 115.419C116.569 115.386 116.664 115.373 116.758 115.383C116.843 115.399 116.915 115.452 117.002 115.474C117.134 115.498 117.27 115.485 117.395 115.437L118.106 115.235C118.256 115.201 118.399 115.142 118.529 115.059C118.855 114.828 118.913 114.368 118.912 113.967C118.91 113.359 118.841 112.754 118.707 112.161C118.616 112.198 118.536 112.258 118.476 112.335C118.403 112.233 118.325 112.135 118.241 112.041C117.914 111.66 117.672 111.213 117.532 110.731C117.789 110.54 118.003 110.297 118.161 110.019C117.785 108.586 117.4 107.131 116.635 105.865C116.385 105.453 116.098 105.066 115.848 104.66C115.104 103.48 114.951 101.985 114.1 100.884C114.019 100.772 113.976 100.638 113.976 100.5C113.976 100.362 114.019 100.228 114.1 100.116C114.198 99.9872 114.355 99.866 114.325 99.7055C114.303 99.5907 114.184 99.4853 114.229 99.3783C114.251 99.3263 114.305 99.298 114.346 99.2603C114.49 99.1249 114.471 98.8968 114.486 98.6985C114.517 98.1982 114.814 97.7545 115.101 97.3517C115.159 97.2553 115.236 97.1718 115.327 97.1062C115.404 97.059 115.496 97.037 115.573 96.9898C115.843 96.8183 115.825 96.4202 115.954 96.1244C116.124 95.7342 116.552 95.5375 116.832 95.2213C117.189 94.8185 117.28 94.2583 117.656 93.9075C117.695 93.8705 117.736 93.8368 117.78 93.8068C117.617 94.4037 117.543 95.0212 117.559 95.6398C117.522 97.7687 118.051 99.9714 117.804 102.091C117.609 103.768 118.633 105.441 120.085 106.279C120.654 106.583 121.249 106.835 121.862 107.033C122.771 107.359 123.678 107.694 124.57 108.068C125.199 108.333 125.82 108.616 126.433 108.92C127.189 109.289 127.924 109.699 128.635 110.148C129.51 110.71 130.387 111.28 131.008 112.118C131.388 112.099 131.754 111.965 132.056 111.733C132.295 111.922 132.585 112.065 132.81 112.274C133.12 112.598 133.328 113.006 133.408 113.448H133.313C133.324 113.657 133.334 113.866 133.345 114.077C133.353 114.131 133.345 114.186 133.321 114.235C133.298 114.266 133.269 114.292 133.236 114.312L132.752 114.64C132.399 114.878 132.01 115.179 131.992 115.605C131.982 115.729 132.019 115.852 132.097 115.95C132.216 116.06 132.367 116.128 132.528 116.145C133.371 116.322 134.235 116.496 135.09 116.381C135.496 116.326 135.916 116.192 136.18 115.877C136.422 115.591 136.495 115.202 136.561 114.832C136.666 114.203 136.754 113.56 136.824 112.921C136.845 112.487 136.933 112.058 137.085 111.651C137.096 111.616 137.12 111.585 137.152 111.566C137.189 111.55 137.231 111.566 137.269 111.55C137.307 111.535 137.332 111.476 137.344 111.429C137.5 110.808 137.576 110.169 137.569 109.528C137.577 109.362 137.552 109.196 137.495 109.039C137.429 108.908 137.334 108.793 137.217 108.703C137.101 108.614 136.966 108.551 136.822 108.52C136.535 108.462 136.244 108.427 135.952 108.416C135.708 108.393 135.466 108.348 135.23 108.284C135.134 108.248 135.031 108.234 134.929 108.245C134.879 108.251 134.832 108.276 134.799 108.315C134.765 108.353 134.747 108.403 134.747 108.454C134.752 108.49 134.765 108.525 134.784 108.556L134.539 108.507C134.341 108.471 134.067 108.385 133.77 108.312C133.77 108.262 133.773 108.209 133.779 108.155C133.78 108.099 133.764 108.043 133.735 107.995C133.705 107.947 133.663 107.909 133.612 107.884L129.455 105.663L128.678 105.247C126.975 104.336 125.216 103.494 123.509 102.583C123.396 102.618 123.302 102.487 123.268 102.371C123.235 102.254 123.212 102.116 123.103 102.064C123.05 102.039 122.979 102.041 122.946 101.995C122.918 101.954 122.907 101.904 122.916 101.855C122.971 101.026 123.564 100.261 123.446 99.4396C123.396 99.0888 123.215 98.7426 123.289 98.398C123.344 98.1604 123.514 97.9669 123.604 97.7403C123.808 97.2337 123.604 96.6248 123.827 96.1291C123.976 95.8034 124.077 95.4579 124.128 95.1033C124.233 94.3966 124.445 93.7101 124.757 93.0673C124.908 92.743 125.105 92.4424 125.342 92.1751C125.467 92.0398 125.607 91.9187 125.726 91.7786C126.088 91.3459 126.222 90.7701 126.324 90.2052C126.51 89.1966 126.639 88.1503 126.406 87.1496C126.327 86.8097 126.208 86.4715 126.212 86.1222C126.212 85.7036 126.381 85.2237 126.178 84.8886C126.387 84.7207 126.526 84.4814 126.57 84.2167C126.572 84.1215 126.591 84.0274 126.625 83.9382C126.694 83.8412 126.783 83.7606 126.887 83.7022C127.05 83.5784 127.174 83.4113 127.246 83.2201C127.317 83.0289 127.334 82.8214 127.293 82.6213C127.509 82.7188 127.735 82.5001 127.838 82.2846C127.94 82.069 128.017 81.8125 128.236 81.715C128.384 81.6521 128.55 81.6898 128.708 81.6489C128.958 81.5844 129.111 81.3342 129.287 81.1501C129.646 80.7631 130.154 80.5632 130.624 80.3257C132.018 79.616 133.154 78.4942 134.267 77.3897C134.847 76.851 135.374 76.2577 135.84 75.618C135.964 75.4339 136.078 75.2435 136.185 75.0484L136.213 75.0342L136.222 75.0689C136.24 75.1381 136.26 75.2073 136.281 75.275C136.331 75.4323 136.388 75.6007 136.438 75.7612C136.608 76.2332 136.792 76.7367 137.138 77.0938C137.244 77.2028 137.365 77.2965 137.497 77.3723C137.783 77.526 138.097 77.6202 138.421 77.6493C138.543 77.665 138.668 77.6744 138.792 77.6807C138.916 77.687 139.04 77.6918 139.163 77.6949L141.709 77.7626C140.834 76.4944 140.765 74.8454 140.823 73.3019C140.97 69.3369 141.742 65.3356 141.025 61.4335C140.938 60.9615 140.823 60.4895 140.535 60.1103C140.158 59.6147 139.538 59.3755 138.933 59.2355C138.329 59.0954 137.702 59.0278 137.137 58.7745C136.665 58.5589 136.23 58.2127 135.721 58.0995C135.345 58.0365 134.961 58.0429 134.588 58.1183C134.128 58.1865 133.671 58.2673 133.217 58.3607L133.107 58.3843H133.112L133.036 58.4016H133.016L132.948 58.4173H132.923L132.86 58.4346L132.832 58.4425L132.774 58.4613L132.74 58.4724L132.687 58.4897L132.652 58.5038L132.602 58.5227L132.564 58.5384L132.519 58.5589L132.481 58.5778L132.438 58.5982L132.401 58.6203L132.361 58.6423L132.324 58.6675L132.287 58.6911L132.25 58.7178L132.218 58.743L132.182 58.7745L132.152 58.8012C132.14 58.8125 132.128 58.8246 132.117 58.8374L132.091 58.8641C132.078 58.8781 132.067 58.8928 132.056 58.9082C132.056 58.9161 132.042 58.9239 132.036 58.9334C132.029 58.9428 132.007 58.9743 131.993 58.9979V59.0073C131.958 59.0664 131.929 59.1292 131.907 59.1946C131.896 59.2276 131.885 59.2606 131.877 59.2937C131.86 59.361 131.849 59.4293 131.842 59.4982C131.842 59.5328 131.842 59.569 131.834 59.6037C131.834 59.6729 131.834 59.7437 131.834 59.8129C131.841 59.9311 131.854 60.0487 131.874 60.1654C131.315 60.4952 130.85 60.961 130.521 61.5195C130.192 62.0779 130.01 62.7106 129.991 63.3586C129.973 64.0065 130.12 64.6486 130.417 65.2246C130.714 65.8007 131.152 66.292 131.691 66.6526C131.699 66.7147 131.703 66.7772 131.704 66.8398V66.8807C131.695 67.1033 131.672 67.3251 131.634 67.5447C131.012 67.424 130.38 67.3675 129.746 67.3764C129.369 67.3764 128.988 67.411 128.607 67.4409C128.199 66.9485 127.819 66.4337 127.468 65.8989L126.628 64.6669C126.339 64.2644 126.076 63.844 125.841 63.4082C125.635 63.0085 125.474 62.5837 125.245 62.1967C124.773 61.3989 124.002 60.7208 123.906 59.7972L123.684 59.8428C123.563 59.6446 123.41 59.4353 123.353 59.3204C123.05 58.665 122.815 57.9794 122.655 57.275C122.578 56.91 122.52 56.5292 122.32 56.2145C122.183 56.0179 122.019 55.8429 121.83 55.6953C121.527 55.4096 121.171 55.1852 120.782 55.0344C120.609 54.9714 120.424 54.9444 120.24 54.9553C120.056 54.9661 119.876 55.0144 119.711 55.0974C119.66 55.0736 119.607 55.0526 119.554 55.0344C119.359 54.9603 119.149 54.9342 118.942 54.9583C118.735 54.9824 118.537 55.056 118.364 55.1729C118.034 55.4262 117.892 55.8605 117.842 56.2743C117.755 56.8469 117.853 57.4323 118.122 57.9453C118.436 58.5085 119 58.8893 119.466 59.3362C119.79 59.6501 120.073 60.0032 120.31 60.3872C120.384 61.2372 120.362 62.0926 120.246 62.9377C120.186 63.2996 120.089 63.6552 120.06 64.0203C119.945 65.3388 120.631 66.6573 120.386 67.9538C120.345 68.1487 120.367 68.3514 120.446 68.5338C120.526 68.7162 120.661 68.8693 120.831 68.9718C121.184 69.1622 121.596 69.1874 121.983 69.2865C122.743 69.4816 123.399 69.9678 124.167 70.1487C124.521 70.2337 124.889 70.2495 125.242 70.3439L125.297 70.3612C125.025 70.6685 124.831 71.0365 124.732 71.4342C124.574 72.0951 124.722 72.8015 124.565 73.4624C124.436 74.0068 124.112 74.482 123.792 74.943C123.178 75.8325 122.562 76.7241 121.945 77.6178C121.533 78.2446 121.078 78.8423 120.584 79.4068C119.736 80.3335 118.273 81.0683 117.842 82.1823C117.832 82.1556 117.82 82.1288 117.81 82.1021C117.2 82.5505 116.972 83.386 116.485 83.9666C116.248 84.2482 115.955 84.4764 115.699 84.7375C115.381 85.0747 115.09 85.4361 114.829 85.8185C114.105 86.8223 113.376 87.8309 112.859 88.9559C112.588 89.5412 112.379 90.1501 112.163 90.7559C111.317 93.1428 109.935 95.4069 109.361 97.8756C109.221 98.4783 108.854 99.0227 108.799 99.6395C108.738 100.297 109.038 100.93 109.35 101.51C109.822 102.398 110.348 103.26 110.766 104.172C111.013 104.704 111.227 105.253 111.502 105.773C111.803 106.339 112.171 106.865 112.486 107.423C113.252 108.857 113.693 110.441 114.1 112.003ZM124.51 66.9169L124.434 66.8792C124.152 66.7571 123.894 66.5861 123.671 66.3741C122.993 65.6503 122.702 64.5599 122.49 63.586C122.464 63.4696 122.442 63.3547 122.422 63.2383C123.245 64.4073 124.022 65.6157 124.51 66.9201V66.9169Z" fill="url(#paint0_linear)"/>
<path d="M121.418 57.4685C121.341 57.105 121.284 56.7274 121.085 56.4159C120.948 56.2202 120.782 56.0463 120.594 55.8998C120.288 55.6159 119.932 55.3932 119.543 55.2437C119.348 55.1705 119.138 55.1447 118.931 55.1685C118.724 55.1923 118.526 55.265 118.353 55.3805C118.021 55.6323 117.881 56.0634 117.829 56.4819C117.742 57.051 117.84 57.6329 118.109 58.1419C118.432 58.702 118.989 59.0765 119.456 59.5234C119.795 59.8507 120.091 60.2209 120.334 60.6248C120.445 60.8342 120.579 61.0305 120.734 61.2101C120.812 61.2981 120.909 61.3667 121.019 61.4107C121.128 61.4547 121.246 61.4727 121.363 61.4634C121.559 61.4115 121.737 61.3064 121.878 61.1597C122.069 60.9914 122.586 60.6877 122.601 60.4249C122.614 60.2094 122.211 59.7216 122.112 59.5186C121.809 58.8615 121.577 58.1744 121.418 57.4685Z" fill="#FBBEBE"/>
<path opacity="0.1" d="M121.418 57.4685C121.341 57.105 121.284 56.7274 121.085 56.4159C120.948 56.2202 120.782 56.0463 120.594 55.8998C120.288 55.6159 119.932 55.3932 119.543 55.2437C119.348 55.1705 119.138 55.1447 118.931 55.1685C118.724 55.1923 118.526 55.265 118.353 55.3805C118.021 55.6323 117.881 56.0634 117.829 56.4819C117.742 57.051 117.84 57.6329 118.109 58.1419C118.432 58.702 118.989 59.0765 119.456 59.5234C119.795 59.8507 120.091 60.2209 120.334 60.6248C120.445 60.8342 120.579 61.0305 120.734 61.2101C120.812 61.2981 120.909 61.3667 121.019 61.4107C121.128 61.4547 121.246 61.4727 121.363 61.4634C121.559 61.4115 121.737 61.3064 121.878 61.1597C122.069 60.9914 122.586 60.6877 122.601 60.4249C122.614 60.2094 122.211 59.7216 122.112 59.5186C121.809 58.8615 121.577 58.1744 121.418 57.4685Z" fill="black"/>
<path d="M132.301 67.8263C131.472 67.6039 130.615 67.498 129.756 67.5117C128.322 67.5321 126.846 67.8798 125.481 67.4393C125.129 67.3196 124.788 67.174 124.458 67.0034C124.175 66.8825 123.917 66.7126 123.693 66.5015C123.014 65.7825 122.721 64.6984 122.51 63.7323C122.324 62.7602 122.216 61.7747 122.188 60.7853C121.833 60.9505 121.459 61.1125 121.07 61.0795C120.682 61.0465 120.284 60.7475 120.284 60.3573C120.342 61.273 120.384 62.1998 120.232 63.1029C120.172 63.4617 120.074 63.8157 120.048 64.1776C119.931 65.4882 120.619 66.7973 120.373 68.0891C120.332 68.2829 120.353 68.4848 120.433 68.666C120.513 68.8473 120.648 68.9989 120.819 69.0992C121.171 69.2896 121.585 69.3132 121.972 69.4139C122.732 69.6075 123.388 70.0905 124.159 70.2714C124.513 70.3548 124.883 70.3706 125.235 70.465C125.737 70.5987 126.195 70.8867 126.708 70.9763C127.092 71.0456 127.495 70.9984 127.877 71.0314C128.215 71.0597 128.546 71.1478 128.886 71.1573C129.716 71.1777 130.5 70.7089 131.051 70.0858C131.601 69.4627 131.952 68.5769 132.301 67.8263Z" fill="#05D2DD"/>
<path opacity="0.1" d="M132.301 67.8263C131.472 67.6039 130.615 67.498 129.756 67.5117C128.322 67.5321 126.846 67.8798 125.481 67.4393C125.129 67.3196 124.788 67.174 124.458 67.0034C124.175 66.8825 123.917 66.7126 123.693 66.5015C123.014 65.7825 122.721 64.6984 122.51 63.7323C122.324 62.7602 122.216 61.7747 122.188 60.7853C121.833 60.9505 121.459 61.1125 121.07 61.0795C120.682 61.0465 120.284 60.7475 120.284 60.3573C120.342 61.273 120.384 62.1998 120.232 63.1029C120.172 63.4617 120.074 63.8157 120.048 64.1776C119.931 65.4882 120.619 66.7973 120.373 68.0891C120.332 68.2829 120.353 68.4848 120.433 68.666C120.513 68.8473 120.648 68.9989 120.819 69.0992C121.171 69.2896 121.585 69.3132 121.972 69.4139C122.732 69.6075 123.388 70.0905 124.159 70.2714C124.513 70.3548 124.883 70.3706 125.235 70.465C125.737 70.5987 126.195 70.8867 126.708 70.9763C127.092 71.0456 127.495 70.9984 127.877 71.0314C128.215 71.0597 128.546 71.1478 128.886 71.1573C129.716 71.1777 130.5 70.7089 131.051 70.0858C131.601 69.4627 131.952 68.5769 132.301 67.8263Z" fill="black"/>
<path d="M134.577 108.333C134.833 108.364 135.082 108.442 135.311 108.562C135.61 108.775 135.834 109.077 135.95 109.425C136.293 110.271 136.364 111.203 136.38 112.117C136.392 112.855 136.367 113.61 136.103 114.299C136.031 114.516 135.906 114.713 135.739 114.87C135.592 114.986 135.421 115.068 135.239 115.113C134.844 115.221 134.388 115.22 134.065 114.968C133.707 114.688 133.617 114.192 133.541 113.744C133.439 113.139 133.294 112.496 132.844 112.079C132.511 111.764 132.032 111.607 131.79 111.226C131.501 110.768 131.653 110.17 131.837 109.661C131.995 109.218 132.232 108.323 132.695 108.097C133.157 107.87 134.097 108.246 134.577 108.333Z" fill="#FBBEBE"/>
<path d="M117.535 110.504C117.674 110.998 117.92 111.455 118.256 111.843C118.46 112.079 118.717 112.365 118.61 112.658C118.564 112.757 118.498 112.846 118.416 112.918C116.896 114.403 114.77 115.12 112.662 115.391C112.628 115.4 112.593 115.4 112.56 115.391C112.498 115.364 112.483 115.286 112.476 115.218C112.442 114.998 112.442 114.775 112.476 114.555C112.579 114.041 113.03 113.678 113.472 113.393C113.914 113.108 114.397 112.834 114.643 112.37C114.95 111.794 114.821 111.044 115.186 110.504C115.482 110.065 116.032 109.875 116.556 109.796C116.737 109.768 117.123 109.569 117.277 109.661C117.431 109.752 117.481 110.323 117.535 110.504Z" fill="#FBBEBE"/>
<path d="M134.784 108.279C134.784 108.228 134.803 108.179 134.836 108.141C134.87 108.103 134.916 108.078 134.967 108.071C135.069 108.061 135.171 108.074 135.267 108.109C135.504 108.175 135.745 108.22 135.99 108.243C136.282 108.253 136.574 108.287 136.861 108.345C137.005 108.375 137.14 108.437 137.257 108.526C137.374 108.615 137.469 108.729 137.536 108.86C137.592 109.016 137.618 109.182 137.61 109.347C137.617 109.984 137.541 110.618 137.385 111.236C137.373 111.283 137.354 111.338 137.308 111.355C137.263 111.372 137.229 111.355 137.193 111.372C137.177 111.381 137.163 111.394 137.151 111.408C137.139 111.423 137.131 111.44 137.126 111.457C136.973 111.861 136.885 112.285 136.863 112.716C136.794 113.346 136.706 113.984 136.6 114.614C136.539 114.982 136.462 115.369 136.219 115.652C135.953 115.967 135.533 116.097 135.127 116.153C134.271 116.266 133.408 116.094 132.563 115.918C132.401 115.902 132.25 115.834 132.13 115.725C132.052 115.628 132.015 115.505 132.025 115.382C132.043 114.958 132.434 114.659 132.785 114.423L133.271 114.098C133.305 114.079 133.334 114.052 133.356 114.021C133.38 113.972 133.388 113.917 133.379 113.863L133.348 113.234C133.67 113.24 133.984 113.332 134.258 113.503C134.531 113.673 134.753 113.914 134.901 114.2C134.967 114.334 135.031 114.489 135.17 114.541C135.26 114.562 135.354 114.547 135.433 114.499C135.512 114.451 135.57 114.374 135.593 114.285C135.635 114.105 135.63 113.917 135.579 113.739C135.294 112.217 135.362 110.653 135.189 109.116C135.178 108.943 135.124 108.775 135.031 108.628C134.957 108.523 134.802 108.421 134.784 108.279Z" fill="#F86D70"/>
<path d="M115.615 59.827H119.074C119.999 59.827 120.749 59.0768 120.749 58.1513V58.1498C120.749 57.2243 119.999 56.4741 119.074 56.4741H115.615C114.69 56.4741 113.94 57.2243 113.94 58.1498V58.1513C113.94 59.0768 114.69 59.827 115.615 59.827Z" fill="#05D2DD"/>
<path d="M117.396 59.1977C117.975 59.1977 118.444 58.7286 118.444 58.1498C118.444 57.5711 117.975 57.1019 117.396 57.1019C116.818 57.1019 116.349 57.5711 116.349 58.1498C116.349 58.7286 116.818 59.1977 117.396 59.1977Z" fill="white"/>
<path d="M113.619 114.178C113.548 114.296 113.436 114.387 113.37 114.508C113.333 114.566 113.317 114.635 113.327 114.703C113.337 114.771 113.371 114.833 113.424 114.878C113.494 114.909 113.573 114.917 113.649 114.9C115.168 114.71 116.595 114.064 117.739 113.047C117.93 112.886 118.099 112.702 118.241 112.497C118.375 112.295 118.488 112.046 118.713 111.961C118.85 112.552 118.921 113.156 118.924 113.763C118.924 114.162 118.868 114.617 118.542 114.848C118.411 114.93 118.267 114.988 118.117 115.021L117.406 115.223C117.28 115.27 117.144 115.283 117.011 115.26C116.928 115.238 116.854 115.185 116.767 115.169C116.673 115.159 116.578 115.172 116.49 115.205L115.875 115.385C115.667 115.439 115.464 115.51 115.268 115.597C115.091 115.681 114.929 115.788 114.758 115.88C114.471 116.024 114.173 116.145 113.867 116.242L112.786 116.618C112.49 116.734 112.181 116.813 111.866 116.854C111.649 116.873 111.427 116.854 111.211 116.89C111.054 116.919 110.897 116.979 110.724 116.991C110.45 117 110.182 116.92 109.957 116.765C109.87 116.715 109.793 116.647 109.734 116.566C109.577 116.326 109.713 116.008 109.864 115.764C110.131 115.301 110.509 114.912 110.966 114.634C111.155 114.53 111.358 114.455 111.551 114.36C112.103 114.093 112.52 113.646 113.041 113.341C113.534 113.053 113.85 113.797 113.619 114.178Z" fill="#F86D70"/>
<path d="M128.815 70.6129C129.387 71.0052 130.041 71.2599 130.728 71.3571C131.087 71.4016 131.449 71.4211 131.811 71.4153C133.32 71.4137 134.827 71.288 136.315 71.0393C135.724 70.3863 135.124 69.6877 134.899 68.8365C134.788 68.3852 134.765 67.9167 134.83 67.4566C134.921 66.8686 135.062 66.2896 135.252 65.7258C134.617 65.7591 133.98 65.7428 133.348 65.677C132.988 65.6393 132.103 65.312 131.79 65.5606C131.477 65.8092 131.718 66.6101 131.722 66.9861C131.723 66.9997 131.723 67.0134 131.722 67.027C131.707 67.5999 131.584 68.1646 131.359 68.6917C130.909 69.7081 129.933 70.5452 128.815 70.6129Z" fill="#FBBEBE"/>
<path opacity="0.1" d="M131.724 66.9783C132.178 67.275 132.69 67.4706 133.227 67.5521C133.763 67.6335 134.31 67.5988 134.832 67.4503C134.922 66.8624 135.063 66.2834 135.253 65.7196C134.618 65.7529 133.982 65.7366 133.349 65.6708C132.989 65.633 132.105 65.3058 131.792 65.5544C131.479 65.803 131.719 66.6023 131.724 66.9783Z" fill="black"/>
<path d="M133.801 67.4204C135.896 67.4204 137.594 65.722 137.594 63.6269C137.594 61.5318 135.896 59.8334 133.801 59.8334C131.706 59.8334 130.007 61.5318 130.007 63.6269C130.007 65.722 131.706 67.4204 133.801 67.4204Z" fill="#FBBEBE"/>
<path d="M117.706 82.821C117.705 83.127 117.783 83.4281 117.933 83.6949C118.083 83.9616 118.3 84.1847 118.562 84.3425C118.854 84.4959 119.167 84.6061 119.491 84.6698C121.221 85.0883 123.003 85.425 124.785 85.3228C125.172 85.3195 125.554 85.2393 125.909 85.0867C126.085 85.0085 126.241 84.8888 126.361 84.7379C126.482 84.5871 126.565 84.4093 126.603 84.2198C126.604 84.1256 126.622 84.0324 126.656 83.9444C126.725 83.8478 126.815 83.7678 126.919 83.71C127.081 83.5878 127.205 83.4222 127.278 83.2323C127.35 83.0424 127.367 82.836 127.326 82.6369C127.542 82.7345 127.768 82.5158 127.871 82.3018C127.973 82.0878 128.052 81.8298 128.269 81.7369C128.417 81.674 128.583 81.7117 128.741 81.6708C128.991 81.6063 129.144 81.3562 129.32 81.1752C129.679 80.7913 130.19 80.593 130.659 80.3555C132.056 79.6521 133.194 78.5366 134.309 77.4399C134.889 76.9056 135.416 76.3165 135.883 75.6808C136.008 75.498 136.123 75.309 136.229 75.1144C136.565 74.4684 136.857 73.8002 137.102 73.1146C137.244 72.7464 137.387 72.3593 137.329 71.9691C137.329 71.9345 137.316 71.8999 137.308 71.8637C137.235 71.6133 137.119 71.3778 136.964 71.1682C136.578 70.6018 136.073 70.0668 135.409 69.8906C134.745 69.7144 134.084 69.9268 133.409 70.07C133.186 70.12 132.959 70.1547 132.731 70.1738C132.017 70.2242 131.315 70.0322 130.619 69.8418L129.867 69.6341C129.491 69.5303 129.303 69.0756 128.923 68.9953C128.753 68.9696 128.579 68.9787 128.412 69.0221C127.639 69.1684 126.859 69.3588 126.178 69.7521C126.025 69.8392 125.88 69.9381 125.743 70.048C125.249 70.4172 124.893 70.942 124.733 71.538C124.576 72.1941 124.724 72.8959 124.567 73.552C124.438 74.0932 124.112 74.5653 123.794 75.0216L121.94 77.6759C121.527 78.2979 121.072 78.8909 120.578 79.4507C119.58 80.5348 117.733 81.3499 117.706 82.821Z" fill="#05D2DD"/>
<path d="M122.653 57.4685C122.576 57.105 122.52 56.7274 122.32 56.4159C122.183 56.2202 122.017 56.0463 121.829 55.8998C121.524 55.6159 121.167 55.3932 120.778 55.2437C120.583 55.1705 120.373 55.1447 120.166 55.1685C119.96 55.1923 119.761 55.265 119.588 55.3805C119.256 55.6323 119.116 56.0634 119.064 56.4819C118.977 57.051 119.076 57.6329 119.344 58.1419C119.659 58.702 120.224 59.0765 120.691 59.5234C121.031 59.8507 121.326 60.2209 121.569 60.6248C121.68 60.8342 121.814 61.0305 121.969 61.2101C122.047 61.2981 122.145 61.3667 122.254 61.4107C122.363 61.4547 122.481 61.4727 122.598 61.4634C122.794 61.4115 122.972 61.3064 123.113 61.1597C123.305 60.9914 123.821 60.6877 123.836 60.4249C123.849 60.2094 123.446 59.7216 123.347 59.5186C123.044 58.8615 122.812 58.1744 122.653 57.4685Z" fill="#FBBEBE"/>
<path d="M109.323 101.405C109.795 102.286 110.321 103.136 110.747 104.048C110.994 104.578 111.208 105.123 111.484 105.639C111.784 106.201 112.154 106.723 112.468 107.277C113.255 108.677 113.7 110.257 114.108 111.813C115.247 111.644 116.343 111.258 117.337 110.677C117.403 110.639 117.468 110.598 117.53 110.553C117.796 110.362 118.018 110.117 118.182 109.834C117.806 108.418 117.42 106.965 116.654 105.708C116.404 105.299 116.117 104.921 115.867 104.511C115.123 103.338 114.969 101.861 114.117 100.764C114.036 100.654 113.992 100.521 113.992 100.384C113.992 100.247 114.036 100.113 114.117 100.003C114.215 99.8754 114.372 99.7542 114.342 99.5953C114.32 99.4805 114.201 99.3766 114.246 99.2696C114.268 99.2177 114.322 99.1894 114.363 99.1516C114.508 99.0194 114.489 98.7913 114.503 98.5962C114.534 98.099 114.832 97.6631 115.12 97.2572C115.178 97.1616 115.255 97.0787 115.346 97.0133C115.423 96.9661 115.515 96.9441 115.592 96.8969C115.862 96.7285 115.843 96.332 115.974 96.0378C116.144 95.6507 116.572 95.4541 116.854 95.1409C117.211 94.7413 117.3 94.1859 117.678 93.8366C117.717 93.8001 117.759 93.7664 117.802 93.7359C117.639 94.3305 117.564 94.9461 117.581 95.5626C117.544 97.6773 118.073 99.8644 117.826 101.965C117.631 103.63 118.657 105.291 120.111 106.125C120.681 106.426 121.276 106.677 121.89 106.874C122.8 107.197 123.709 107.529 124.601 107.901C125.231 108.163 125.86 108.446 126.467 108.746C127.223 109.113 127.959 109.52 128.67 109.967C129.546 110.524 130.424 111.091 131.046 111.923C131.649 111.907 132.201 111.545 132.582 111.078C132.962 110.611 133.2 110.046 133.422 109.487C133.615 109.004 133.807 108.509 133.821 107.988C133.822 107.932 133.806 107.877 133.777 107.83C133.747 107.782 133.705 107.744 133.655 107.719L129.491 105.516L128.705 105.104C127.001 104.199 125.243 103.362 123.53 102.459C123.415 102.492 123.32 102.361 123.287 102.248C123.254 102.135 123.231 101.993 123.122 101.943C123.067 101.918 122.998 101.918 122.965 101.874C122.938 101.833 122.928 101.783 122.936 101.735C122.992 100.911 123.586 100.152 123.467 99.3357C123.416 98.9864 123.235 98.6434 123.309 98.302C123.364 98.0644 123.534 97.8724 123.624 97.6474C123.827 97.1439 123.624 96.546 123.847 96.0472C123.997 95.7238 124.098 95.3803 124.148 95.0277C124.255 94.3255 124.47 93.644 124.785 93.0074C124.936 92.6846 125.133 92.3856 125.371 92.12C125.496 91.9862 125.636 91.8651 125.754 91.7266C126.118 91.2971 126.25 90.7243 126.354 90.1721C126.54 89.1698 126.669 88.1266 126.436 87.1369C126.357 86.7986 126.238 86.4635 126.242 86.1158C126.242 85.6579 126.448 85.1214 126.131 84.7894C125.996 84.6702 125.834 84.5878 125.658 84.5502C124.918 84.3506 124.163 84.2112 123.401 84.1333L119.93 83.6817C119.529 83.6552 119.136 83.5533 118.773 83.3812C118.301 83.1216 117.986 82.6385 117.798 82.135C117.187 82.5803 116.957 83.4095 116.471 83.9854C116.234 84.267 115.941 84.4936 115.685 84.7516C115.366 85.086 115.074 85.4454 114.813 85.8263C114.088 86.8222 113.357 87.8261 112.838 88.9416C112.569 89.5222 112.366 90.128 112.143 90.7291C111.295 93.1002 109.912 95.3502 109.337 97.8C109.196 98.3995 108.829 98.9392 108.774 99.5528C108.71 100.203 109.01 100.832 109.323 101.405Z" fill="#434175"/>
<path opacity="0.1" d="M127.531 81.7213C127.615 81.879 127.659 82.0553 127.658 82.2342C127.581 81.8503 127.053 81.6379 127.02 81.2587C127.004 81.0841 127.035 81.0919 127.144 81.1848C127.309 81.3216 127.38 81.5702 127.531 81.7213Z" fill="black"/>
<path opacity="0.1" d="M125.924 82.8856C126.035 82.9803 126.118 83.1031 126.165 83.2412C126.253 83.4353 126.27 83.6543 126.212 83.8595C126.135 83.8233 126.109 83.7289 126.085 83.6455C126.049 83.5168 125.996 83.3934 125.928 83.2789C125.865 83.1798 125.577 82.9438 125.58 82.8352C125.575 82.6716 125.847 82.8274 125.924 82.8856Z" fill="black"/>
<path opacity="0.1" d="M125.739 70.0481C125.983 70.257 126.251 70.4356 126.538 70.5799C127.29 70.9607 128.122 71.1605 128.879 71.5239C129.253 71.7136 129.615 71.9237 129.965 72.1533C130.715 72.6253 131.464 73.0974 132.213 73.5773C132.394 73.6813 132.56 73.8076 132.709 73.9533C132.98 74.2428 132.978 74.74 133.225 75.0547C133.362 75.2102 133.529 75.3354 133.717 75.4221C133.905 75.5088 134.109 75.5552 134.315 75.5582C134.73 75.5617 135.141 75.4925 135.532 75.3537C135.769 75.2836 136.001 75.199 136.227 75.1003C136.464 75.0005 136.688 74.8727 136.894 74.7196C137.101 74.5745 137.276 74.3902 137.411 74.1772C137.546 73.9642 137.638 73.7266 137.681 73.4781C137.708 73.1347 137.663 72.7895 137.547 72.4649C137.485 72.2535 137.405 72.0477 137.308 71.8496C137.253 71.7373 137.189 71.6294 137.116 71.5271C136.6 70.7955 135.691 70.4509 134.811 70.2794C134.347 70.1897 133.875 70.1346 133.409 70.0559C133.186 70.106 132.959 70.1407 132.731 70.1598C132.017 70.2101 131.315 70.0182 130.619 69.8278L129.867 69.6201C129.491 69.5163 129.303 69.0615 128.923 68.9813C128.753 68.9556 128.579 68.9647 128.412 69.008C127.639 69.1544 126.859 69.3448 126.178 69.7381C126.023 69.8295 125.877 69.9332 125.739 70.0481Z" fill="black"/>
<path d="M123.906 59.9796C124.002 60.8969 124.776 61.5703 125.248 62.3618C125.478 62.7473 125.638 63.1689 125.844 63.567C126.08 64.0027 126.343 64.4231 126.631 64.8258L127.473 66.0483C127.968 66.7674 128.469 67.4927 129.101 68.0938C130.203 68.281 131.131 69.1008 132.177 69.4988C133.016 69.8135 133.928 69.8607 134.808 70.0322C135.688 70.2037 136.597 70.5467 137.113 71.28C137.306 71.5697 137.452 71.8884 137.544 72.224C137.659 72.5481 137.705 72.8928 137.678 73.2357C137.635 73.4845 137.543 73.7223 137.408 73.9356C137.273 74.1489 137.098 74.3335 136.891 74.4787C136.477 74.7655 136.017 74.9785 135.53 75.1081C135.14 75.2462 134.728 75.3154 134.314 75.3126C134.107 75.3095 133.903 75.263 133.715 75.1763C133.527 75.0896 133.359 74.9646 133.222 74.8091C132.977 74.4945 132.978 73.9925 132.707 73.7077C132.559 73.5621 132.392 73.4357 132.212 73.3317L129.963 71.9156C129.613 71.686 129.251 71.4759 128.878 71.2862C128.121 70.9165 127.289 70.7167 126.536 70.3422C125.784 69.9677 125.084 69.3336 124.936 68.5044C124.478 65.9571 122.715 63.8093 121.207 61.7057C121.256 61.6962 121.242 61.5829 121.259 61.5357C121.477 61.042 121.869 60.6456 122.361 60.4218C122.845 60.159 123.383 60.0913 123.906 59.9796Z" fill="#05D2DD"/>
<path d="M131.853 59.9985C131.825 59.7224 131.88 59.4441 132.01 59.1992C132.261 58.7838 132.783 58.6375 133.258 58.54C133.733 58.4424 134.171 58.3669 134.63 58.3008C135.004 58.2257 135.388 58.2187 135.765 58.2803C136.278 58.3936 136.709 58.7382 137.181 58.9506C137.747 59.2039 138.377 59.2653 138.981 59.4101C139.585 59.5548 140.206 59.7861 140.586 60.2786C140.874 60.6515 140.988 61.1282 141.075 61.5924C141.794 65.4677 141.02 69.4422 140.874 73.3805C140.815 74.913 140.885 76.551 141.761 77.8113L139.21 77.7436C138.557 77.7263 137.856 77.6917 137.343 77.2889C136.89 76.9349 136.676 76.3637 136.484 75.824C136.31 75.4048 136.2 74.962 136.156 74.5102C136.117 73.5851 136.643 72.6772 136.471 71.7662C136.344 71.0865 135.842 70.5358 135.319 70.0905C134.797 69.6452 134.202 69.2566 133.773 68.7137C133.01 67.7461 132.863 66.426 132.958 65.1971C133.014 64.4671 133.146 63.7354 133.082 63.0053C133.05 62.4467 132.848 61.9111 132.504 61.4697C132.103 60.9851 131.891 60.683 131.853 59.9985Z" fill="#434175"/>
<path opacity="0.1" d="M132.01 59.1992C132.256 58.7901 132.766 58.6422 133.233 58.5463C132.985 58.6334 132.772 58.7992 132.627 59.0183C132.497 59.264 132.443 59.5426 132.47 59.8192C132.504 60.5036 132.717 60.8057 133.123 61.2903C133.468 61.7311 133.67 62.267 133.702 62.826C133.765 63.5561 133.634 64.2861 133.578 65.0178C133.482 66.245 133.628 67.5667 134.393 68.5344C134.821 69.0772 135.411 69.4643 135.939 69.9111C136.468 70.358 136.964 70.9071 137.091 71.5868C137.261 72.4963 136.735 73.4057 136.776 74.3309C136.818 74.7822 136.928 75.2247 137.102 75.6431C137.296 76.1844 137.51 76.7555 137.961 77.1095C138.474 77.5123 139.177 77.5469 139.83 77.5643L141.637 77.6115C141.676 77.6775 141.718 77.7436 141.763 77.8081L139.212 77.7405C138.559 77.7232 137.857 77.6886 137.344 77.2858C136.891 76.9317 136.677 76.3606 136.485 75.8209C136.311 75.4017 136.201 74.9589 136.158 74.5071C136.119 73.5819 136.644 72.674 136.473 71.763C136.345 71.0833 135.843 70.5326 135.321 70.0873C134.799 69.6421 134.204 69.2534 133.774 68.7106C133.011 67.7429 132.865 66.4228 132.959 65.194C133.016 64.4639 133.148 63.7323 133.083 63.0022C133.051 62.4436 132.85 61.908 132.506 61.4665C132.1 60.9819 131.888 60.6798 131.851 59.9954C131.824 59.7201 131.88 59.443 132.01 59.1992Z" fill="black"/>
<path opacity="0.1" d="M112.849 99.1375L117.535 110.553C117.801 110.362 118.023 110.117 118.186 109.834C117.81 108.418 117.425 106.965 116.659 105.708C116.408 105.299 116.122 104.921 115.872 104.511C115.128 103.339 114.973 101.861 114.122 100.764C114.041 100.654 113.997 100.521 113.997 100.384C113.997 100.247 114.041 100.113 114.122 100.003C114.22 99.8754 114.377 99.7543 114.347 99.5954C114.325 99.4805 114.206 99.3766 114.251 99.2696C114.273 99.2177 114.327 99.1894 114.368 99.1516C114.512 99.0195 114.493 98.7913 114.508 98.5962C114.539 98.099 114.836 97.6632 115.124 97.2572C115.183 97.1617 115.26 97.0787 115.351 97.0134C115.428 96.9662 115.519 96.9441 115.596 96.8969C115.867 96.7286 115.848 96.3321 115.979 96.0378C116.149 95.6508 116.577 95.4541 116.858 95.141C117.216 94.7413 117.305 94.1859 117.683 93.8366L117.716 93.7548L117.362 91.552L112.849 99.1375Z" fill="black"/>
<path d="M153.732 112.771C156.682 112.771 159.073 112.311 159.073 111.744C159.073 111.176 156.682 110.716 153.732 110.716C150.781 110.716 148.39 111.176 148.39 111.744C148.39 112.311 150.781 112.771 153.732 112.771Z" fill="#8F68FC"/>
<path d="M153.821 112.12C154.164 112.12 154.443 111.756 154.443 111.306C154.443 110.857 154.164 110.493 153.821 110.493C153.478 110.493 153.2 110.857 153.2 111.306C153.2 111.756 153.478 112.12 153.821 112.12Z" fill="#3F3D56"/>
<path d="M153.821 111.125C154.164 111.125 154.443 110.761 154.443 110.312C154.443 109.863 154.164 109.499 153.821 109.499C153.478 109.499 153.2 109.863 153.2 110.312C153.2 110.761 153.478 111.125 153.821 111.125Z" fill="#3F3D56"/>
<path d="M153.821 110.129C154.164 110.129 154.443 109.765 154.443 109.316C154.443 108.867 154.164 108.503 153.821 108.503C153.478 108.503 153.2 108.867 153.2 109.316C153.2 109.765 153.478 110.129 153.821 110.129Z" fill="#3F3D56"/>
<path d="M153.821 109.135C154.164 109.135 154.443 108.771 154.443 108.322C154.443 107.872 154.164 107.508 153.821 107.508C153.478 107.508 153.2 107.872 153.2 108.322C153.2 108.771 153.478 109.135 153.821 109.135Z" fill="#3F3D56"/>
<path d="M153.821 108.139C154.164 108.139 154.443 107.775 154.443 107.326C154.443 106.876 154.164 106.512 153.821 106.512C153.478 106.512 153.2 106.876 153.2 107.326C153.2 107.775 153.478 108.139 153.821 108.139Z" fill="#3F3D56"/>
<path d="M153.821 107.145C154.164 107.145 154.443 106.78 154.443 106.331C154.443 105.882 154.164 105.518 153.821 105.518C153.478 105.518 153.2 105.882 153.2 106.331C153.2 106.78 153.478 107.145 153.821 107.145Z" fill="#3F3D56"/>
<path d="M153.821 106.15C154.164 106.15 154.443 105.786 154.443 105.337C154.443 104.888 154.164 104.523 153.821 104.523C153.478 104.523 153.2 104.888 153.2 105.337C153.2 105.786 153.478 106.15 153.821 106.15Z" fill="#3F3D56"/>
<path d="M151.493 98.527C151.408 98.4187 151.33 98.3046 151.261 98.1856L152.895 97.9165L151.128 97.9307C150.958 97.5617 150.866 97.1622 150.856 96.7564C150.847 96.3507 150.92 95.9472 151.071 95.5705L153.442 96.7994L151.255 95.1929C151.459 94.8371 151.734 94.5272 152.064 94.2826C152.393 94.038 152.769 93.8641 153.169 93.7716C153.568 93.6792 153.983 93.6702 154.386 93.7453C154.789 93.8204 155.173 93.9779 155.512 94.208C155.852 94.4381 156.14 94.7358 156.359 95.0825C156.578 95.4292 156.724 95.8174 156.786 96.2229C156.848 96.6283 156.826 97.0422 156.721 97.4387C156.616 97.8352 156.43 98.2057 156.175 98.527C156.308 98.6948 156.422 98.8768 156.515 99.0698L154.394 100.171L156.657 99.4128C156.76 99.7206 156.813 100.043 156.814 100.368C156.815 101.037 156.59 101.686 156.175 102.21C156.521 102.65 156.736 103.177 156.795 103.733C156.855 104.289 156.757 104.85 156.513 105.353C156.269 105.856 155.888 106.28 155.414 106.576C154.94 106.873 154.393 107.03 153.834 107.03C153.275 107.03 152.727 106.873 152.253 106.576C151.78 106.28 151.399 105.856 151.155 105.353C150.91 104.85 150.813 104.289 150.872 103.733C150.932 103.177 151.147 102.65 151.493 102.21C151.08 101.685 150.855 101.037 150.855 100.369C150.855 99.7007 151.08 99.0521 151.493 98.527Z" fill="#8F68FC"/>
<path opacity="0.1" d="M156.814 100.368C156.815 101.037 156.59 101.686 156.175 102.21C156.521 102.65 156.736 103.177 156.795 103.733C156.855 104.289 156.757 104.85 156.513 105.353C156.269 105.856 155.888 106.28 155.414 106.576C154.94 106.873 154.393 107.03 153.834 107.03C153.275 107.03 152.727 106.873 152.253 106.576C151.78 106.28 151.399 105.856 151.155 105.353C150.91 104.85 150.813 104.289 150.872 103.733C150.932 103.177 151.147 102.65 151.493 102.21C151.093 101.704 156.814 100.034 156.814 100.368Z" fill="black"/>
<path d="M164.135 101.024C166.119 101.024 167.727 100.715 167.727 100.333C167.727 99.9518 166.119 99.6426 164.135 99.6426C162.151 99.6426 160.543 99.9518 160.543 100.333C160.543 100.715 162.151 101.024 164.135 101.024Z" fill="#8F68FC"/>
<path d="M164.196 100.588C164.428 100.588 164.615 100.343 164.615 100.041C164.615 99.7382 164.428 99.493 164.196 99.493C163.965 99.493 163.778 99.7382 163.778 100.041C163.778 100.343 163.965 100.588 164.196 100.588Z" fill="#3F3D56"/>
<path d="M164.196 99.9194C164.428 99.9194 164.615 99.6743 164.615 99.3719C164.615 99.0695 164.428 98.8243 164.196 98.8243C163.965 98.8243 163.778 99.0695 163.778 99.3719C163.778 99.6743 163.965 99.9194 164.196 99.9194Z" fill="#3F3D56"/>
<path d="M164.196 99.2492C164.428 99.2492 164.615 99.004 164.615 98.7016C164.615 98.3992 164.428 98.1541 164.196 98.1541C163.965 98.1541 163.778 98.3992 163.778 98.7016C163.778 99.004 163.965 99.2492 164.196 99.2492Z" fill="#3F3D56"/>
<path d="M164.196 98.5805C164.428 98.5805 164.615 98.3353 164.615 98.0329C164.615 97.7305 164.428 97.4854 164.196 97.4854C163.965 97.4854 163.778 97.7305 163.778 98.0329C163.778 98.3353 163.965 98.5805 164.196 98.5805Z" fill="#3F3D56"/>
<path d="M164.196 97.9118C164.428 97.9118 164.615 97.6666 164.615 97.3642C164.615 97.0618 164.428 96.8167 164.196 96.8167C163.965 96.8167 163.778 97.0618 163.778 97.3642C163.778 97.6666 163.965 97.9118 164.196 97.9118Z" fill="#3F3D56"/>
<path d="M164.196 97.2431C164.428 97.2431 164.615 96.9979 164.615 96.6955C164.615 96.3931 164.428 96.1479 164.196 96.1479C163.965 96.1479 163.778 96.3931 163.778 96.6955C163.778 96.9979 163.965 97.2431 164.196 97.2431Z" fill="#3F3D56"/>
<path d="M164.196 96.5728C164.428 96.5728 164.615 96.3276 164.615 96.0252C164.615 95.7228 164.428 95.4777 164.196 95.4777C163.965 95.4777 163.778 95.7228 163.778 96.0252C163.778 96.3276 163.965 96.5728 164.196 96.5728Z" fill="#3F3D56"/>
<path d="M162.631 91.4482C162.572 91.3759 162.52 91.2991 162.473 91.2184L163.575 91.0375L162.387 91.0469C162.265 90.7846 162.203 90.499 162.203 90.2099C162.203 89.9527 162.252 89.698 162.348 89.4593L163.943 90.287L162.472 89.206C162.608 88.9655 162.793 88.7559 163.015 88.5903C163.236 88.4247 163.49 88.3068 163.759 88.2439C164.028 88.1811 164.308 88.1747 164.579 88.2251C164.851 88.2756 165.11 88.3818 165.339 88.5371C165.567 88.6924 165.762 88.8933 165.909 89.1274C166.056 89.3614 166.154 89.6234 166.195 89.8969C166.236 90.1703 166.22 90.4493 166.148 90.7163C166.076 90.9833 165.949 91.2325 165.776 91.4482C165.865 91.5612 165.942 91.6836 166.004 91.8132L164.579 92.5543L166.099 92.0429C166.206 92.3596 166.233 92.6982 166.177 93.0279C166.121 93.3576 165.983 93.668 165.776 93.931C166.009 94.2265 166.155 94.5818 166.195 94.956C166.236 95.3303 166.171 95.7085 166.007 96.0473C165.842 96.386 165.586 96.6717 165.267 96.8716C164.948 97.0715 164.579 97.1776 164.203 97.1776C163.826 97.1776 163.457 97.0715 163.138 96.8716C162.819 96.6717 162.563 96.386 162.399 96.0473C162.235 95.7085 162.169 95.3303 162.21 94.956C162.251 94.5818 162.396 94.2265 162.629 93.931C162.351 93.5782 162.2 93.142 162.2 92.6927C162.2 92.2435 162.351 91.8073 162.629 91.4545L162.631 91.4482Z" fill="#8F68FC"/>
<path opacity="0.1" d="M166.207 92.6864C166.208 93.1355 166.057 93.5717 165.779 93.9247C166.013 94.2202 166.158 94.5755 166.199 94.9497C166.239 95.324 166.174 95.7022 166.01 96.0409C165.845 96.3797 165.589 96.6654 165.27 96.8653C164.951 97.0652 164.582 97.1713 164.206 97.1713C163.829 97.1713 163.46 97.0652 163.141 96.8653C162.822 96.6654 162.566 96.3797 162.402 96.0409C162.238 95.7022 162.172 95.324 162.213 94.9497C162.254 94.5755 162.399 94.2202 162.632 93.9247C162.362 93.5833 166.207 92.4614 166.207 92.6864Z" fill="black"/>
<defs>
<linearGradient id="paint0_linear" x1="125.24" y1="117.224" x2="125.24" y2="54.9699" gradientUnits="userSpaceOnUse">
<stop stop-color="#808080" stop-opacity="0.25"/>
<stop offset="0.54" stop-color="#808080" stop-opacity="0.12"/>
<stop offset="1" stop-color="#808080" stop-opacity="0.1"/>
</linearGradient>
</defs>
</svg>
