<svg width="180" height="126" viewBox="0 0 180 126" fill="none" xmlns="http://www.w3.org/2000/svg">
<path opacity="0.1" d="M104.603 19.8573C93.0674 19.4569 82.0807 15.7319 71.5886 11.6576C61.0964 7.58322 50.7047 3.06857 39.4436 0.910155C32.2026 -0.479336 23.9199 -0.675556 18.0844 3.20736C12.469 6.94351 10.6552 13.3932 9.67885 19.3787C8.94502 23.8822 8.51429 28.6202 10.5243 32.8365C11.9202 35.7623 14.3993 38.2222 16.1078 41.0251C22.0726 50.7803 17.8626 62.8071 11.3922 72.3325C8.36115 76.7993 4.84195 81.0619 2.50327 85.8175C0.164585 90.573 -0.913825 96.0225 1.14249 100.882C3.17169 105.69 8.00221 109.302 13.2459 111.843C23.8769 116.994 36.4142 118.471 48.6388 119.307C75.7012 121.158 102.909 120.357 130.043 119.554C140.084 119.256 150.171 118.956 160.049 117.402C165.535 116.541 171.198 115.169 175.181 111.868C180.237 107.674 181.491 100.572 178.102 95.3126C172.42 86.4907 156.708 84.3051 152.737 74.8323C150.55 69.6222 152.796 63.8169 155.974 58.9848C162.789 48.6155 174.213 39.5224 174.815 27.671C175.229 19.5351 169.737 11.38 161.245 7.52898C152.343 3.49292 140.002 4.00022 133.434 10.6829C126.672 17.5633 114.789 20.2099 104.603 19.8573Z" fill="#8F68FC"/>
<path d="M143.997 108.785C143.349 108.575 142.665 108.502 141.988 108.571C141.163 108.66 141.28 109.916 142.108 109.857C142.522 109.825 142.931 109.749 143.33 109.632L143.997 108.785Z" fill="#8F68FC"/>
<path d="M144.247 108.796C144.545 109.408 144.712 110.076 144.738 110.757C144.766 111.586 143.505 111.645 143.448 110.817C143.423 110.403 143.441 109.987 143.502 109.576L144.247 108.796Z" fill="#8F68FC"/>
<path d="M146.123 106.109C146.123 106.109 145.72 104.843 143.252 105.334C142.135 105.556 142.165 107.157 143.284 107.327H143.331C144.96 107.553 145.527 106.907 146.123 106.109Z" fill="#8F68FC"/>
<path d="M146.38 106.034C146.38 106.034 147.706 106.138 147.789 108.651C147.827 109.782 146.262 110.125 145.842 109.075C145.842 109.059 145.831 109.045 145.825 109.029C145.239 107.496 145.739 106.797 146.38 106.034Z" fill="#8F68FC"/>
<path d="M148.151 102.796C148.058 102.336 147.843 101.91 147.53 101.56C147.218 101.211 146.817 100.951 146.37 100.808C144.7 100.282 143.818 102.78 145.45 103.415C146.125 103.662 146.844 103.766 147.562 103.721L148.151 102.796Z" fill="#8F68FC"/>
<path d="M150.188 98.6244C150.188 98.6244 149.513 97.0291 147.763 96.71C145.908 96.3702 145.346 99.1572 147.179 99.6023C148.002 99.781 148.852 99.788 149.677 99.623L150.188 98.6244Z" fill="#8F68FC"/>
<path d="M151.418 94.5166C151.132 94.0676 150.759 93.6808 150.32 93.3793C149.882 93.0778 149.387 92.8678 148.865 92.7618C147.27 92.4619 146.732 94.85 148.299 95.2584C149.283 95.499 150.312 95.4847 151.289 95.217L151.418 94.5166Z" fill="#8F68FC"/>
<path d="M152.578 90.5123C152.069 89.6731 151.277 89.0435 150.344 88.7367C148.749 88.247 147.961 90.6654 149.547 91.1918C150.487 91.5038 151.503 91.4998 152.44 91.1807L152.578 90.5123Z" fill="#8F68FC"/>
<path d="M153.066 86.864C153.066 86.864 152.428 85.3676 151.127 84.5764C149.679 83.6942 148.299 85.8526 149.692 86.8241C150.55 87.4255 151.649 87.8403 152.933 87.5627L153.066 86.864Z" fill="#8F68FC"/>
<path d="M153.307 82.536C153.307 82.536 152.603 81.0253 151.254 80.3026C149.744 79.505 148.432 81.7097 149.853 82.6605C150.783 83.281 151.944 83.683 153.178 83.1981L153.307 82.536Z" fill="#8F68FC"/>
<path d="M153.157 78.5892C152.63 77.7723 151.985 77.0384 151.242 76.4116C150.186 75.5486 148.849 77.1024 149.85 78.0245C150.773 78.8716 151.923 79.5831 153.112 79.5256L153.157 78.5892Z" fill="#8F68FC"/>
<path d="M152.756 74.8022C152.153 73.7849 151.427 72.8461 150.593 72.0072C149.767 71.2096 148.545 72.4252 149.317 73.2659C150.209 74.2231 151.412 75.2154 152.857 75.6493L152.756 74.8022Z" fill="#8F68FC"/>
<path d="M151.983 70.3481C151.485 69.575 150.906 68.8577 150.255 68.2088C149.422 67.3936 148.167 68.6204 148.966 69.4675C149.815 70.3688 150.912 71.2127 152.199 71.4999L151.983 70.3481Z" fill="#8F68FC"/>
<path d="M151.306 66.1923C150.795 65.5001 150.24 64.841 149.645 64.2189C148.979 63.5314 147.913 64.4981 148.542 65.2224C149.28 66.0742 150.228 66.8288 151.317 66.9501L151.306 66.1923Z" fill="#8F68FC"/>
<path d="M150.604 62.3382C150.138 61.4253 149.605 60.5481 149.009 59.7139C148.51 59.0312 147.47 59.7618 147.94 60.4637C148.556 61.3842 149.411 62.2951 150.534 62.7338L150.604 62.3382Z" fill="#8F68FC"/>
<path d="M150.025 57.2157C150.025 57.2157 149.631 56.5472 149.068 55.7703C148.548 55.054 147.45 55.7943 147.932 56.5361C148.475 57.3672 149.154 58.0755 149.945 58.2159L150.025 57.2157Z" fill="#8F68FC"/>
<path d="M149.749 53.8209L149.25 51.3242C149.117 50.6638 148.133 50.8217 148.213 51.4838C148.391 52.8174 148.851 54.1591 149.851 55.0397L149.749 53.8209Z" fill="#8F68FC"/>
<path d="M150.046 46.7251C149.999 46.6147 149.914 46.5252 149.806 46.4735C149.698 46.4218 149.575 46.4115 149.46 46.4445C149.344 46.4775 149.245 46.5516 149.181 46.6526C149.117 46.7537 149.092 46.8748 149.111 46.9931C149.222 47.6866 149.391 48.3696 149.615 49.035L150.046 46.7251Z" fill="#8F68FC"/>
<path d="M148.262 102.747C148.708 102.6 149.185 102.574 149.644 102.673C150.102 102.771 150.527 102.991 150.872 103.308C152.149 104.5 150.422 106.499 149.062 105.4C148.513 104.935 148.066 104.362 147.749 103.717L148.262 102.747Z" fill="#8F68FC"/>
<path d="M150.301 98.4728C150.301 98.4728 151.979 98.0676 153.278 99.2832C154.655 100.572 152.752 102.683 151.301 101.475C150.668 100.921 150.156 100.241 149.797 99.4794L150.301 98.4728Z" fill="#8F68FC"/>
<path d="M151.528 94.7972C151.962 94.4866 152.454 94.2669 152.975 94.1512C153.496 94.0356 154.034 94.0263 154.559 94.124C156.154 94.443 155.757 96.8567 154.151 96.6509C153.148 96.5055 152.2 96.1075 151.394 95.4943L151.528 94.7972Z" fill="#8F68FC"/>
<path d="M152.657 90.5347C153.441 89.9462 154.41 89.6571 155.388 89.7196C157.057 89.8647 156.878 92.3996 155.208 92.2943C154.219 92.2328 153.278 91.849 152.528 91.2016L152.657 90.5347Z" fill="#8F68FC"/>
<path d="M153.045 86.9676C153.045 86.9676 153.93 85.602 155.344 85.0437C156.912 84.4231 157.919 86.773 156.395 87.4956C155.438 87.9471 154.285 88.1752 153.059 87.6791L153.045 86.9676Z" fill="#8F68FC"/>
<path d="M153.101 82.4706C153.101 82.4706 153.996 81.0668 155.427 80.5308C157.022 79.9325 158.041 82.2935 156.508 83.0513C155.505 83.5458 154.301 83.7915 153.142 83.1502L153.101 82.4706Z" fill="#8F68FC"/>
<path d="M152.801 78.5477C153.14 77.6372 153.613 76.7823 154.205 76.0112C155.05 74.9408 156.695 76.1707 155.91 77.2874C155.189 78.3132 154.225 79.2528 153.039 79.4522L152.801 78.5477Z" fill="#8F68FC"/>
<path d="M152.678 74.7957C152.971 73.6476 153.407 72.5404 153.973 71.4998C154.546 70.5075 156.057 71.3291 155.543 72.3533C154.956 73.5258 154.075 74.81 152.809 75.6316L152.678 74.7957Z" fill="#8F68FC"/>
<path d="M151.753 70.1405C152.097 69.2556 152.539 68.4119 153.071 67.6247C153.728 66.6676 155.184 67.6056 154.583 68.5947C153.929 69.6731 153.007 70.7579 151.77 71.3067L151.753 70.1405Z" fill="#8F68FC"/>
<path d="M151.016 66.1699C151.194 65.3283 151.424 64.4987 151.707 63.6861C152.026 62.7816 153.399 63.2187 153.128 64.1391C152.809 65.2207 152.262 66.3008 151.322 66.8639L151.016 66.1699Z" fill="#8F68FC"/>
<path d="M150.504 62.263C150.75 61.267 151.07 60.2907 151.461 59.3421C151.793 58.5636 152.973 59.0374 152.673 59.8286C152.284 60.8656 151.659 61.9472 150.666 62.63L150.504 62.263Z" fill="#8F68FC"/>
<path d="M149.736 57.5667C149.736 57.5667 149.886 56.8057 150.159 55.8852C150.411 55.0366 151.694 55.37 151.485 56.2298C151.252 57.187 150.847 58.0883 150.145 58.484L149.736 57.5667Z" fill="#8F68FC"/>
<path d="M149.915 53.6518L150.783 51.2589C151.013 50.6208 151.97 50.9302 151.783 51.5779C151.408 52.8701 150.757 54.1304 149.633 54.8483L149.915 53.6518Z" fill="#8F68FC"/>
<path d="M150.997 46.9756C150.997 46.9756 151.132 46.8671 151.34 46.6964C151.762 46.3455 152.314 46.958 151.916 47.3345C151.221 47.9656 150.423 48.4719 149.556 48.8309L150.997 46.9756Z" fill="#8F68FC"/>
<path d="M150.939 45.5893C151.458 44.5302 152.036 43.5013 152.67 42.5072C152.706 42.4386 152.717 42.3592 152.699 42.2837C152.681 42.2082 152.636 42.1419 152.572 42.0971C152.509 42.0523 152.432 42.0321 152.354 42.0404C152.277 42.0486 152.206 42.0847 152.153 42.1419C151.643 42.8406 151.142 43.8632 150.762 45.3659L150.939 45.5893Z" fill="#8F68FC"/>
<path d="M149.95 58.2558L150.135 58.2366C149.338 50.801 149.674 46.2162 151.068 45.3276L150.968 45.1681C149.491 46.1141 149.14 50.6383 149.95 58.2558Z" fill="#444053"/>
<path d="M152.694 75.8359L152.97 75.7944C152.866 75.1069 152.747 74.4081 152.613 73.7206C151.451 67.6856 150.548 62.1069 150.097 57.8699L149.894 57.7103C150.347 61.9554 151.171 67.7271 152.34 73.77C152.471 74.4528 152.59 75.15 152.694 75.8359Z" fill="#444053"/>
<path d="M139.772 113.417C139.814 113.384 144.063 110.133 147.795 103.897C149.982 100.247 151.576 96.2742 152.517 92.1252C153.696 86.9389 153.729 80.8992 152.879 75.2423L152.63 75.4417C154.544 88.137 150.893 97.9942 147.485 103.693C143.791 109.871 139.59 113.089 139.547 113.121L139.772 113.417Z" fill="#444053"/>
<path d="M30.9516 113.389C36.815 113.389 41.5682 112.474 41.5682 111.347C41.5682 110.219 36.815 109.305 30.9516 109.305C25.0882 109.305 20.335 110.219 20.335 111.347C20.335 112.474 25.0882 113.389 30.9516 113.389Z" fill="#8F68FC"/>
<path d="M30.7731 112.097C31.4559 112.097 32.0094 111.372 32.0094 110.479C32.0094 109.586 31.4559 108.861 30.7731 108.861C30.0902 108.861 29.5367 109.586 29.5367 110.479C29.5367 111.372 30.0902 112.097 30.7731 112.097Z" fill="#3F3D56"/>
<path d="M30.7731 110.118C31.4559 110.118 32.0094 109.394 32.0094 108.501C32.0094 107.607 31.4559 106.883 30.7731 106.883C30.0902 106.883 29.5367 107.607 29.5367 108.501C29.5367 109.394 30.0902 110.118 30.7731 110.118Z" fill="#3F3D56"/>
<path d="M30.7731 108.142C31.4559 108.142 32.0094 107.418 32.0094 106.524C32.0094 105.631 31.4559 104.907 30.7731 104.907C30.0902 104.907 29.5367 105.631 29.5367 106.524C29.5367 107.418 30.0902 108.142 30.7731 108.142Z" fill="#3F3D56"/>
<path d="M30.7731 106.164C31.4559 106.164 32.0094 105.439 32.0094 104.546C32.0094 103.653 31.4559 102.928 30.7731 102.928C30.0902 102.928 29.5367 103.653 29.5367 104.546C29.5367 105.439 30.0902 106.164 30.7731 106.164Z" fill="#3F3D56"/>
<path d="M30.7731 104.186C31.4559 104.186 32.0094 103.461 32.0094 102.568C32.0094 101.675 31.4559 100.95 30.7731 100.95C30.0902 100.95 29.5367 101.675 29.5367 102.568C29.5367 103.461 30.0902 104.186 30.7731 104.186Z" fill="#3F3D56"/>
<path d="M30.7731 102.209C31.4559 102.209 32.0094 101.485 32.0094 100.591C32.0094 99.698 31.4559 98.9738 30.7731 98.9738C30.0902 98.9738 29.5367 99.698 29.5367 100.591C29.5367 101.485 30.0902 102.209 30.7731 102.209Z" fill="#3F3D56"/>
<path d="M30.7731 100.231C31.4559 100.231 32.0094 99.5066 32.0094 98.6132C32.0094 97.7198 31.4559 96.9956 30.7731 96.9956C30.0902 96.9956 29.5367 97.7198 29.5367 98.6132C29.5367 99.5066 30.0902 100.231 30.7731 100.231Z" fill="#3F3D56"/>
<path d="M35.3994 85.0788C35.5688 84.8639 35.7229 84.6374 35.8604 84.4008L32.6124 83.868L36.122 83.8935C36.4592 83.1607 36.6432 82.3666 36.6627 81.5601C36.6821 80.7537 36.5367 79.9517 36.2353 79.2034L31.5228 81.6474L35.8684 78.4568C35.4621 77.7515 34.9147 77.1376 34.2605 76.6534C33.6064 76.1691 32.8594 75.8249 32.0662 75.6422C31.273 75.4596 30.4507 75.4424 29.6506 75.5918C28.8505 75.7412 28.0898 76.0539 27.4159 76.5104C26.7421 76.9669 26.1696 77.5574 25.7342 78.2451C25.2988 78.9328 25.0098 79.7028 24.8853 80.5072C24.7608 81.3115 24.8035 82.1329 25.0106 82.9201C25.2178 83.7072 25.585 84.4432 26.0893 85.082C25.8266 85.417 25.6004 85.779 25.4145 86.162L29.6308 88.3523L25.1385 86.8432C24.8232 87.7764 24.7456 88.7735 24.9127 89.7443C25.0799 90.715 25.4865 91.6287 26.0957 92.4028C25.4083 93.2762 24.9806 94.3254 24.8615 95.4304C24.7424 96.5354 24.9367 97.6517 25.4222 98.6515C25.9076 99.6513 26.6646 100.494 27.6067 101.084C28.5487 101.674 29.6377 101.987 30.7491 101.987C31.8606 101.987 32.9496 101.674 33.8916 101.084C34.8336 100.494 35.5906 99.6513 36.0761 98.6515C36.5615 97.6517 36.7558 96.5354 36.6367 95.4304C36.5176 94.3254 36.0899 93.2762 35.4026 92.4028C36.224 91.3595 36.6707 90.0702 36.6707 88.7424C36.6707 87.4145 36.224 86.1253 35.4026 85.082L35.3994 85.0788Z" fill="#8F68FC"/>
<path opacity="0.1" d="M24.8258 88.74C24.8245 90.0676 25.2707 91.3569 26.0925 92.3996C25.4051 93.273 24.9775 94.3222 24.8584 95.4272C24.7392 96.5322 24.9335 97.6485 25.419 98.6483C25.9044 99.6481 26.6615 100.491 27.6035 101.081C28.5455 101.671 29.6345 101.983 30.7459 101.983C31.8574 101.983 32.9464 101.671 33.8884 101.081C34.8304 100.491 35.5874 99.6481 36.0729 98.6483C36.5584 97.6485 36.7526 96.5322 36.6335 95.4272C36.5144 94.3222 36.0867 93.273 35.3994 92.3996C36.1938 91.3929 24.8258 88.0748 24.8258 88.74Z" fill="black"/>
<path d="M37.0057 41.676V112.141C37.0057 112.464 37.0693 112.784 37.193 113.083C37.3166 113.381 37.4978 113.652 37.7262 113.881C37.9546 114.109 38.2258 114.29 38.5243 114.414C38.8227 114.538 39.1426 114.601 39.4656 114.601H140.586C141.238 114.601 141.864 114.342 142.325 113.881C142.787 113.419 143.046 112.794 143.046 112.141V41.676H37.0057Z" fill="white"/>
<path opacity="0.1" d="M69.3661 47.9838H46.7769C46.0148 47.9838 45.397 48.6016 45.397 49.3637V61.483C45.397 62.2452 46.0148 62.863 46.7769 62.863H69.3661C70.1282 62.863 70.746 62.2452 70.746 61.483V49.3637C70.746 48.6016 70.1282 47.9838 69.3661 47.9838Z" fill="black"/>
<path opacity="0.1" d="M101.321 47.9838H78.7319C77.9698 47.9838 77.352 48.6016 77.352 49.3637V61.483C77.352 62.2452 77.9698 62.863 78.7319 62.863H101.321C102.083 62.863 102.701 62.2452 102.701 61.483V49.3637C102.701 48.6016 102.083 47.9838 101.321 47.9838Z" fill="black"/>
<path d="M69.0087 48.1929H47.1326C46.3705 48.1929 45.7527 48.8107 45.7527 49.5728V61.2726C45.7527 62.0347 46.3705 62.6525 47.1326 62.6525H69.0087C69.7708 62.6525 70.3886 62.0347 70.3886 61.2726V49.5728C70.3886 48.8107 69.7708 48.1929 69.0087 48.1929Z" fill="#3A3768"/>
<path opacity="0.1" d="M111.043 62.6525H132.919C133.681 62.6525 134.299 62.0347 134.299 61.2725V49.5727C134.299 48.8106 133.681 48.1928 132.919 48.1928H111.043C110.281 48.1928 109.663 48.8106 109.663 49.5727V61.2725C109.663 62.0347 110.281 62.6525 111.043 62.6525Z" fill="#444053"/>
<path d="M79.0878 62.6525H100.964C101.726 62.6525 102.344 62.0347 102.344 61.2725V49.5727C102.344 48.8106 101.726 48.1928 100.964 48.1928H79.0878C78.3257 48.1928 77.7078 48.8106 77.7078 49.5727V61.2725C77.7078 62.0347 78.3257 62.6525 79.0878 62.6525Z" fill="#3A3768"/>
<path opacity="0.1" d="M69.0087 69.0798H47.1326C46.3705 69.0798 45.7527 69.6976 45.7527 70.4598V82.1596C45.7527 82.9217 46.3705 83.5395 47.1326 83.5395H69.0087C69.7708 83.5395 70.3886 82.9217 70.3886 82.1596V70.4598C70.3886 69.6976 69.7708 69.0798 69.0087 69.0798Z" fill="#444053"/>
<path opacity="0.1" d="M111.043 83.5394H132.919C133.681 83.5394 134.299 82.9216 134.299 82.1595V70.4597C134.299 69.6976 133.681 69.0798 132.919 69.0798H111.043C110.281 69.0798 109.663 69.6976 109.663 70.4597V82.1595C109.663 82.9216 110.281 83.5394 111.043 83.5394Z" fill="#444053"/>
<path opacity="0.1" d="M79.0878 83.5394H100.964C101.726 83.5394 102.344 82.9216 102.344 82.1595V70.4597C102.344 69.6976 101.726 69.0798 100.964 69.0798H79.0878C78.3257 69.0798 77.7078 69.6976 77.7078 70.4597V82.1595C77.7078 82.9216 78.3257 83.5394 79.0878 83.5394Z" fill="#444053"/>
<path opacity="0.1" d="M69.0087 89.9668H47.1326C46.3705 89.9668 45.7527 90.5846 45.7527 91.3467V103.047C45.7527 103.809 46.3705 104.426 47.1326 104.426H69.0087C69.7708 104.426 70.3886 103.809 70.3886 103.047V91.3467C70.3886 90.5846 69.7708 89.9668 69.0087 89.9668Z" fill="#444053"/>
<path opacity="0.1" d="M111.043 104.428H132.919C133.681 104.428 134.299 103.81 134.299 103.048V91.3484C134.299 90.5863 133.681 89.9685 132.919 89.9685H111.043C110.281 89.9685 109.663 90.5863 109.663 91.3484V103.048C109.663 103.81 110.281 104.428 111.043 104.428Z" fill="#444053"/>
<path opacity="0.1" d="M79.0878 104.428H100.964C101.726 104.428 102.344 103.81 102.344 103.048V91.3484C102.344 90.5863 101.726 89.9685 100.964 89.9685H79.0878C78.3257 89.9685 77.7078 90.5863 77.7078 91.3484V103.048C77.7078 103.81 78.3257 104.428 79.0878 104.428Z" fill="#444053"/>
<path d="M37.0057 29.2313V42.0334H143.046V29.2313C143.046 28.9081 142.982 28.5881 142.859 28.2894C142.735 27.9908 142.554 27.7194 142.326 27.4908C142.097 27.2622 141.826 27.0809 141.528 26.9572C141.229 26.8335 140.909 26.7698 140.586 26.7698H39.4656C39.1425 26.7698 38.8225 26.8335 38.5239 26.9572C38.2253 27.0809 37.9541 27.2622 37.7257 27.4908C37.4972 27.7194 37.316 27.9908 37.1925 28.2894C37.069 28.5881 37.0055 28.9081 37.0057 29.2313ZM63.2481 33.0185C62.8597 33.0185 62.48 32.9033 62.1571 32.6875C61.8341 32.4718 61.5824 32.1651 61.4338 31.8062C61.2852 31.4474 61.2463 31.0525 61.3221 30.6716C61.3978 30.2907 61.5849 29.9407 61.8595 29.6661C62.1341 29.3915 62.4841 29.2044 62.865 29.1286C63.2459 29.0529 63.6408 29.0918 63.9996 29.2404C64.3585 29.389 64.6652 29.6407 64.8809 29.9637C65.0967 30.2866 65.2119 30.6663 65.2119 31.0547C65.2119 31.5755 65.005 32.075 64.6367 32.4433C64.2684 32.8116 63.7689 33.0185 63.2481 33.0185ZM116.803 33.0185C116.415 33.0185 116.035 32.9033 115.712 32.6875C115.389 32.4718 115.138 32.1651 114.989 31.8062C114.84 31.4474 114.802 31.0525 114.877 30.6716C114.953 30.2907 115.14 29.9407 115.415 29.6661C115.689 29.3915 116.039 29.2044 116.42 29.1286C116.801 29.0529 117.196 29.0918 117.555 29.2404C117.914 29.389 118.22 29.6407 118.436 29.9637C118.652 30.2866 118.767 30.6663 118.767 31.0547C118.767 31.3129 118.716 31.5685 118.617 31.807C118.518 32.0454 118.374 32.262 118.191 32.4444C118.008 32.6268 117.791 32.7714 117.553 32.8699C117.314 32.9684 117.058 33.0189 116.8 33.0185H116.803Z" fill="#8F68FC"/>
<path opacity="0.1" d="M63.2482 28.7335C62.789 28.7332 62.3401 28.8691 61.9582 29.1239C61.5763 29.3788 61.2785 29.7412 61.1026 30.1653C60.9267 30.5894 60.8805 31.0561 60.9698 31.5065C61.0592 31.9569 61.2802 32.3706 61.6047 32.6954C61.9293 33.0202 62.3429 33.2414 62.7932 33.3311C63.2435 33.4208 63.7102 33.3749 64.1345 33.1993C64.5587 33.0236 64.9213 32.7261 65.1764 32.3444C65.4315 31.9626 65.5677 31.5138 65.5677 31.0547C65.5679 30.7499 65.5081 30.4481 65.3916 30.1665C65.2751 29.8849 65.1043 29.629 64.8889 29.4135C64.6735 29.1979 64.4177 29.0269 64.1362 28.9102C63.8547 28.7936 63.5529 28.7335 63.2482 28.7335ZM63.2482 33.0185C62.8598 33.0185 62.4801 32.9033 62.1571 32.6875C61.8342 32.4717 61.5825 32.165 61.4339 31.8062C61.2852 31.4473 61.2463 31.0525 61.3221 30.6715C61.3979 30.2906 61.5849 29.9407 61.8596 29.666C62.1342 29.3914 62.4841 29.2044 62.8651 29.1286C63.246 29.0528 63.6409 29.0917 63.9997 29.2403C64.3585 29.389 64.6652 29.6407 64.881 29.9636C65.0968 30.2866 65.212 30.6663 65.212 31.0547C65.212 31.5755 65.0051 32.075 64.6368 32.4433C64.2685 32.8115 63.769 33.0185 63.2482 33.0185Z" fill="black"/>
<path opacity="0.1" d="M116.8 28.7335C116.341 28.7335 115.892 28.8697 115.511 29.1247C115.129 29.3798 114.831 29.7423 114.656 30.1664C114.48 30.5905 114.434 31.0572 114.524 31.5075C114.613 31.9577 114.834 32.3713 115.159 32.6959C115.483 33.0206 115.897 33.2416 116.347 33.3312C116.798 33.4208 117.264 33.3748 117.688 33.1991C118.113 33.0234 118.475 32.7259 118.73 32.3442C118.985 31.9625 119.121 31.5137 119.121 31.0547C119.121 30.4391 118.877 29.8487 118.441 29.4134C118.006 28.9781 117.416 28.7335 116.8 28.7335ZM116.8 33.0184C116.412 33.0184 116.032 32.9033 115.709 32.6875C115.386 32.4717 115.134 32.165 114.986 31.8062C114.837 31.4473 114.798 31.0525 114.874 30.6715C114.95 30.2906 115.137 29.9407 115.412 29.666C115.686 29.3914 116.036 29.2044 116.417 29.1286C116.798 29.0528 117.193 29.0917 117.552 29.2403C117.91 29.389 118.217 29.6407 118.433 29.9636C118.649 30.2866 118.764 30.6663 118.764 31.0547C118.764 31.5755 118.557 32.075 118.189 32.4433C117.82 32.8115 117.321 33.0184 116.8 33.0184Z" fill="black"/>
<path opacity="0.1" d="M164.809 69.4291C166.154 69.4291 167.245 68.3385 167.245 66.9931C167.245 65.6478 166.154 64.5571 164.809 64.5571C163.463 64.5571 162.373 65.6478 162.373 66.9931C162.373 68.3385 163.463 69.4291 164.809 69.4291Z" fill="#8F68FC"/>
<path opacity="0.1" d="M173.524 60.2131C175.779 60.2131 177.608 58.3847 177.608 56.1292C177.608 53.8737 175.779 52.0453 173.524 52.0453C171.268 52.0453 169.44 53.8737 169.44 56.1292C169.44 58.3847 171.268 60.2131 173.524 60.2131Z" fill="#8F68FC"/>
<path opacity="0.1" d="M168.117 80.0297C170.373 80.0297 172.201 78.2012 172.201 75.9457C172.201 73.6903 170.373 71.8618 168.117 71.8618C165.862 71.8618 164.033 73.6903 164.033 75.9457C164.033 78.2012 165.862 80.0297 168.117 80.0297Z" fill="#8F68FC"/>
<path opacity="0.1" d="M5.7829 60.9103C8.9767 60.9103 11.5658 58.3212 11.5658 55.1274C11.5658 51.9336 8.9767 49.3445 5.7829 49.3445C2.58909 49.3445 0 51.9336 0 55.1274C0 58.3212 2.58909 60.9103 5.7829 60.9103Z" fill="#8F68FC"/>
<path d="M147.667 118.111C147.304 117.837 146.906 117.614 146.484 117.445C146.451 117.429 146.416 117.42 146.38 117.418C145.506 116.791 144.689 116.087 143.939 115.316C144.099 115.188 144.245 115.064 144.402 114.941C143.445 114.485 142.913 113.44 142.396 112.497C141.03 109.991 139.229 107.747 137.078 105.87C137.025 105.668 136.717 105.711 136.553 105.58C136.499 105.528 136.46 105.464 136.44 105.392C136.419 105.321 136.418 105.245 136.437 105.173C136.462 105.026 136.529 104.891 136.566 104.747C136.653 104.41 136.577 104.056 136.539 103.71C136.5 103.364 136.516 102.978 136.746 102.719C136.819 102.635 136.914 102.569 136.985 102.483C137.061 102.382 137.114 102.266 137.141 102.142C137.169 102.019 137.17 101.891 137.145 101.767C137.127 101.519 137.074 101.274 136.985 101.041C137.767 98.9142 138.548 96.7834 139.329 94.6489C139.876 93.1589 140.428 91.637 140.484 90.0481C140.528 88.7719 140.2 87.4462 139.428 86.4715C139.568 86.438 139.708 86.4029 139.847 86.363C138.935 85.1538 138.836 83.5521 138.812 82.0286C138.799 81.2693 138.773 80.5094 138.734 79.749C138.999 79.8654 139.267 79.9691 139.541 80.0585L139.796 80.1366C140.211 80.258 140.633 80.3486 141.061 80.4078C141.249 80.4349 141.441 80.4557 141.631 80.4684C141.356 79.7814 141.083 79.0933 140.809 78.4041C140.667 78.0992 140.581 77.7712 140.554 77.4358V77.372C140.554 77.3337 140.554 77.2954 140.562 77.2571C140.573 77.1658 140.594 77.0759 140.624 76.9891C140.638 76.9462 140.655 76.9042 140.674 76.8631C140.73 76.7374 140.799 76.6173 140.878 76.5042C140.935 76.4164 140.999 76.3319 141.063 76.2457C141.301 75.9683 141.494 75.6556 141.636 75.3189C141.692 75.1484 141.721 74.9703 141.723 74.7908C141.726 74.6089 141.71 74.4271 141.675 74.2484C141.653 74.1304 141.624 74.0107 141.592 73.8959C141.572 73.8241 141.549 73.7523 141.527 73.6821L141.508 73.6247C141.49 73.5704 141.473 73.5178 141.454 73.4652L141.435 73.4109C141.414 73.3535 141.393 73.2976 141.371 73.2402L141.358 73.2067C141.053 72.4234 140.648 71.6768 140.401 70.8712C140.336 70.6568 140.283 70.439 140.241 70.2188C140.23 70.1629 140.222 70.1055 140.213 70.0497C140.203 69.9938 140.198 69.9539 140.192 69.9061C140.185 69.8582 140.177 69.7944 140.171 69.7386L140.157 69.5791C140.157 69.528 140.149 69.477 140.146 69.4195C140.146 69.3222 140.136 69.2249 140.134 69.1276C140.134 69.0925 140.134 69.059 140.134 69.0239C140.134 68.9505 140.134 68.8755 140.134 68.8021C140.134 68.7623 140.134 68.7224 140.134 68.6841C140.134 68.6107 140.146 68.5373 140.152 68.4655C140.152 68.4304 140.152 68.3953 140.163 68.3618C140.174 68.2555 140.188 68.1491 140.206 68.0428C140.222 67.9487 140.24 67.853 140.259 67.7572C140.317 67.4952 140.347 67.2279 140.348 66.9596C140.348 66.9085 140.348 66.8559 140.337 66.8001C140.326 66.7442 140.324 66.7139 140.316 66.6724C140.315 66.6597 140.315 66.6469 140.316 66.6342C140.316 66.6054 140.302 66.5767 140.296 66.548C140.289 66.5193 140.288 66.5209 140.283 66.5081C140.278 66.4954 140.265 66.4523 140.256 66.4252C140.246 66.3981 140.248 66.4012 140.243 66.3885C140.238 66.3757 140.221 66.3311 140.208 66.3039L140.197 66.2752C140.181 66.2401 140.163 66.2066 140.146 66.1731C140.084 66.0567 140.012 65.9457 139.932 65.8413C139.407 65.1521 138.534 64.6273 138.054 63.8679C137.774 63.3758 137.591 62.8341 137.517 62.2727C137.493 62.145 137.472 62.0174 137.45 61.8914C137.427 61.7654 137.408 61.6409 137.386 61.5165C137.371 61.4399 137.357 61.357 137.341 61.2868L137.331 61.2373C137.319 61.1767 137.306 61.1145 137.292 61.0539L137.282 61.0108C137.268 60.947 137.253 60.8832 137.237 60.8194L137.228 60.7859C137.212 60.7189 137.194 60.6518 137.177 60.5848C137.176 60.5769 137.176 60.5689 137.177 60.5609C137.158 60.4907 137.137 60.4205 137.116 60.3503V60.336C137.094 60.2626 137.071 60.1908 137.048 60.119C137.024 60.0456 136.998 59.9707 136.971 59.8973C136.942 59.8223 136.915 59.7473 136.885 59.6739C136.684 59.16 136.412 58.6767 136.078 58.2382C135.347 57.3002 134.217 56.627 133.047 56.6716C132.418 56.6955 131.815 56.9157 131.223 57.1343L129.687 57.7006L130.116 57.5028C129.669 57.5426 129.213 57.5841 128.809 57.7819C128.406 57.9798 128.064 58.3674 128.052 58.8205C128.044 59.0837 128.147 59.3453 128.114 59.6069C128.058 60.0393 127.661 60.3328 127.455 60.7157C127.334 60.9463 127.279 61.2056 127.296 61.4654V61.4782C127.296 61.5085 127.296 61.5372 127.296 61.5675C127.295 61.576 127.295 61.5846 127.296 61.5931V61.6441C126.657 61.3665 126.019 61.0778 125.381 60.7683C124.327 60.2498 123.259 59.6404 122.602 58.6577C122.392 58.3387 122.229 57.9941 122.02 57.6782C121.78 57.3383 121.513 57.0182 121.222 56.7211L119.265 54.6025C119.115 54.8849 119.308 55.2183 119.46 55.4991C119.62 55.7936 119.742 56.1079 119.822 56.4339C119.86 56.5402 119.857 56.6571 119.812 56.761C119.741 56.8465 119.648 56.912 119.544 56.9508C119.365 57.0633 119.229 57.2318 119.156 57.4301C119.083 57.6283 119.077 57.8451 119.14 58.0468C119.21 58.2453 119.33 58.4223 119.488 58.5605C119.647 58.6987 119.839 58.7932 120.045 58.8348C120.183 58.8506 120.319 58.8838 120.449 58.9337C120.685 59.0502 120.796 59.3214 120.965 59.524C121.273 59.8941 121.763 60.0329 122.231 60.1541C122.955 60.9901 123.708 61.7909 124.432 62.6268C125.528 63.8919 126.649 65.1793 128.079 66.0343C128.227 66.1237 128.379 66.2066 128.532 66.2832C128.532 66.3087 128.532 66.3342 128.524 66.3598C128.484 66.5483 128.508 66.7449 128.593 66.9181C128.72 67.1207 128.983 67.1813 129.218 67.2228L130.299 67.4158C130.29 67.5561 130.272 67.6956 130.247 67.8338C130.232 67.9184 130.215 68.0013 130.199 68.0859L130.18 68.1943C130.18 68.1943 130.18 68.2055 130.18 68.2103C130.18 68.2151 130.18 68.2677 130.169 68.298C130.157 68.3283 130.169 68.3188 130.169 68.3283V68.4049V68.4368C130.169 68.4703 130.169 68.5054 130.169 68.5405C130.205 68.9649 130.488 69.3158 130.77 69.6397L130.922 69.8231C130.681 70.1259 130.513 70.4794 130.429 70.8569C130.381 71.0936 130.357 71.3347 130.358 71.5763C130.214 71.7143 130.104 71.885 130.039 72.0741C129.964 72.3355 129.936 72.6083 129.956 72.8797V72.8988C129.956 72.9993 129.956 73.0982 129.956 73.1987C129.938 73.5799 130.001 73.9606 130.142 74.3154C130.156 74.3442 130.172 74.3697 130.186 74.3968C129.947 74.8658 129.548 75.2311 129.263 75.673C128.974 76.1636 128.843 76.7313 128.889 77.2988C128.934 77.8663 129.153 78.406 129.516 78.8444C129.735 79.0965 130.016 79.339 130.041 79.674C130.037 79.8259 130.022 79.9773 129.996 80.1271C129.971 80.4876 130.137 80.829 130.226 81.1783C130.301 81.4687 130.304 81.8165 130.138 82.0494C129.971 82.2941 129.893 82.5897 129.92 82.8853C130.001 83.3368 129.815 83.7882 129.783 84.2461C129.768 84.4423 129.783 84.6417 129.765 84.8379C129.742 85.0259 129.703 85.2117 129.649 85.3931C129.649 85.4122 129.639 85.433 129.633 85.4537C129.239 85.6276 128.848 85.8079 128.471 86.0168C128.268 86.1074 128.1 86.2621 127.993 86.4571C127.929 86.6531 127.92 86.8627 127.967 87.0633L128.307 89.4276L128.248 89.402C128.275 89.7891 128.302 90.1779 128.331 90.5682C128.352 90.8633 128.379 91.176 128.554 91.4121C128.644 91.5074 128.724 91.6104 128.795 91.72C128.929 91.9912 128.77 92.307 128.652 92.5846C128.533 92.8622 128.492 93.2562 128.752 93.4062C128.888 93.5005 129.034 93.5787 129.188 93.6391C128.869 94.9696 129.162 96.3638 129.459 97.6991C129.685 98.7201 129.912 99.74 130.14 100.759C130.229 101.192 130.279 101.632 130.29 102.073C130.29 102.137 130.29 102.201 130.29 102.265C130.322 102.872 130.429 103.474 130.609 104.055C130.963 105.248 130.623 106.681 130.735 107.981C130.809 108.606 130.934 109.224 131.108 109.83C131.879 112.886 132.566 115.882 132.831 119.025C133.114 119.386 133.499 119.654 133.935 119.795C133.903 120.181 133.946 120.623 133.935 120.848C133.935 121.034 133.906 121.22 133.849 121.397C133.713 121.751 133.37 121.982 133.015 122.107C132.903 122.145 132.79 122.176 132.675 122.203L132.802 122.094C132.073 121.936 131.311 122.07 130.679 122.467C130.58 122.518 130.492 122.588 130.42 122.673C130.348 122.758 130.293 122.856 130.26 122.962C130.233 123.165 130.286 123.37 130.406 123.535C130.758 124.049 131.281 124.421 131.882 124.583C132.476 124.739 133.086 124.824 133.701 124.836L134.827 124.902C134.789 124.966 134.775 125.042 134.788 125.116C134.802 125.189 134.842 125.256 134.9 125.302C135.021 125.39 135.164 125.442 135.313 125.452C135.774 125.521 136.241 125.527 136.703 125.473C136.819 125.47 136.931 125.429 137.022 125.358C137.043 125.339 137.06 125.315 137.072 125.289C137.083 125.263 137.089 125.234 137.089 125.206C137.089 125.177 137.083 125.149 137.072 125.122C137.06 125.096 137.043 125.073 137.022 125.053C137.09 125.051 137.155 125.029 137.21 124.989C137.264 124.949 137.306 124.894 137.328 124.83C137.372 124.7 137.387 124.562 137.37 124.426C137.339 123.902 137.293 123.139 137.02 122.672C136.973 122.587 136.899 122.519 136.81 122.48C136.721 122.441 136.622 122.432 136.527 122.455C136.351 121.521 136.244 120.575 136.208 119.625C136.489 119.519 136.763 119.396 137.028 119.255C136.245 117.989 136.231 116.383 136.47 114.912C136.565 114.448 136.635 113.979 136.679 113.507C136.732 112.566 136.59 111.5 136.068 110.721C137.019 111.326 137.86 112.088 138.557 112.974C139.659 114.41 140.331 116.149 141.682 117.345C141.859 117.172 142.039 116.999 142.221 116.828C142.506 117.311 142.776 117.804 143.03 118.307C143.229 118.677 143.387 119.068 143.499 119.473C143.623 120.093 143.638 120.729 143.542 121.354C143.505 121.686 143.459 122.016 143.406 122.345C143.385 122.485 143.352 122.624 143.309 122.759C143.308 122.716 143.298 122.674 143.279 122.635C143.194 122.487 142.96 122.554 142.832 122.656C142.605 122.826 142.417 123.044 142.282 123.294C142.207 123.416 142.173 123.558 142.183 123.701C142.203 123.786 142.243 123.867 142.298 123.936C142.353 124.004 142.423 124.06 142.502 124.099C143.094 124.446 143.837 124.195 144.472 123.94C144.647 123.877 144.814 123.793 144.97 123.689C145.289 123.46 145.463 123.082 145.78 122.858C145.95 122.765 146.113 122.662 146.27 122.549C146.565 122.279 146.589 121.825 146.804 121.483C147.162 120.894 147.961 120.743 148.274 120.119C148.636 119.43 148.213 118.561 147.667 118.111Z" fill="url(#paint0_linear)"/>
<path d="M133.914 120.918C133.913 121.103 133.884 121.286 133.827 121.461C133.693 121.81 133.348 122.038 132.994 122.161C132.64 122.284 132.263 122.321 131.903 122.428C131.744 122.464 131.598 122.539 131.477 122.648C131.158 122.967 131.349 123.541 131.722 123.779C132.096 124.016 132.571 124.008 133.015 123.978C133.956 123.923 134.891 123.791 135.81 123.581C136.141 123.503 136.529 123.35 136.582 123.013C136.592 122.906 136.583 122.798 136.556 122.694C136.33 121.552 136.21 120.392 136.197 119.227C136.197 119.151 134.347 119.101 134.174 119.213C133.788 119.467 133.935 120.526 133.914 120.918Z" fill="#A1616A"/>
<path d="M142.165 116.855C142.471 117.363 142.759 117.88 143.028 118.408C143.228 118.772 143.385 119.158 143.497 119.558C143.621 120.169 143.635 120.797 143.54 121.413C143.503 121.74 143.457 122.066 143.403 122.391C143.35 122.71 143.266 123.072 142.993 123.256C143.115 123.328 143.251 123.372 143.392 123.384C143.533 123.396 143.674 123.377 143.807 123.327C144.07 123.226 144.313 123.077 144.523 122.889C145.89 121.761 146.916 120.122 146.967 118.35C146.981 118.212 146.955 118.072 146.892 117.948C146.828 117.861 146.746 117.789 146.653 117.734C145.633 117.04 144.685 116.244 143.824 115.359C143.774 115.291 143.7 115.244 143.617 115.227C143.552 115.227 143.488 115.245 143.432 115.279C142.907 115.542 142.03 115.917 141.811 116.516C141.96 116.591 142.084 116.709 142.165 116.855Z" fill="#A1616A"/>
<path d="M135.784 122.771C134.635 123.249 133.391 123.422 132.148 123.586C131.989 123.605 131.818 123.618 131.713 123.506C131.671 123.454 131.646 123.39 131.641 123.324C131.636 123.257 131.651 123.191 131.684 123.133C131.752 123.018 131.843 122.918 131.951 122.839L132.775 122.148C132.056 121.996 131.306 122.125 130.679 122.509C130.482 122.607 130.332 122.779 130.261 122.988C130.235 123.188 130.287 123.391 130.408 123.554C130.761 124.063 131.283 124.429 131.882 124.588C132.476 124.742 133.086 124.826 133.699 124.838L134.816 124.902C134.777 124.966 134.764 125.041 134.777 125.114C134.791 125.187 134.832 125.252 134.891 125.298C135.012 125.386 135.156 125.439 135.305 125.449C135.765 125.516 136.232 125.523 136.693 125.468C136.809 125.466 136.921 125.427 137.012 125.355C137.033 125.336 137.05 125.313 137.062 125.287C137.074 125.261 137.08 125.233 137.08 125.205C137.08 125.177 137.074 125.149 137.062 125.123C137.05 125.097 137.033 125.074 137.012 125.055C137.08 125.053 137.145 125.031 137.2 124.991C137.254 124.952 137.296 124.897 137.319 124.833C137.361 124.706 137.375 124.57 137.36 124.436C137.33 123.919 137.284 123.16 137.011 122.708C136.738 122.257 136.17 122.611 135.784 122.771Z" fill="#3F3D56"/>
<path d="M147.639 118.21C147.275 117.94 146.877 117.719 146.455 117.554C146.438 117.541 146.419 117.532 146.398 117.528C146.377 117.524 146.355 117.524 146.335 117.529C146.314 117.534 146.295 117.544 146.279 117.558C146.263 117.572 146.25 117.589 146.241 117.608C145.488 118.631 144.899 119.765 144.498 120.969C144.269 121.655 144.089 122.386 143.627 122.941C143.566 123.015 143.467 123.09 143.384 123.047C143.264 122.986 143.338 122.793 143.271 122.676C143.188 122.53 142.961 122.597 142.826 122.697C142.598 122.867 142.41 123.084 142.277 123.335C142.201 123.454 142.166 123.595 142.178 123.736C142.198 123.82 142.236 123.899 142.29 123.967C142.344 124.034 142.412 124.089 142.489 124.128C143.081 124.471 143.824 124.224 144.458 123.969C144.633 123.907 144.799 123.824 144.954 123.721C145.273 123.496 145.447 123.121 145.764 122.903C145.934 122.811 146.097 122.709 146.254 122.597C146.547 122.33 146.573 121.882 146.787 121.544C147.144 120.965 147.943 120.815 148.256 120.199C148.605 119.511 148.184 118.653 147.639 118.21Z" fill="#3F3D56"/>
<path d="M138.735 86.3439C139.989 87.2851 140.516 88.9586 140.46 90.5252C140.404 92.0917 139.854 93.5945 139.308 95.0637C138.526 97.1663 137.746 99.2684 136.966 101.37C137.053 101.6 137.107 101.842 137.126 102.088C137.15 102.21 137.149 102.336 137.121 102.457C137.094 102.579 137.041 102.693 136.966 102.793C136.893 102.877 136.807 102.943 136.727 103.026C136.497 103.281 136.483 103.664 136.519 104.004C136.556 104.343 136.634 104.694 136.547 105.026C136.51 105.168 136.443 105.302 136.417 105.446C136.4 105.517 136.401 105.592 136.421 105.663C136.442 105.733 136.481 105.797 136.534 105.848C136.693 105.975 137.012 105.934 137.059 106.135C139.204 107.983 141.003 110.197 142.371 112.676C142.888 113.606 143.409 114.636 144.375 115.086C143.434 115.831 142.533 116.624 141.674 117.461C140.326 116.281 139.654 114.563 138.553 113.154C137.857 112.278 137.016 111.527 136.068 110.932C136.59 111.699 136.732 112.752 136.679 113.679C136.635 114.145 136.565 114.607 136.47 115.065C136.223 116.517 136.245 118.096 137.028 119.35C136.192 119.784 135.232 120.106 134.299 119.977C133.713 119.894 133.181 119.59 132.812 119.129C132.547 116.027 131.855 113.066 131.091 110.056C130.916 109.456 130.791 108.841 130.719 108.22C130.607 106.944 130.947 105.524 130.591 104.347C130.412 103.774 130.305 103.181 130.272 102.582C130.272 102.518 130.272 102.456 130.272 102.392C130.261 101.957 130.211 101.523 130.122 101.097L129.443 98.0788C129.146 96.7595 128.849 95.3844 129.17 94.0715C129.017 94.0124 128.871 93.9358 128.736 93.8433C128.476 93.695 128.517 93.3073 128.636 93.0329C128.754 92.7586 128.912 92.4475 128.779 92.1795C128.708 92.0706 128.628 91.9686 128.538 91.8748C128.363 91.6419 128.336 91.334 128.315 91.0436L128.232 89.8918C128.714 90.0828 129.115 90.4337 129.368 90.8857C128.739 89.9126 129.049 88.5247 129.513 87.4622C129.599 87.1368 129.788 86.848 130.052 86.6389C130.316 86.4299 130.641 86.3119 130.977 86.3024C133.535 85.8653 136.658 84.7821 138.735 86.3439Z" fill="#3F3D56"/>
<path opacity="0.1" d="M137.569 92.894C137.569 92.894 136.312 93.7332 136.312 94.3617C136.312 94.9902 135.993 100.647 135.993 100.647V104.635C135.993 104.635 136.202 106.732 135.993 107.255C135.784 107.778 135.993 110.189 135.993 110.503C135.993 110.817 136.312 107.255 136.312 107.255V103.477L136.631 94.885L137.569 92.894Z" fill="black"/>
<path d="M130.558 63.8376L129.826 63.552C128.329 62.9522 126.831 62.3508 125.383 61.6473C124.33 61.1352 123.263 60.5306 122.607 59.5654C122.396 59.2464 122.234 58.9114 122.025 58.5971C121.785 58.2609 121.518 57.9446 121.227 57.6511L119.271 55.5613C119.121 55.8405 119.313 56.1691 119.466 56.4451C119.626 56.7359 119.748 57.0464 119.828 57.3687C119.866 57.4725 119.862 57.5869 119.817 57.6878C119.746 57.7732 119.654 57.8382 119.55 57.876C119.372 57.9852 119.236 58.1509 119.163 58.3466C119.09 58.5423 119.084 58.7568 119.147 58.956C119.217 59.153 119.337 59.3283 119.495 59.4648C119.654 59.6013 119.845 59.6943 120.05 59.7345C120.188 59.7505 120.323 59.7832 120.453 59.8318C120.689 59.9483 120.801 60.2147 120.97 60.4141C121.278 60.7794 121.768 60.9182 122.234 61.0363C122.958 61.8611 123.709 62.6507 124.434 63.4755C125.528 64.723 126.648 65.9928 128.077 66.8383C128.585 67.1486 129.141 67.3718 129.722 67.4988C129.914 66.2602 130.193 65.0368 130.558 63.8376Z" fill="#A1616A"/>
<path opacity="0.15" d="M130.558 63.8376L129.826 63.552C128.329 62.9522 126.831 62.3508 125.383 61.6473C124.33 61.1352 123.263 60.5306 122.607 59.5654C122.396 59.2464 122.234 58.9114 122.025 58.5971C121.785 58.2609 121.518 57.9446 121.227 57.6511L119.271 55.5613C119.121 55.8405 119.313 56.1691 119.466 56.4451C119.626 56.7359 119.748 57.0464 119.828 57.3687C119.866 57.4725 119.862 57.5869 119.817 57.6878C119.746 57.7732 119.654 57.8382 119.55 57.876C119.372 57.9852 119.236 58.1509 119.163 58.3466C119.09 58.5423 119.084 58.7568 119.147 58.956C119.217 59.153 119.337 59.3283 119.495 59.4648C119.654 59.6013 119.845 59.6943 120.05 59.7345C120.188 59.7505 120.323 59.7832 120.453 59.8318C120.689 59.9483 120.801 60.2147 120.97 60.4141C121.278 60.7794 121.768 60.9182 122.234 61.0363C122.958 61.8611 123.709 62.6507 124.434 63.4755C125.528 64.723 126.648 65.9928 128.077 66.8383C128.585 67.1486 129.141 67.3718 129.722 67.4988C129.914 66.2602 130.193 65.0368 130.558 63.8376Z" fill="black"/>
<path d="M129.218 68.0029C128.983 67.9615 128.72 67.904 128.593 67.703C128.508 67.5326 128.484 67.3386 128.524 67.1527C128.651 65.9503 128.919 64.767 129.322 63.6271C129.677 64.2859 130.378 64.6704 131.041 65.0166C131.634 65.3459 132.251 65.6276 132.889 65.8589C132.729 65.8078 132.338 68.2614 132.118 68.4113C131.841 68.6059 131.171 68.3427 130.863 68.2901L129.218 68.0029Z" fill="#05D2DD"/>
<path d="M130.917 67.2786C132.769 67.2786 134.27 65.7773 134.27 63.9253C134.27 62.0733 132.769 60.572 130.917 60.572C129.065 60.572 127.564 62.0733 127.564 63.9253C127.564 65.7773 129.065 67.2786 130.917 67.2786Z" fill="#A1616A"/>
<path d="M130.236 66.7012C130.236 66.7012 132.436 68.5868 131.493 69.8439C130.55 71.101 130.025 71.9401 131.282 72.0454C132.539 72.1507 136.73 69.9492 136.73 69.9492C136.73 69.9492 132.854 66.8065 133.482 64.9209C134.111 63.0352 130.236 66.7012 130.236 66.7012Z" fill="#FBBEBE"/>
<path d="M132.346 69.6524C131.877 69.7651 131.449 70.0059 131.109 70.3478C130.769 70.6898 130.531 71.1196 130.421 71.5891C130.173 72.7186 130.698 73.982 130.204 75.0222C129.971 75.5167 129.539 75.8868 129.247 76.351C128.959 76.8343 128.829 77.3949 128.874 77.9554C128.919 78.5158 129.138 79.0484 129.499 79.4794C129.717 79.7282 129.998 79.9691 130.024 80.2977C130.02 80.4475 130.005 80.5969 129.979 80.7444C129.953 81.1002 130.119 81.4384 130.209 81.783C130.284 82.0685 130.287 82.4115 130.121 82.6412C129.954 82.8819 129.877 83.1741 129.904 83.466C129.984 83.9127 129.797 84.3577 129.765 84.8092C129.751 85.0038 129.765 85.1985 129.748 85.3931C129.724 85.5783 129.686 85.7613 129.633 85.9403L129.352 86.9756C130.874 87.6265 132.491 87.861 134.138 87.8307C135.612 87.802 137.065 87.4973 138.507 87.1926C138.946 87.1 139.385 87.0075 139.817 86.8879C138.904 85.6946 138.807 84.1137 138.782 82.6125C138.742 80.1097 138.555 77.6115 138.222 75.1306C138.664 74.2963 138.86 73.3662 139.042 72.4394C139.123 72.066 139.158 71.6839 139.144 71.302C139.099 70.5043 138.732 69.7466 138.373 69.0239C138.045 68.3634 137.689 67.6679 136.957 67.3823C136.78 67.3079 136.587 67.2797 136.396 67.3007C136.206 67.3216 136.023 67.3909 135.867 67.502C135.313 67.92 135.478 68.641 135.336 69.2568C135.149 70.0544 134.414 70.6272 133.63 70.8521C133.046 71.0053 132.44 71.0619 131.837 71.0196C131.778 71.0162 131.721 70.9965 131.673 70.9626C131.624 70.9288 131.586 70.8821 131.563 70.8278C131.539 70.7735 131.531 70.7138 131.54 70.6553C131.548 70.5967 131.573 70.5417 131.611 70.4963C131.868 70.2124 132.126 69.9236 132.346 69.6524Z" fill="#05D2DD"/>
<path d="M134.943 82.6141C133.702 83.6287 132.447 84.6529 131.014 85.3708C130.173 85.7919 129.28 86.103 128.462 86.5561C128.259 86.645 128.091 86.7973 127.983 86.99C127.918 87.1829 127.909 87.3904 127.958 87.5882L128.321 90.096C128.422 90.7756 129.074 91.2127 129.598 91.6466C129.569 91.4185 129.523 91.2414 129.631 91.0388C129.669 90.9755 129.71 90.9143 129.754 90.8554C129.977 90.5172 129.985 90.0785 129.931 89.6765C129.877 89.2744 129.771 88.8788 129.792 88.4672C129.788 88.3991 129.801 88.331 129.831 88.2695C129.86 88.208 129.905 88.1552 129.961 88.1163C131.743 87.2596 133.662 86.6023 135.463 85.7888C135.94 85.5961 136.389 85.3413 136.799 85.031C137.21 84.7152 137.487 84.2552 137.574 83.7436C137.582 83.7104 137.584 83.6759 137.578 83.6422C137.573 83.6085 137.56 83.5762 137.542 83.5474C137.506 83.5078 137.459 83.4799 137.406 83.4676C136.599 83.1741 135.747 82.9045 134.943 82.6141Z" fill="#A1616A"/>
<path opacity="0.1" d="M131.496 72.0916C130.88 72.1953 130.232 72.5144 130.024 73.1046C129.948 73.3634 129.92 73.6335 129.941 73.9023C129.921 74.28 129.985 74.6573 130.127 75.0078C130.232 75.2012 130.357 75.383 130.5 75.5502C131.975 77.439 132.715 79.8112 134.151 81.7303C134.278 81.8994 134.511 82.1196 134.439 82.319C134.413 82.3707 134.39 82.424 134.371 82.4785C134.364 82.5301 134.37 82.5825 134.389 82.6311C134.407 82.6798 134.437 82.7232 134.476 82.7577C134.552 82.8279 134.612 82.9146 134.65 83.0113C134.677 83.1118 134.61 83.2426 134.506 83.2347C134.679 83.7675 135.207 84.0786 135.707 84.3306C136.54 84.7502 137.462 85.0804 138.389 84.9895C138.563 84.2923 138.806 83.5043 138.708 82.7944C138.606 82.2522 138.426 81.7278 138.174 81.2374L137.55 79.875C137.019 78.712 136.483 77.5411 135.743 76.4994C135.476 76.1696 135.251 75.8079 135.074 75.4226C134.884 74.9296 134.363 74.5834 134.047 74.1607C133.578 73.5226 133.09 72.8845 132.461 72.4234C132.209 72.2288 131.804 72.0406 131.496 72.0916Z" fill="black"/>
<path d="M131.496 71.7774C130.88 71.8811 130.232 72.2002 130.023 72.7888C129.949 73.0476 129.92 73.3178 129.941 73.5865C129.921 73.9642 129.985 74.3415 130.127 74.692C130.232 74.8854 130.357 75.0672 130.5 75.2344C131.975 77.1232 132.715 79.4954 134.15 81.4145C134.278 81.5836 134.511 81.8037 134.439 82.0032C134.413 82.0549 134.39 82.1082 134.371 82.1627C134.364 82.2143 134.37 82.2667 134.389 82.3153C134.407 82.364 134.437 82.4074 134.476 82.4419C134.552 82.512 134.612 82.5988 134.65 82.6955C134.677 82.796 134.61 82.9268 134.506 82.9189C134.679 83.4517 135.207 83.7628 135.707 84.0148C136.54 84.4344 137.462 84.7646 138.389 84.6737C138.563 83.9765 138.806 83.1885 138.708 82.4786C138.606 81.9364 138.426 81.412 138.174 80.9216L137.55 79.5592C137.019 78.3962 136.483 77.2253 135.743 76.1836C135.476 75.8534 135.251 75.4911 135.074 75.1052C134.884 74.6138 134.363 74.2676 134.047 73.8449C133.578 73.2068 133.09 72.5687 132.461 72.1076C132.209 71.9146 131.804 71.7263 131.496 71.7774Z" fill="#05D2DD"/>
<path d="M130.09 58.4169C129.645 58.4552 129.188 58.4967 128.786 58.6913C128.384 58.8859 128.041 59.2688 128.028 59.7155C128.028 59.9755 128.124 60.234 128.09 60.4908C128.034 60.9183 127.637 61.2071 127.433 61.5852C127.075 62.2424 127.353 63.0784 127.816 63.659C128.278 64.2397 128.905 64.6864 129.381 65.2639C129.756 65.7256 130.027 66.2626 130.176 66.8385C130.325 67.4143 130.349 68.0155 130.245 68.6012C130.186 68.8288 130.158 69.0633 130.161 69.2984C130.197 69.7163 130.48 70.0625 130.761 70.3816C132.126 71.9787 133.39 73.6602 134.545 75.4163C134.891 75.9263 135.202 76.4593 135.476 77.0115C135.747 77.5827 135.955 78.1921 136.331 78.6978C136.679 79.132 137.105 79.4972 137.587 79.7746C138.803 80.5245 140.182 80.9694 141.607 81.0715L140.785 79.0344C140.64 78.6722 140.49 78.291 140.538 77.9033C140.629 77.1695 141.369 76.6877 141.61 75.989C141.77 75.5391 141.698 75.043 141.567 74.5851C141.277 73.553 140.696 72.6245 140.383 71.5988C140.109 70.6993 140.048 69.7485 140.205 68.8214C140.273 68.413 140.385 68.003 140.334 67.593C140.182 66.3455 138.719 65.7489 138.043 64.6912C137.606 64.0116 137.521 63.1741 137.375 62.3796C137.162 61.2198 136.784 60.0617 136.054 59.1364C135.323 58.2111 134.197 57.5411 133.023 57.5906C132.394 57.6145 131.793 57.8331 131.201 58.0468L129.663 58.6068" fill="#3F3D56"/>
<g opacity="0.1">
<path opacity="0.1" d="M136.955 61.0221C137.087 61.7384 137.17 62.4898 137.505 63.1295C137.459 62.8806 137.421 62.6301 137.375 62.3845C137.266 61.7591 137.094 61.1465 136.861 60.5563C136.901 60.711 136.928 60.8658 136.955 61.0221Z" fill="black"/>
<path opacity="0.1" d="M139.785 67.4638C139.629 68.3915 139.69 69.3427 139.964 70.2428C140.039 70.4869 140.123 70.7214 140.225 70.9607C140.092 70.256 140.085 69.5333 140.204 68.8262C140.273 68.4178 140.385 68.0078 140.334 67.5978C140.287 67.2465 140.143 66.9151 139.919 66.6406C139.895 66.9182 139.831 67.191 139.785 67.4638Z" fill="black"/>
<path opacity="0.1" d="M141.567 74.5898C141.478 74.2901 141.372 73.996 141.248 73.7092C141.301 74.017 141.281 74.3332 141.187 74.6313C140.946 75.3284 140.204 75.8118 140.115 76.5456C140.067 76.9333 140.216 77.3146 140.362 77.6767C140.417 77.8123 140.471 77.9495 140.522 78.0851C140.518 78.0261 140.518 77.967 140.522 77.908C140.613 77.1742 141.353 76.6924 141.594 75.9937C141.766 75.5438 141.698 75.0477 141.567 74.5898Z" fill="black"/>
<path opacity="0.1" d="M137.169 78.417C136.687 78.1389 136.261 77.7731 135.913 77.3386C135.535 76.8329 135.328 76.2219 135.057 75.6524C134.783 75.0999 134.472 74.5669 134.125 74.0571C132.971 72.3007 131.708 70.6186 130.342 69.0208C130.293 68.965 130.245 68.9075 130.197 68.8501C130.164 68.9976 130.152 69.149 130.161 69.3C130.197 69.7179 130.48 70.0641 130.76 70.3832C132.126 71.9803 133.39 73.6618 134.544 75.4179C134.891 75.9279 135.202 76.4609 135.476 77.0132C135.747 77.5843 135.955 78.1937 136.331 78.6994C136.679 79.1336 137.105 79.4988 137.587 79.7762C138.803 80.5261 140.182 80.971 141.607 81.0732L141.048 79.7012C139.673 79.5807 138.344 79.141 137.169 78.417Z" fill="black"/>
<path opacity="0.1" d="M128.961 63.9079C128.482 63.3304 127.859 62.8917 127.396 62.3046C127.354 62.2504 127.315 62.1945 127.275 62.1355C127.265 62.6939 127.457 63.237 127.815 63.6654C128.278 64.254 128.905 64.6927 129.38 65.2702C129.566 65.4945 129.727 65.7385 129.859 65.9977C129.76 65.231 129.449 64.5072 128.961 63.9079Z" fill="black"/>
</g>
<path d="M66.6892 47.5323L65.5326 46.3693C65.4755 46.3117 65.4076 46.2659 65.3327 46.2347C65.2578 46.2035 65.1774 46.1874 65.0963 46.1874C65.0152 46.1874 64.9348 46.2035 64.8599 46.2347C64.7851 46.2659 64.7171 46.3117 64.66 46.3693L57.3967 53.5656L54.3242 50.4708C54.2093 50.3559 54.0535 50.2914 53.891 50.2914C53.7286 50.2914 53.5728 50.3559 53.4579 50.4708L52.2886 51.6273C52.1737 51.7435 52.1093 51.9003 52.1093 52.0637C52.1093 52.227 52.1737 52.3838 52.2886 52.5L56.9548 57.2013C57.0707 57.316 57.2272 57.3804 57.3903 57.3804C57.5534 57.3804 57.7099 57.316 57.8258 57.2013L66.6892 48.4049C66.7468 48.3478 66.7926 48.2798 66.8238 48.2049C66.855 48.13 66.8711 48.0497 66.8711 47.9686C66.8711 47.8874 66.855 47.8071 66.8238 47.7322C66.7926 47.6573 66.7468 47.5894 66.6892 47.5323Z" fill="#05D2DD"/>
<path d="M98.7543 47.5323L97.5978 46.3693C97.5407 46.3117 97.4727 46.2659 97.3978 46.2347C97.3229 46.2035 97.2426 46.1874 97.1615 46.1874C97.0803 46.1874 97 46.2035 96.9251 46.2347C96.8502 46.2659 96.7822 46.3117 96.7251 46.3693L89.4618 53.5656L86.3893 50.4708C86.2744 50.3559 86.1186 50.2914 85.9562 50.2914C85.7938 50.2914 85.638 50.3559 85.5231 50.4708L84.3537 51.6273C84.2389 51.7435 84.1745 51.9003 84.1745 52.0637C84.1745 52.227 84.2389 52.3838 84.3537 52.5L89.0199 57.2013C89.1358 57.316 89.2923 57.3804 89.4554 57.3804C89.6186 57.3804 89.7751 57.316 89.891 57.2013L98.7543 48.4049C98.812 48.3478 98.8577 48.2798 98.889 48.2049C98.9202 48.13 98.9363 48.0497 98.9363 47.9686C98.9363 47.8874 98.9202 47.8071 98.889 47.7322C98.8577 47.6573 98.812 47.5894 98.7543 47.5323Z" fill="#05D2DD"/>
<defs>
<linearGradient id="paint0_linear" x1="133.761" y1="125.508" x2="133.761" y2="54.5993" gradientUnits="userSpaceOnUse">
<stop stop-color="#808080" stop-opacity="0.25"/>
<stop offset="0.54" stop-color="#808080" stop-opacity="0.12"/>
<stop offset="1" stop-color="#808080" stop-opacity="0.1"/>
</linearGradient>
</defs>
</svg>
