<svg width="30" height="30" viewBox="0 0 30 30" fill="none" xmlns="http://www.w3.org/2000/svg">
<circle opacity="0.2" cx="15" cy="15" r="15" fill="#8F68FC"/>
<path d="M15.3909 9.54988C15.6576 9.54988 15.8816 9.64588 16.0629 9.83788C16.2443 10.0192 16.3349 10.2485 16.3349 10.5259V19.7739C16.3349 20.0512 16.2336 20.2859 16.0309 20.4779C15.8283 20.6592 15.5776 20.7499 15.2789 20.7499C14.9803 20.7499 14.7349 20.6592 14.5429 20.4779C14.3509 20.2859 14.2549 20.0512 14.2549 19.7739V12.1899L13.2629 12.7979C13.1029 12.8939 12.9323 12.9419 12.7509 12.9419C12.4843 12.9419 12.2549 12.8405 12.0629 12.6379C11.8816 12.4352 11.7909 12.2112 11.7909 11.9659C11.7909 11.7952 11.8336 11.6352 11.9189 11.4859C12.0149 11.3365 12.1376 11.2192 12.2869 11.1339L14.7029 9.69388C14.8843 9.59788 15.1136 9.54988 15.3909 9.54988Z" fill="#8F68FC"/>
</svg>
