<svg width="30" height="30" viewBox="0 0 30 30" fill="none" xmlns="http://www.w3.org/2000/svg">
<circle opacity="0.2" cx="15" cy="15" r="15" fill="#8F68FC"/>
<path d="M17.5359 18.9899C17.7919 18.9899 18.0053 19.0752 18.1759 19.2459C18.3466 19.4165 18.4319 19.6299 18.4319 19.8859C18.4319 20.1312 18.3466 20.3392 18.1759 20.5099C18.0053 20.6699 17.7919 20.7499 17.5359 20.7499H12.0959C11.8186 20.7499 11.5999 20.6645 11.4399 20.4939C11.2799 20.3232 11.1999 20.1045 11.1999 19.8379C11.1999 19.5712 11.2959 19.3365 11.4879 19.1339L14.9759 15.4059C15.3706 14.9792 15.6799 14.5525 15.9039 14.1259C16.1386 13.6885 16.2559 13.2885 16.2559 12.9259C16.2559 12.4459 16.0853 12.0299 15.7439 11.6779C15.4026 11.3259 15.0079 11.1499 14.5599 11.1499C14.2506 11.1499 13.9359 11.2565 13.6159 11.4699C13.3066 11.6725 13.0239 11.9445 12.7679 12.2859C12.5759 12.5419 12.3306 12.6699 12.0319 12.6699C11.7973 12.6699 11.5786 12.5792 11.3759 12.3979C11.1839 12.2165 11.0879 12.0139 11.0879 11.7899C11.0879 11.6299 11.1413 11.4699 11.2479 11.3099C11.3546 11.1392 11.5146 10.9472 11.7279 10.7339C12.1333 10.3285 12.6026 10.0032 13.1359 9.75788C13.6693 9.51254 14.1813 9.38988 14.6719 9.38988C15.3759 9.38988 15.9946 9.53921 16.5279 9.83788C17.0613 10.1365 17.4719 10.5472 17.7599 11.0699C18.0479 11.5925 18.1919 12.1845 18.1919 12.8459C18.1919 13.4965 18.0159 14.1685 17.6639 14.8619C17.3226 15.5445 16.8586 16.2005 16.2719 16.8299L14.2399 18.9899H17.5359Z" fill="#8F68FC"/>
</svg>
