<svg width="30" height="30" viewBox="0 0 30 30" fill="none" xmlns="http://www.w3.org/2000/svg">
<circle opacity="0.2" cx="15" cy="15" r="15" fill="#8F68FC"/>
<path d="M15.1813 13.6459C15.768 13.6672 16.2853 13.8379 16.7333 14.1579C17.192 14.4779 17.544 14.8992 17.7893 15.4219C18.0346 15.9339 18.1573 16.4832 18.1573 17.0699C18.1573 17.8485 17.9813 18.5312 17.6293 19.1179C17.2773 19.6939 16.7813 20.1365 16.1413 20.4459C15.5013 20.7552 14.7546 20.9099 13.9013 20.9099C13.5173 20.9099 13.1333 20.8619 12.7493 20.7659C12.3653 20.6699 12.0293 20.5419 11.7413 20.3819C11.3466 20.1685 11.1493 19.8805 11.1493 19.5179C11.1493 19.2619 11.24 19.0272 11.4213 18.8139C11.6026 18.6005 11.8213 18.4939 12.0773 18.4939C12.2906 18.4939 12.52 18.5739 12.7653 18.7339C13.224 19.0859 13.7306 19.2619 14.2853 19.2619C14.616 19.2619 14.9306 19.1819 15.2293 19.0219C15.528 18.8512 15.768 18.6112 15.9493 18.3019C16.1413 17.9819 16.2373 17.6192 16.2373 17.2139C16.2373 16.6379 16.0613 16.1899 15.7093 15.8699C15.368 15.5499 14.952 15.3899 14.4613 15.3899C14.248 15.3899 14.0613 15.4112 13.9013 15.4539C13.7413 15.4965 13.6453 15.5232 13.6133 15.5339C13.336 15.6192 13.1066 15.6619 12.9253 15.6619C12.6906 15.6619 12.504 15.5819 12.3653 15.4219C12.2266 15.2512 12.1573 15.0432 12.1573 14.7979C12.1573 14.6485 12.184 14.5152 12.2373 14.3979C12.2906 14.2805 12.3813 14.1525 12.5093 14.0139L14.9893 11.3099H11.8213C11.5653 11.3099 11.352 11.2245 11.1813 11.0539C11.0106 10.8832 10.9253 10.6699 10.9253 10.4139C10.9253 10.1685 11.0106 9.96588 11.1813 9.80588C11.352 9.63521 11.5653 9.54988 11.8213 9.54988H16.7173C17.0373 9.54988 17.2826 9.64054 17.4533 9.82188C17.624 9.99254 17.7093 10.2219 17.7093 10.5099C17.7093 10.7659 17.5813 11.0219 17.3253 11.2779L15.1813 13.6459Z" fill="#8F68FC"/>
</svg>
